<?xml version="1.0" encoding="UTF-8"?>
<svg width=".422in" height=".561in" version="1.1" viewBox="0 0 38 50.47" xmlns="http://www.w3.org/2000/svg">
  <desc>
    <referenceFile>ttp223.svg</referenceFile>
  </desc>
  <g id="breadboard">
    <rect width="38" height="50.47" fill="#ff2a2a"/>
    <rect x=".27955" y="4.0447" width="37.435" height="27.423" fill="#d56f6f"/>
    <circle cx="18.944" cy="17.758" r="13.7" fill="none" stroke="#fdf6f6" stroke-width=".5"/>
    <g fill="#ffffff" font-family="'Droid Sans'" stroke-width=".5">
      <text x="12.870071" y="3.3758087" font-size="4">TTP223</text>
      <text x="11.262762" y="19.112133" font-size="4.6666">TOUCH</text>
      <g font-size="4">
        <text transform="rotate(-90)" x="-42" y="29.14386">GND</text>
        <text transform="rotate(-90)" x="-42" y="20.204147">I/O</text>
        <text transform="rotate(-90)" x="-42" y="11.135895">VCC</text>
      </g>
    </g>
    <g>
      <rect x="23.76" y="42.915" width="6.861" height="6.834" fill="#819366"/>
      <circle cx="27.225" cy="46.345" r="3" fill="#c37550"/>
      <circle cx="27.215" cy="46.355" r="2.5" fill="#d0442f"/>
      <circle id="connector0pin" cx="27.205" cy="46.37" r="1.825" fill="black"/>
      <circle cx="9.24" cy="46.31" r="3.4" fill="#819366"/>
      <circle cx="9.265" cy="46.34" r="3" fill="#c37550"/>
      <circle cx="9.25" cy="46.355" r="2.5" fill="#d0442f"/>
      <circle id="connector1pin" cx="9.245" cy="46.37" r="1.825" fill="#3c1d14"/>
      <circle cx="18.348" cy="46.31" r="3.4" fill="#819366"/>
      <circle cx="18.373" cy="46.34" r="3" fill="#c37550"/>
      <circle cx="18.358" cy="46.355" r="2.5" fill="#d0442f"/>
      <circle id="connector2pin" cx="18.353" cy="46.37" r="1.825" fill="#3c1d14"/>
    </g>
  </g>
</svg>
