<?xml version="1.0" encoding="UTF-8" standalone="no"?>
<!-- Created with Inkscape (http://www.inkscape.org/) -->

<svg
   width="61.309433mm"
   height="83.079163mm"
   viewBox="0 0 61.309433 83.079163"
   version="1.1"
   id="svg1"
   xml:space="preserve"
   inkscape:version="1.3.2 (091e20e, 2023-11-25, custom)"
   sodipodi:docname="display7.svg"
   xmlns:inkscape="http://www.inkscape.org/namespaces/inkscape"
   xmlns:sodipodi="http://sodipodi.sourceforge.net/DTD/sodipodi-0.dtd"
   xmlns="http://www.w3.org/2000/svg"
   xmlns:svg="http://www.w3.org/2000/svg"><sodipodi:namedview
     id="namedview1"
     pagecolor="#ffffff"
     bordercolor="#000000"
     borderopacity="0.25"
     inkscape:showpageshadow="2"
     inkscape:pageopacity="0.0"
     inkscape:pagecheckerboard="0"
     inkscape:deskcolor="#d1d1d1"
     inkscape:document-units="mm"
     inkscape:zoom="0.6743757"
     inkscape:cx="-292.86346"
     inkscape:cy="279.51778"
     inkscape:window-width="1920"
     inkscape:window-height="974"
     inkscape:window-x="-11"
     inkscape:window-y="-11"
     inkscape:window-maximized="1"
     inkscape:current-layer="layer1" /><defs
     id="defs1" /><g
     inkscape:label="Capa 1"
     inkscape:groupmode="layer"
     id="layer1"
     transform="translate(-122.97435,-31.827657)"><path
       style="fill:#ff0000;stroke-width:1.98276;stroke-miterlimit:4.6"
       id="path2"
       sodipodi:type="arc"
       sodipodi:cx="177.78378"
       sodipodi:cy="108.31549"
       sodipodi:rx="6.5"
       sodipodi:ry="6.5"
       sodipodi:start="6.2629073"
       sodipodi:end="6.2625229"
       sodipodi:open="true"
       sodipodi:arc-type="arc"
       d="m 184.28245,108.18369 a 6.5,6.5 0 0 1 -6.36624,6.63045 6.5,6.5 0 0 1 -6.63107,-6.3656 6.5,6.5 0 0 1 6.36497,-6.63167 6.5,6.5 0 0 1 6.63229,6.36432" /><path
       style="fill:#ff0000"
       d="m 132.69327,112.05823 c -1.56186,-1.56672 -2.83976,-2.96774 -2.83976,-3.11337 0,-0.14562 1.28187,-1.54266 2.8486,-3.10453 l 2.84859,-2.83976 h 11.24498 11.24499 l 2.90149,2.91052 2.90149,2.91051 -3.03398,3.04261 -3.03398,3.04261 h -11.12133 -11.12133 z m -6.87916,-6.87917 -2.83976,-2.84859 V 91.085492 79.840508 l 2.91041,-2.901392 2.91042,-2.901392 2.91042,2.901392 2.91041,2.901392 v 11.253817 11.253815 l -2.84859,2.83976 c -1.56672,1.56186 -2.90821,2.83976 -2.98107,2.83976 -0.0729,0 -1.41038,-1.28187 -2.97224,-2.8486 z m 35.85132,-0.13202 -2.97233,-2.98079 V 90.953381 79.840508 l 2.84859,-2.839758 c 1.56673,-1.561868 2.96774,-2.839759 3.11337,-2.839759 0.14562,0 1.54266,1.281866 3.10453,2.848591 l 2.83976,2.848592 v 11.112495 11.112491 l -2.98079,2.97234 -2.98079,2.97233 z M 132.69327,76.339483 c -1.56186,-1.566725 -2.83976,-2.96774 -2.83976,-3.113366 0,-0.145627 1.28187,-1.542667 2.8486,-3.104534 l 2.84859,-2.839759 h 11.11249 11.1125 l 3.03398,3.04261 3.03398,3.04261 -2.90149,2.910515 -2.90149,2.910515 H 146.78685 135.53303 Z M 125.81411,69.7249 122.97435,66.876308 V 55.631325 44.386341 l 2.91041,-2.901392 2.91042,-2.901392 2.91042,2.901392 2.91041,2.901392 v 11.253816 11.253817 l -2.84859,2.839758 c -1.56672,1.561868 -2.90821,2.839759 -2.98107,2.839759 -0.0729,0 -1.41038,-1.281866 -2.97224,-2.848591 z m 35.85132,-0.132024 -2.97233,-2.98079 V 55.499214 44.386341 l 2.84859,-2.839758 c 1.56673,-1.561868 2.96774,-2.839759 3.11337,-2.839759 0.14562,0 1.54266,1.281866 3.10453,2.848591 l 2.83976,2.848592 v 11.112495 11.112496 l -2.98079,2.972334 -2.98079,2.972335 z m -29.03379,-29.033969 -2.90139,-2.910416 2.90139,-2.910417 2.90139,-2.910417 h 11.25382 11.25382 l 2.90139,2.910417 2.90139,2.910417 -2.90139,2.910416 -2.90139,2.910417 h -11.25382 -11.25382 z"
       id="path1"
       sodipodi:nodetypes="ssscccccccccsscccccccccsssccccsssccccccssscccccccccsscccccccccsssccccsssccccccccccccccccccc" /><text
       xml:space="preserve"
       style="font-size:8.46667px;line-height:1;font-family:Sans;-inkscape-font-specification:'Sans, Normal';word-spacing:0.00264583px;fill:#ffffff;stroke-width:1;stroke-miterlimit:4.6"
       x="144.12654"
       y="40.376637"
       id="text2"><tspan
         sodipodi:role="line"
         id="tspan2"
         x="144.12654"
         y="40.376637"
         style="font-size:8.46667px;fill:#ffffff;stroke-width:1">A</tspan></text><text
       xml:space="preserve"
       style="font-size:8.46667px;line-height:1;font-family:Sans;-inkscape-font-specification:'Sans, Normal';word-spacing:0.00264583px;fill:#ffffff;stroke-width:1;stroke-miterlimit:4.6"
       x="161.43336"
       y="58.706249"
       id="text2-1"><tspan
         sodipodi:role="line"
         id="tspan2-3"
         x="161.43336"
         y="58.706249"
         style="font-size:8.46667px;fill:#ffffff;stroke-width:1">B</tspan></text><text
       xml:space="preserve"
       style="font-size:8.46667px;line-height:1;font-family:Sans;-inkscape-font-specification:'Sans, Normal';word-spacing:0.00264583px;fill:#ffffff;stroke-width:1;stroke-miterlimit:4.6"
       x="161.78476"
       y="94.943367"
       id="text2-1-4"><tspan
         sodipodi:role="line"
         id="tspan2-3-9"
         x="161.78476"
         y="94.943367"
         style="font-size:8.46667px;fill:#ffffff;stroke-width:1">C</tspan></text><text
       xml:space="preserve"
       style="font-size:8.46667px;line-height:1;font-family:Sans;-inkscape-font-specification:'Sans, Normal';word-spacing:0.00264583px;fill:#ffffff;stroke-width:1;stroke-miterlimit:4.6"
       x="143.40721"
       y="111.39334"
       id="text3"><tspan
         sodipodi:role="line"
         id="tspan3"
         x="143.40721"
         y="111.39334"
         style="font-size:8.46667px;fill:#ffffff;stroke-width:1">D</tspan></text><text
       xml:space="preserve"
       style="font-size:8.46667px;line-height:1;font-family:Sans;-inkscape-font-specification:'Sans, Normal';word-spacing:0.00264583px;fill:#ffffff;stroke-width:1;stroke-miterlimit:4.6"
       x="126.28083"
       y="94.831749"
       id="text4"><tspan
         sodipodi:role="line"
         id="tspan4"
         x="126.28083"
         y="94.831749"
         style="font-size:8.46667px;fill:#ffffff;stroke-width:1">E</tspan></text><text
       xml:space="preserve"
       style="font-size:8.46667px;line-height:1;font-family:Sans;-inkscape-font-specification:'Sans, Normal';word-spacing:0.00264583px;fill:#ffffff;stroke-width:1;stroke-miterlimit:4.6"
       x="143.75861"
       y="76.521698"
       id="text5"><tspan
         sodipodi:role="line"
         id="tspan5"
         x="143.75861"
         y="76.521698"
         style="font-size:8.46667px;fill:#ffffff;stroke-width:1">G</tspan></text><text
       xml:space="preserve"
       style="font-size:8.46667px;line-height:1;font-family:Sans;-inkscape-font-specification:'Sans, Normal';word-spacing:0.00264583px;fill:#ffffff;stroke-width:1;stroke-miterlimit:4.6"
       x="126.28083"
       y="58.706249"
       id="text6"><tspan
         sodipodi:role="line"
         id="tspan6"
         x="126.28083"
         y="58.706249"
         style="font-size:8.46667px;fill:#ffffff;stroke-width:1">F</tspan></text><text
       xml:space="preserve"
       style="font-size:7.05556px;line-height:1;font-family:Sans;-inkscape-font-specification:'Sans, Normal';word-spacing:0.00264583px;fill:#ffffff;stroke-width:1;stroke-miterlimit:4.6"
       x="172.69882"
       y="110.88036"
       id="text7"><tspan
         sodipodi:role="line"
         id="tspan7"
         x="172.69882"
         y="110.88036"
         style="font-size:7.05556px;fill:#ffffff;stroke-width:1">DP</tspan></text></g></svg>
