<?xml version="1.0" encoding="UTF-8" standalone="no"?>
<!-- Created with Inkscape (http://www.inkscape.org/) -->

<svg
   width="36.187695mm"
   height="40.611515mm"
   viewBox="0 0 36.187695 40.611515"
   version="1.1"
   id="svg1"
   xml:space="preserve"
   inkscape:version="1.3.2 (091e20e, 2023-11-25, custom)"
   sodipodi:docname="dropdown-arrow.svg"
   xmlns:inkscape="http://www.inkscape.org/namespaces/inkscape"
   xmlns:sodipodi="http://sodipodi.sourceforge.net/DTD/sodipodi-0.dtd"
   xmlns="http://www.w3.org/2000/svg"
   xmlns:svg="http://www.w3.org/2000/svg"><sodipodi:namedview
     id="namedview1"
     pagecolor="#ffffff"
     bordercolor="#000000"
     borderopacity="0.25"
     inkscape:showpageshadow="2"
     inkscape:pageopacity="0.0"
     inkscape:pagecheckerboard="0"
     inkscape:deskcolor="#d1d1d1"
     inkscape:document-units="mm"
     inkscape:zoom="2.6975028"
     inkscape:cx="-5.1899853"
     inkscape:cy="128.45214"
     inkscape:window-width="1920"
     inkscape:window-height="974"
     inkscape:window-x="-11"
     inkscape:window-y="-11"
     inkscape:window-maximized="1"
     inkscape:current-layer="layer1" /><defs
     id="defs1" /><g
     inkscape:label="Capa 1"
     inkscape:groupmode="layer"
     id="layer1"
     transform="translate(-72.191238,-108.96069)"><path
       style="fill:#0095ff;fill-opacity:1"
       d="m 81.361128,148.50752 c -5.842,-2.92402 -9.539655,-9.32622 -9.140492,-15.82605 0.28213,-4.5941 2.320781,-8.49145 6.035852,-11.53892 2.51252,-2.06101 6.79916,-3.79107 9.42284,-3.803 0.47295,-0.002 0.8599,-0.10707 0.8599,-0.23314 0,-0.12608 -0.29442,-1.79166 -0.65426,-3.7013 -0.35984,-1.90964 -0.58483,-3.65298 -0.49998,-3.87409 0.25798,-0.67228 1.32008,-0.76793 2.13535,-0.19231 0.40627,0.28685 4.727269,2.93067 9.602219,5.87516 4.874953,2.94449 8.951023,5.48966 9.057933,5.65592 0.10691,0.16627 0.19621,0.43891 0.19844,0.60587 0.008,0.60669 -14.026043,18.74459 -14.571893,18.83289 -0.29394,0.0476 -0.6904,-0.043 -0.881019,-0.20118 -0.19062,-0.1582 -0.74128,-2.05984 -1.22371,-4.22587 l -0.87712,-3.93825 -1.22575,-0.1626 c -2.61714,-0.34717 -6.24318,0.9371 -7.62538,2.70077 -1.05566,1.34701 -1.26585,1.80693 -1.62605,3.55786 -0.68017,3.30637 0.9364,7.00527 4.16167,9.52241 0.72592,0.56654 0.7631,1.41267 0.0782,1.77922 -0.74072,0.39643 -0.80046,0.381 -3.22674,-0.83339 z"
       id="path1"
       sodipodi:node"type"s="ssscssssssccsscsssssss"
       inkscape:export-filename="redo.png"
       inkscape:export-xdpi="96"
       inkscape:export-ydpi="96" /><path
       style="fill:#0095ff;fill-opacity:1"
       d="m 54.823922,149.33795 c -0.640359,-0.64036 -0.335983,-1.40772 0.939271,-2.36797 1.568958,-1.18141 2.973646,-3.48801 3.418914,-5.61412 0.5082,-2.4266 0.05918,-4.53804 -1.389229,-6.53254 -1.466923,-2.02 -5.015964,-3.3916 -7.810781,-3.01864 l -1.217034,0.16241 -0.86174,3.88324 c -0.473957,2.13578 -0.982668,4.03207 -1.130468,4.21397 -0.812464,0.99992 -1.298154,0.48855 -8.48415,-8.93265 -3.886089,-5.09486 -7.065616,-9.49118 -7.065616,-9.76959 0,-0.37984 1.832927,-1.61349 7.342188,-4.94165 4.038203,-2.43949 8.449741,-5.1274 9.803419,-5.97312 1.353678,-0.84572 2.626848,-1.53768 2.829268,-1.53768 0.202419,0 0.536994,0.24122 0.743498,0.53605 0.326924,0.46675 0.31115,0.88576 -0.122013,3.24115 -0.944587,5.13632 -0.952594,4.68947 0.08403,4.68947 2.023444,0 5.670424,1.25902 8.026904,2.77107 1.56159,1.00201 3.812442,3.19252 4.862332,4.73199 0.931523,1.3659 2.077315,4.21689 2.419152,6.01938 1.2953,6.8301 -2.531321,14.36533 -8.955708,17.63524 -2.32269,1.18221 -2.915216,1.321 -3.432234,0.80399 z"
       id="path2"
       sodipodi:node"type"s="ssssscssssssssssssssss"
       inkscape:export-filename="undo.png"
       inkscape:export-xdpi="96"
       inkscape:export-ydpi="96" /></g></svg>
