<?xml version="1.0" encoding="UTF-8" standalone="no"?>
<!-- Created with Inkscape (http://www.inkscape.org/) -->

<svg
   gorn="0"
   height="137.02457mm"
   id="svg1"
   version="1.1"
   viewBox="0 0 119.57836 137.02456"
   width="119.57835mm"
   xml:space="preserve"
   sodipodi:docname="fc-51.svg"
   inkscape:version="1.4.2 (f4327f4, 2025-05-13)"
   xmlns:inkscape="http://www.inkscape.org/namespaces/inkscape"
   xmlns:sodipodi="http://sodipodi.sourceforge.net/DTD/sodipodi-0.dtd"
   xmlns="http://www.w3.org/2000/svg"
   xmlns:svg="http://www.w3.org/2000/svg"><sodipodi:namedview
   id="namedview7"
   pagecolor="#505050"
   bordercolor="#eeeeee"
   borderopacity="1"
   inkscape:showpageshadow="0"
   inkscape:pageopacity="0"
   inkscape:pagecheckerboard="0"
   inkscape:deskcolor="#505050"
   inkscape:document-units="mm"
   inkscape:zoom="0.89796261"
   inkscape:cx="205.46513"
   inkscape:cy="232.1923"
   inkscape:window-width="1366"
   inkscape:window-height="697"
   inkscape:window-x="-8"
   inkscape:window-y="-8"
   inkscape:window-maximized="1"
   inkscape:current-layer="svg1" />
    <desc
   id="desc1">
        <referenceFile>FC-51.svg</referenceFile>
    </desc>
    <defs
   id="defs1" />
    
<g
   id="g63"
   transform="matrix(2.0942567,-2.6357808,2.6357808,2.0942567,14.695195,97.421172)"><rect
     style="fill:#6d7176;fill-opacity:1;stroke-width:1"
     id="rect10"
     width="6.7859445"
     height="0.70014554"
     x="-9.1447544"
     y="6.7009668" /><rect
     style="fill:#6d7176;fill-opacity:1;stroke-width:1"
     id="rect21"
     width="6.7859445"
     height="0.70014554"
     x="-9.1447544"
     y="4.3748102" /><rect
     style="fill:#6d7176;fill-opacity:1;stroke-width:1"
     id="rect25"
     width="6.7859445"
     height="0.70014554"
     x="-9.1447544"
     y="1.6906823" /><path
     style="fill:#6c6d6a;fill-opacity:1;stroke-width:1"
     d="m 28.071403,-1.7445755 6.641089,0.260435 c 1.258768,0.22571 2.031391,0.86811695 2.317869,1.92721895 -0.01736,1.57997205 -0.659767,2.50017505 -1.927217,2.76061005 l -7.031741,0.234391 z"
     id="path10"
     sodipodi:nodetypes="cccccc" /><path
     style="fill:#16191e;fill-opacity:1;stroke-width:1"
     d="m 28.071403,7.5269089 0.2409,-1.2045124 0.931053,-0.0065 0.247414,0.162772 5.570781,-0.06714 c 0.644545,0.116014 1.912526,0.349135 2.228279,1.8047224 0.281671,1.356069 -0.296094,2.5298331 -1.694228,3.1306401 l -5.616736,0.184155 -0.368311,0.441973 -0.976024,0.03683 -0.563128,-1.473242 z"
     id="path11"
     sodipodi:nodetypes="cccccccccccc" /><rect
     style="fill:#003c7b;fill-opacity:1;stroke-width:1.00491"
     id="rect7"
     width="30.653194"
     height="14.948966"
     x="-2.5817926"
     y="-2.7863131" /><g
     id="g56"
     transform="translate(-13.594411,-7.7733901)"><g
       id="g34"
       transform="translate(2.1092528,-16.650652)"><rect
         style="fill:#262727;fill-opacity:1;stroke-width:1"
         id="rect26"
         width="3.8544371"
         height="4.5576115"
         x="22.006754"
         y="23.49123" /><rect
         style="fill:#b5bba9;fill-opacity:1;stroke-width:1"
         id="rect27"
         width="1.4734367"
         height="0.49721935"
         x="20.533318"
         y="23.700788" /><rect
         style="fill:#b5bba9;fill-opacity:1;stroke-width:1"
         id="rect28"
         width="1.4734367"
         height="0.49721935"
         x="20.533318"
         y="24.925421" /><rect
         style="fill:#b5bba9;fill-opacity:1;stroke-width:1"
         id="rect29"
         width="1.4734367"
         height="0.49721935"
         x="20.533318"
         y="26.214508" /><rect
         style="fill:#b5bba9;fill-opacity:1;stroke-width:1"
         id="rect30"
         width="1.4734367"
         height="0.49721935"
         x="20.533318"
         y="27.475" /><rect
         style="fill:#b5bba9;fill-opacity:1;stroke-width:1"
         id="rect31"
         width="1.4734367"
         height="0.49721935"
         x="25.854"
         y="23.700788" /><rect
         style="fill:#b5bba9;fill-opacity:1;stroke-width:1"
         id="rect32"
         width="1.4734367"
         height="0.49721935"
         x="25.854"
         y="24.925421" /><rect
         style="fill:#b5bba9;fill-opacity:1;stroke-width:1"
         id="rect33"
         width="1.4734367"
         height="0.49721935"
         x="25.854"
         y="26.214508" /><rect
         style="fill:#b5bba9;fill-opacity:1;stroke-width:1"
         id="rect34"
         width="1.4734367"
         height="0.49721935"
         x="25.854"
         y="27.475" /></g><rect
       style="fill:#1e2125;fill-opacity:1;stroke-width:1.2288"
       id="rect35"
       width="1.491658"
       height="3.8856769"
       x="19.4751"
       y="7.2711239" /><rect
       style="fill:#1e2125;fill-opacity:1;stroke-width:1.2288"
       id="rect36"
       width="1.491658"
       height="3.8856769"
       x="19.468781"
       y="13.543192" /><rect
       style="fill:#1e2125;fill-opacity:1;stroke-width:1.2288"
       id="rect37"
       width="1.491658"
       height="3.8856769"
       x="-7.9817009"
       y="31.844017"
       transform="rotate(-90)" /><rect
       style="fill:#1e2125;fill-opacity:1;stroke-width:1.2288"
       id="rect38"
       width="1.491658"
       height="3.8856769"
       x="-10.449383"
       y="31.825602"
       transform="rotate(-90)" /><rect
       style="fill:#1e2125;fill-opacity:1;stroke-width:1.2288"
       id="rect39"
       width="1.491658"
       height="3.8856769"
       x="-13.027557"
       y="31.844017"
       transform="rotate(-90)" /><g
       id="g46"
       transform="translate(2.1092528,-16.650652)"><rect
         style="fill:#c19b6a;fill-opacity:1;stroke-width:1.2288"
         id="rect40"
         width="1.491658"
         height="3.8856769"
         x="-32.753605"
         y="29.826841"
         transform="rotate(-90)" /><rect
         style="fill:#bbbeb6;fill-opacity:1;stroke-width:0.521473"
         id="rect41"
         width="1.491658"
         height="0.69979"
         x="-32.753605"
         y="29.826841"
         transform="rotate(-90)" /><rect
         style="fill:#bbbeb6;fill-opacity:1;stroke-width:0.521473"
         id="rect42"
         width="1.491658"
         height="0.69979"
         x="-32.753605"
         y="33.012726"
         transform="rotate(-90)" /></g><g
       id="g45"
       transform="translate(2.1092528,-16.650652)"><rect
         style="fill:#c19b6a;fill-opacity:1;stroke-width:1.2288"
         id="rect43"
         width="1.491658"
         height="3.8856769"
         x="-35.728657"
         y="29.826841"
         transform="rotate(-90)" /><rect
         style="fill:#bbbeb6;fill-opacity:1;stroke-width:0.521473"
         id="rect44"
         width="1.491658"
         height="0.69979"
         x="-35.728657"
         y="29.826841"
         transform="rotate(-90)" /><rect
         style="fill:#bbbeb6;fill-opacity:1;stroke-width:0.521473"
         id="rect45"
         width="1.491658"
         height="0.69979"
         x="-35.728657"
         y="33.012726"
         transform="rotate(-90)" /></g><rect
       style="fill:#bbbeb6;fill-opacity:1;stroke-width:1"
       id="rect46"
       width="2.5597587"
       height="0.44197273"
       x="39.092911"
       y="7.1790457" /><rect
       style="fill:#bbbeb6;fill-opacity:1;stroke-width:1"
       id="rect47"
       width="2.5597587"
       height="0.44197273"
       x="39.092911"
       y="9.6467266" /><rect
       style="fill:#bbbeb6;fill-opacity:1;stroke-width:1"
       id="rect48"
       width="2.5597587"
       height="0.44197273"
       x="39.106056"
       y="15.355539" /><rect
       style="fill:#bbbeb6;fill-opacity:1;stroke-width:1"
       id="rect49"
       width="2.5597587"
       height="0.44197273"
       x="39.013977"
       y="17.823221" /><rect
       style="fill:#bbbeb6;fill-opacity:1;stroke-width:1.08342"
       id="rect50"
       width="2.4611099"
       height="0.87245703"
       x="15.104957"
       y="7.3484268" /><rect
       style="fill:#bbbeb6;fill-opacity:1;stroke-width:1.08342"
       id="rect51"
       width="2.4611099"
       height="0.87245703"
       x="15.21545"
       y="16.887671" /><g
       id="g55"
       transform="translate(22.433682,12.714495)"><rect
         style="fill:#0b6ce4;fill-opacity:1;stroke-width:1"
         id="rect52"
         width="7.2188883"
         height="6.7769156"
         x="0"
         y="0" /><ellipse
         style="fill:#b3ac93;fill-opacity:1;stroke-width:1.44121"
         id="path52"
         cx="3.6094441"
         cy="3.3884578"
         rx="1.5469046"
         ry="1.5008658" /><g
         id="g54"
         transform="translate(-20.211044,-29.170201)"><rect
           style="fill:#54524b;fill-opacity:1;stroke-width:1.02262"
           id="rect53"
           width="0.82869887"
           height="2.9464848"
           x="23.406139"
           y="31.085417" /><rect
           style="fill:#54524b;fill-opacity:1;stroke-width:1.02262"
           id="rect54"
           width="0.82869887"
           height="2.9464848"
           x="-32.973007"
           y="22.347246"
           transform="rotate(-90)" /></g><circle
         style="fill:#979993;fill-opacity:1;stroke-width:1.2799"
         id="path54"
         cx="1.0015944"
         cy="5.815856"
         r="0.30000001" /></g></g><circle
     style="fill:#ffffff;fill-opacity:1;stroke-width:0.996813"
     id="path56"
     cx="2.9768174"
     cy="4.6881704"
     r="1.6" /><g
     id="g58"
     transform="translate(-8.9790144,-23.245968)"><rect
       style="fill:#000000;fill-opacity:1;stroke-width:1.05787"
       id="rect56"
       width="2.2"
       height="2.2"
       x="6.2981119"
       y="24.114838" /><rect
       style="fill:#000000;fill-opacity:1;stroke-width:1.05787"
       id="rect57"
       width="2.2"
       height="2.2"
       x="6.3717742"
       y="26.674597" /><rect
       style="fill:#000000;fill-opacity:1;stroke-width:1.05787"
       id="rect58"
       width="2.2"
       height="2.2"
       x="6.3349433"
       y="29.142279" /></g><path
     d="m 0,-0.50918473 q 0,-0.25149178 0.13504764,-0.3934296 0.13504764,-0.14262687 0.3486434,-0.14262687 0.13987077,0 0.2521808,0.0668348 0.11231003,0.0668348 0.17087661,0.18672404 0.0592556,0.11920021 0.0592556,0.2707843 0,0.15365114 -0.0620117,0.27491841 Q 0.8419807,-0.12471236 0.72829264,-0.06201167 0.61460457,0 0.48300202,0 0.34037518,0 0.22806515,-0.06890186 0.11575512,-0.13780372 0.05787756,-0.25700393 0,-0.37620414 0,-0.50918473 Z m 0.13780372,0.002067 q 0,0.18258992 0.0978406,0.28800976 0.0985297,0.10473083 0.24666865,0.10473083 0.15089506,0 0.24804668,-0.10610886 0.0978406,-0.10610887 0.0978406,-0.30110112 0,-0.12333433 -0.0420301,-0.2149738 -0.0413411,-0.0923285 -0.12195629,-0.14262684 -0.0799262,-0.0509874 -0.17983385,-0.0509874 -0.14193783,0 -0.24460159,0.0978406 -0.10197475,0.0971516 -0.1019747,0.32521683 z M 1.8010945,-1.0273267 h 0.1336696 v 0.58359874 q 0,0.1522731 -0.034451,0.24184552 -0.034451,0.0895724 -0.1247124,0.14607193 Q 1.6860284,0 1.5399565,0 1.3980186,0 1.3077572,-0.04892032 1.2174958,-0.09784064 1.1789107,-0.19016913 1.1403257,-0.28318664 1.1403257,-0.44372796 V -1.0273267 h 0.1336696 v 0.58290972 q 0,0.13160255 0.024116,0.19430324 0.024805,0.0620117 0.08406,0.0957736 0.059945,0.0337619 0.146072,0.0337619 0.1474499,0 0.2101506,-0.0668348 0.062701,-0.0668348 0.062701,-0.25700393 z m 0.6132264,1.01010124 V -0.90812648 H 2.0815249 V -1.0273267 h 0.8006396 v 0.11920022 h -0.334174 v 0.89090102 z"
     id="text59"
     style="font-size:1.41111px;line-height:1.25;font-family:Arial;-inkscape-font-specification:Arial;text-align:justify;fill:#ffffff"
     transform="rotate(90)"
     aria-label="OUT" /><path
     d="m 3.6255437,-0.41341115 v -0.11851119 l 0.4278806,-6.8902e-4 v 0.37482611 Q 3.9548946,-0.07923714 3.8501638,-0.03927406 3.745433,0 3.63519,0 3.486362,0 3.3644057,-0.06338971 3.2431384,-0.12746844 3.1811268,-0.24804669 q -0.062012,-0.12057825 -0.062012,-0.26940626 0,-0.14744998 0.061323,-0.27491841 0.062012,-0.12815746 0.1777668,-0.19016913 0.1157552,-0.0620117 0.2666502,-0.0620117 0.109554,0 0.1977484,0.035829 0.088883,0.0351399 0.1391817,0.0985297 0.050298,0.0633897 0.076481,0.16536446 l -0.1205783,0.0330729 Q 3.8949496,-0.78892623 3.8611886,-0.8330234 3.8274266,-0.8771206 3.7647256,-0.9033033 3.7020246,-0.930175 3.6255438,-0.930175 q -0.091639,0 -0.1584742,0.0282498 -0.066835,0.0275608 -0.1081759,0.073036 -0.040652,0.0454752 -0.06339,0.0999077 -0.038585,0.0937065 -0.038585,0.20326048 0,0.13504764 0.046164,0.22599809 0.046853,0.0909504 0.1357366,0.13504764 0.088883,0.0440972 0.1887911,0.0440972 0.086816,0 0.1694986,-0.0330729 0.082682,-0.0337619 0.1254014,-0.0716579 v -0.18810208 z m 0.6235618,0.39618569 V -1.0273267 h 0.1371147 l 0.5305443,0.79306038 V -1.0273267 H 5.044922 v 1.01010124 H 4.9078073 L 4.377263,-0.81097486 v 0.7937494 z m 1.0204364,0 V -1.0273267 h 0.3479544 q 0.1178221,0 0.1798338,0.014469 0.086816,0.0199815 0.148139,0.0723469 0.079926,0.0675238 0.1192002,0.17294367 0.039963,0.10473082 0.039963,0.23977846 0,0.1150661 -0.026872,0.2039495 -0.026872,0.0888834 -0.068902,0.14744997 -0.04203,0.0578776 -0.092328,0.09163947 -0.049609,0.0330729 -0.1205782,0.05029836 -0.07028,0.01722547 -0.1619194,0.01722547 z m 0.1336696,-0.11920022 h 0.2156628 q 0.099908,0 0.1564072,-0.0186035 0.057189,-0.0186035 0.09095,-0.0523654 0.047542,-0.0475423 0.073725,-0.12746844 0.026872,-0.0806152 0.026872,-0.19499226 0,-0.15847427 -0.052365,-0.24322355 -0.051676,-0.0854383 -0.1260904,-0.11437709 -0.053743,-0.0206705 -0.1729437,-0.0206705 H 5.4032115 Z"
     id="text60"
     style="font-size:1.41111px;line-height:1.25;font-family:Arial;-inkscape-font-specification:Arial;text-align:justify;fill:#ffffff"
     transform="rotate(90)"
     aria-label="GND" /><path
     d="M 6.6827095,-0.01722546 6.2913469,-1.0273267 h 0.1446939 l 0.2625161,0.73380479 q 0.031695,0.0881944 0.053054,0.16536445 0.023427,-0.0826822 0.054432,-0.16536445 L 7.0788952,-1.0273267 h 0.1364256 l -0.3954966,1.01010124 z m 1.373214,-0.35415555 0.1336696,0.0337619 Q 8.147563,-0.17294366 8.038009,-0.08612732 7.9291441,0 7.7713588,0 7.6080614,0 7.5053976,-0.06614578 7.4034229,-0.13298059 7.3496794,-0.25907098 7.296625,-0.38516138 7.296625,-0.52985529 q 0,-0.15778525 0.059945,-0.27491841 0.060634,-0.11782217 0.1715657,-0.17845581 0.111621,-0.0613227 0.2452906,-0.0613227 0.1515841,0 0.2549368,0.0771701 0.1033528,0.0771701 0.1440049,0.21704085 l -0.1316025,0.0310058 q -0.03514,-0.11024298 -0.1019748,-0.16054133 -0.066835,-0.0502984 -0.1681205,-0.0502984 -0.1164441,0 -0.1949923,0.0558105 -0.077859,0.0558105 -0.1095539,0.15020605 -0.031695,0.0937065 -0.031695,0.19361422 0,0.12884647 0.037207,0.22530907 0.037896,0.0957736 0.1171332,0.14331586 0.079237,0.0475423 0.1715656,0.0475423 0.11231,0 0.1901691,-0.0647677 0.077859,-0.0647677 0.1054196,-0.19223612 z m 1.0190584,0 0.1336696,0.0337619 Q 9.1666214,-0.17294366 9.0570674,-0.08612732 8.9482025,0 8.7904172,0 8.6271198,0 8.5244561,-0.06614578 8.4224813,-0.13298059 8.3687379,-0.25907098 q -0.053055,-0.1260904 -0.053055,-0.27078431 0,-0.15778525 0.059945,-0.27491841 0.060634,-0.11782217 0.1715657,-0.17845581 0.111621,-0.0613227 0.2452906,-0.0613227 0.1515841,0 0.2549369,0.0771701 0.1033527,0.0771701 0.1440048,0.21704085 l -0.1316025,0.0310058 q -0.03514,-0.11024298 -0.1019748,-0.16054133 -0.066835,-0.0502984 -0.1681205,-0.0502984 -0.1164441,0 -0.1949923,0.0558105 -0.077859,0.0558105 -0.1095539,0.15020605 -0.031695,0.0937065 -0.031695,0.19361422 0,0.12884647 0.037207,0.22530907 0.037896,0.0957736 0.1171332,0.14331586 0.079237,0.0475423 0.1715656,0.0475423 0.1123101,0 0.1901692,-0.0647677 0.077859,-0.0647677 0.10542,-0.19223612 z"
     id="text61"
     style="font-size:1.41111px;line-height:1.25;font-family:Arial;-inkscape-font-specification:Arial;text-align:justify;fill:#ffffff"
     transform="rotate(90)"
     aria-label="VCC" /><path
     d="m -5.2609352,-10.448347 v -1.010101 h 0.3810273 q 0.1005967,0 0.1536512,0.0096 0.074414,0.0124 0.1247123,0.04754 0.050298,0.03445 0.080615,0.09715 0.031006,0.0627 0.031006,0.137804 0,0.128846 -0.081993,0.218418 -0.081993,0.08888 -0.296278,0.08888 h -0.259071 v 0.410655 z m 0.1336696,-0.529855 h 0.2611381 q 0.1295355,0 0.1839679,-0.04823 0.054432,-0.04823 0.054432,-0.135736 0,-0.06339 -0.032384,-0.108176 -0.031695,-0.04547 -0.08406,-0.05995 -0.033762,-0.009 -0.1247124,-0.009 h -0.258382 z m 0.7668777,0.0379 q 0,-0.251492 0.1350477,-0.39343 0.1350476,-0.142627 0.3486434,-0.142627 0.1398707,0 0.2521807,0.06683 0.1123101,0.06683 0.1708767,0.186724 0.059256,0.1192 0.059256,0.270784 0,0.153651 -0.062012,0.274919 -0.062012,0.121267 -0.1756998,0.183968 -0.113688,0.06201 -0.2452906,0.06201 -0.1426268,0 -0.2549368,-0.0689 -0.1123101,-0.0689 -0.1701876,-0.188103 -0.057878,-0.1192 -0.057878,-0.25218 z m 0.1378037,0.0021 q 0,0.18259 0.097841,0.288009 0.09853,0.104731 0.2466686,0.104731 0.1508951,0 0.2480467,-0.106109 0.097841,-0.106108 0.097841,-0.301101 0,-0.123334 -0.04203,-0.214973 -0.041341,-0.09233 -0.1219563,-0.142627 -0.079926,-0.05099 -0.1798338,-0.05099 -0.1419379,0 -0.2446016,0.09784 -0.1019748,0.09715 -0.1019748,0.325217 z m 1.1768438,0.489892 -0.2680283,-1.010101 h 0.1371147 l 0.1536512,0.662147 q 0.024805,0.104041 0.042719,0.206705 0.038585,-0.161919 0.045475,-0.186724 l 0.1922361,-0.682128 h 0.1612304 l 0.1446939,0.511251 q 0.054432,0.19017 0.078548,0.357601 0.019293,-0.09577 0.050298,-0.219797 l 0.1584742,-0.649055 h 0.1343587 l -0.2769855,1.010101 h -0.1288465 l -0.2129067,-0.769634 q -0.026872,-0.09646 -0.031695,-0.118511 -0.015847,0.06959 -0.029628,0.118511 l -0.2142848,0.769634 z m 1.1582402,0 v -1.010101 h 0.7303597 v 0.1192 h -0.5966901 v 0.309369 h 0.5587941 v 0.118511 h -0.5587941 v 0.343821 h 0.6201167 v 0.1192 z m 0.9405103,0 v -1.010101 h 0.44786208 q 0.13504764,0 0.20532753,0.02756 0.0702799,0.02687 0.11231003,0.09577 0.0420301,0.0689 0.0420301,0.152273 0,0.107487 -0.0695909,0.181212 -0.0695909,0.07372 -0.2149738,0.09371 0.0530544,0.02549 0.0806152,0.0503 0.0585666,0.05374 0.11093199,0.134358 l 0.17569973,0.274919 h -0.16812053 l -0.1336696,-0.210151 q -0.0585666,-0.09095 -0.0964626,-0.139182 -0.037896,-0.04823 -0.0682128,-0.06752 -0.0296278,-0.01929 -0.0606336,-0.02687 -0.0227376,-0.0048 -0.074414,-0.0048 h -0.15502918 v 0.448551 z m 0.13366961,-0.564306 h 0.28732074 q 0.0916395,0 0.14331587,-0.0186 0.0516764,-0.01929 0.0785481,-0.06063 0.0268717,-0.04203 0.0268717,-0.09095 0,-0.07166 -0.0523654,-0.117822 -0.0516764,-0.04616 -0.16398642,-0.04616 h -0.31970462 z"
     id="text62"
     style="font-size:1.41111px;line-height:1.25;font-family:Arial;-inkscape-font-specification:Arial;text-align:justify;fill:#ffffff"
     transform="scale(-1)"
     aria-label="POWER" /><path
     d="m 5.021435,-1.7793999 -0.1260904,0.011024 q -0.00896,-0.075792 -0.041341,-0.1247124 -0.033073,-0.048231 -0.1019747,-0.078548 -0.068902,-0.029628 -0.1550292,-0.029628 -0.076481,0 -0.1350477,0.022738 -0.058567,0.022738 -0.086816,0.062012 -0.028939,0.039963 -0.028939,0.086816 0,0.047542 0.027561,0.082682 0.027561,0.035829 0.09095,0.059945 0.040652,0.015847 0.1798339,0.04892 0.1391817,0.033762 0.1949922,0.06339 0.072347,0.037896 0.1081759,0.093706 0.03514,0.0565 0.03514,0.1260904 0,0.076481 -0.043408,0.1426269 -0.043408,0.066835 -0.1267794,0.1012857 -0.083371,0.034451 -0.185346,0.034451 -0.11231,0 -0.1977483,-0.036518 -0.086127,-0.035829 -0.1322916,-0.1061088 -0.046164,-0.07028 -0.049609,-0.1591633 l 0.1281574,-0.00965 q 0.010335,0.095774 0.07028,0.1446939 0.059256,0.04892 0.1756998,0.04892 0.1212672,0 0.1770777,-0.044786 0.055121,-0.044097 0.055121,-0.1067979 0,-0.054432 -0.039274,-0.089572 -0.038585,-0.03514 -0.2011935,-0.072347 -0.1632974,-0.036518 -0.223931,-0.064079 -0.088194,-0.040652 -0.1302245,-0.1033528 -0.04203,-0.062012 -0.04203,-0.1433159 0,-0.080615 0.046164,-0.1522731 0.046164,-0.070969 0.1329806,-0.110932 0.086127,-0.039274 0.1943032,-0.039274 0.1371147,0 0.2301322,0.039963 0.092328,0.039963 0.1453829,0.1198893 0.052365,0.080615 0.055121,0.1819009 z M 4.0120228,-2.1039277 v 1.0101012 H 3.8783532 V -2.1039277 Z M 3.1700421,-1.707742 v 0.1185112 l -0.4278806,6.89e-4 v -0.3748261 q 0.09853,-0.078548 0.2032605,-0.1185112 0.1047308,-0.039274 0.2149738,-0.039274 0.148828,0 0.2707843,0.06339 0.1212673,0.064079 0.1832789,0.1846569 0.062012,0.1205783 0.062012,0.2694063 0,0.14745 -0.061323,0.2749184 -0.062012,0.1281575 -0.1777668,0.1901691 -0.1157552,0.062012 -0.2666502,0.062012 -0.109554,0 -0.1977484,-0.035829 -0.088883,-0.03514 -0.1391817,-0.09853 -0.050298,-0.06339 -0.076481,-0.1653645 l 0.1205783,-0.033073 q 0.022738,0.07717 0.0565,0.1212673 0.033762,0.044097 0.096463,0.07028 0.062701,0.026872 0.1391818,0.026872 0.091639,0 0.1584742,-0.02825 0.066835,-0.027561 0.1081759,-0.073036 0.040652,-0.045475 0.06339,-0.099908 0.038585,-0.093707 0.038585,-0.2032605 0,-0.1350476 -0.046164,-0.2259981 -0.046853,-0.09095 -0.1357367,-0.1350476 -0.088883,-0.044097 -0.1887911,-0.044097 -0.086816,0 -0.1694986,0.033073 -0.082682,0.033762 -0.1254013,0.071658 V -1.707742 Z M 2.5464804,-2.1039277 v 1.0101012 H 2.4093657 L 1.8788214,-1.8868868 v 0.7930603 H 1.750664 v -1.0101012 h 0.1371147 l 0.5305443,0.7937494 v -0.7937494 z m -0.9095045,0 -0.3879175,1.0101012 H 1.1050536 L 0.69164242,-2.1039277 h 0.1522731 l 0.1178222,0.3059243 H 1.3841061 l 0.110932,-0.3059243 z M 1.345521,-1.6891385 H 1.0030788 l 0.1054199,0.2797415 q 0.048231,0.1274685 0.071658,0.2094617 0.019293,-0.097152 0.054432,-0.1929252 z M 0.59035682,-2.1039277 v 1.0101012 h -0.1336696 v -0.890901 h -0.4974715 v -0.1192002 z"
     id="text63"
     style="font-size:1.41111px;line-height:1.25;font-family:Arial;-inkscape-font-specification:Arial;text-align:justify;fill:#ffffff"
     aria-label="SIGNAL" /></g></svg>
