<?xml version="1.0" encoding="UTF-8" standalone="no"?>
<svg
   height="131.7"
   viewBox="0 0 547.1 131.7"
   width="547.09998"
   version="1.1"
   id="svg40"
   sodipodi:docname="ky-033.svg"
   inkscape:version="1.4.2 (f4327f4, 2025-05-13)"
   xmlns:inkscape="http://www.inkscape.org/namespaces/inkscape"
   xmlns:sodipodi="http://sodipodi.sourceforge.net/DTD/sodipodi-0.dtd"
   xmlns="http://www.w3.org/2000/svg"
   xmlns:svg="http://www.w3.org/2000/svg">
  <defs
     id="defs40" />
  <sodipodi:namedview
     id="namedview40"
     pagecolor="#505050"
     bordercolor="#eeeeee"
     borderopacity="1"
     inkscape:showpageshadow="0"
     inkscape:pageopacity="0"
     inkscape:pagecheckerboard="0"
     inkscape:deskcolor="#505050"
     inkscape:zoom="0.80391233"
     inkscape:cx="-16.170917"
     inkscape:cy="90.183963"
     inkscape:window-width="1366"
     inkscape:window-height="697"
     inkscape:window-x="-8"
     inkscape:window-y="-8"
     inkscape:window-maximized="1"
     inkscape:current-layer="svg40" />
  <desc
     id="desc1">
    <referenceFile>KY033_Sensor_breadboard.svg</referenceFile>
  </desc>
  <title
     id="title1">KY033_Sensor_breadboard</title>
  <g
     id="g40">
    <path
       fill="#414141"
       d="M 0,1.4977112e-8 V 131.7 H 540 V 1.4977112e-8 Z M 350.9,91.4 A 27.3,27.3 0 1 1 378.2,64.1 27.3,27.3 0 0 1 350.9,91.4 Z M 505.4,90.3 A 27.3,27.3 0 1 1 532.7,63 27.3,27.3 0 0 1 505.4,90.4 Z"
       id="path1" />
    <rect
       height="108.64"
       fill="none"
       stroke-width="2"
       x="256"
       y="8.3000002"
       stroke-miterlimit="10"
       stroke="#ffffff"
       width="51.700001"
       id="rect1" />
    <rect
       height="29.299999"
       fill="none"
       stroke-width="2"
       x="65.800003"
       y="87.699997"
       stroke-miterlimit="10"
       stroke="#ffffff"
       width="51.700001"
       id="rect2" />
    <rect
       height="29.299999"
       fill="none"
       stroke-width="2"
       x="128"
       y="88.5"
       stroke-miterlimit="10"
       stroke="#ffffff"
       width="51.700001"
       id="rect3" />
    <rect
       height="131.67"
       ry="35"
       fill="#a3a2a2"
       x="393.29999"
       width="70"
       rx="35"
       id="rect4"
       y="0" />
    <rect
       height="131.25"
       ry="35"
       x="390.60001"
       y="0.40000004"
       width="70"
       rx="35"
       id="rect5" />
    <circle
       r="20.799999"
       fill="#0b0b0b"
       cx="428.29999"
       cy="44"
       id="circle5" />
    <circle
       r="20.799999"
       fill="#285dab"
       cx="428.29999"
       cy="86.699997"
       id="circle6" />
    <path
       fill="#498bca"
       d="m 447,86.7 c 0,8.2 -7.2,-11.3 -18.7,-11.3 -11.5,0 -18.3,20.4 -18.3,12.3 0,-8.1 6.8,-19.6 18.3,-19.6 11.5,0 18.7,10.4 18.7,18.6 z"
       id="path6" />
    <circle
       r="20.799999"
       fill="#171616"
       cx="428.29999"
       cy="40"
       id="circle7" />
    <path
       fill="#8f96b5"
       d="M 448.2,40.3 C 448.2,48.5 441,29 429.5,29 418,29 411.2,49.5 411.2,41.3 c 0,-8.2 6.8,-19.6 18.3,-19.6 11.5,0 18.7,10.5 18.7,18.6 z"
       id="path7" />
    <rect
       height="19.82"
       fill="#999999"
       x="134"
       y="92.699997"
       width="39"
       id="rect7" />
    <rect
       height="19.82"
       fill="#999999"
       x="263.5"
       y="10.2"
       width="39"
       id="rect8" />
    <rect
       height="19.82"
       fill="#999999"
       x="263"
       y="92.5"
       width="39"
       id="rect9" />
    <rect
       height="19.82"
       fill="#999999"
       x="72.199997"
       y="92.400002"
       width="39"
       id="rect10" />
    <path
       fill="#285dab"
       d="m 198.3,11.7 h 55.4 a 47.9,47.9 0 0 1 47.9,47.9 v 0 a 47.9,47.9 0 0 1 -47.9,47.9 h -55.4 z"
       id="path10" />
    <circle
       r="39.200001"
       fill="#ffffff"
       cx="250"
       cy="59.599998"
       id="circle10" />
    <g
       transform="rotate(-30,250.10458,60.815321)"
       id="g15">
      <g
         id="g14">
        <g
           id="g13">
          <g
             id="g12">
            <g
               id="g11">
              <rect
                 height="6.6700001"
                 x="227.2"
                 y="57.5"
                 width="45.599998"
                 id="rect11" />
            </g>
          </g>
        </g>
      </g>
    </g>
    <rect
       height="63.330002"
       x="93.599998"
       y="11.3"
       width="45.700001"
       id="rect15" />
    <path
       fill="#ffffff"
       d="m 505.2,17.7 a 41.9,41.9 0 1 0 41.9,41.9 41.9,41.9 0 0 0 -41.9,-41.9 z m 19.9,61.7 a 28.1,28.1 0 1 1 0,-39.7 28.1,28.1 0 0 1 0,39.8 z"
       id="path15" />
    <path
       fill="#ffffff"
       d="M 351.8,22.2 A 41.9,41.9 0 1 0 393.7,64.1 41.9,41.9 0 0 0 351.8,22.2 Z M 371.7,84 a 28.1,28.1 0 1 1 0,-39.7 28.1,28.1 0 0 1 0,39.7 z"
       id="path16" />
    <path
       fill="#ffffff"
       d="m 23.8,11.7 c -10.7,0 -19.4,8.1 -19.4,18 0,9.9 8.7,18 19.4,18 10.7,0 19.4,-8.1 19.4,-18 0,-9.9 -8.7,-18 -19.4,-18 z M 33,38.3 a 13.7,13.7 0 0 1 -18.4,0 11.5,11.5 0 0 1 0,-17.1 13.7,13.7 0 0 1 18.4,0 11.5,11.5 0 0 1 0,17.1 z"
       id="path17" />
    <path
       fill="#ffffff"
       d="m 23.8,46.3 c -10.7,0 -19.4,8.1 -19.4,18 0,9.9 8.7,18 19.4,18 10.7,0 19.4,-8.1 19.4,-18 0,-9.9 -8.7,-18 -19.4,-18 z M 33,72.9 a 13.7,13.7 0 0 1 -18.4,0 11.5,11.5 0 0 1 0,-17.1 13.7,13.7 0 0 1 18.4,0 11.5,11.5 0 0 1 0,17.1 z"
       id="path18" />
    <path
       fill="#ffffff"
       d="m 23.8,80.9 c -10.7,0 -19.4,8.1 -19.4,18 0,9.9 8.7,18 19.4,18 10.7,0 19.4,-8.1 19.4,-18 0,-9.9 -8.7,-18 -19.4,-18 z m 9.2,26.6 a 13.7,13.7 0 0 1 -18.4,0 11.5,11.5 0 0 1 0,-17.1 13.7,13.7 0 0 1 18.4,0 11.5,11.5 0 0 1 0,17.1 z"
       id="path19" />
    <rect
       height="8.6199999"
       ry="4.3000002"
       fill="#ffffff"
       x="68.900002"
       y="11.3"
       width="20.4"
       rx="4.3000002"
       id="rect19" />
    <rect
       height="8.6199999"
       ry="4.3000002"
       fill="#ffffff"
       x="68.300003"
       y="27.5"
       width="20.4"
       rx="4.3000002"
       id="rect20" />
    <rect
       height="8.6199999"
       ry="4.3000002"
       fill="#ffffff"
       x="68.599998"
       y="43.700001"
       width="20.4"
       rx="4.3000002"
       id="rect21" />
    <rect
       height="8.6199999"
       ry="4.3000002"
       fill="#ffffff"
       x="68.300003"
       y="60"
       width="20.4"
       rx="4.3000002"
       id="rect22" />
    <rect
       height="8.6199999"
       ry="4.3000002"
       fill="#ffffff"
       x="144.60001"
       y="11.4"
       width="20.4"
       rx="4.3000002"
       id="rect23" />
    <rect
       height="8.6199999"
       ry="4.3000002"
       fill="#ffffff"
       x="144"
       y="27.6"
       width="20.4"
       rx="4.3000002"
       id="rect24" />
    <rect
       height="8.6199999"
       ry="4.3000002"
       fill="#ffffff"
       x="144.3"
       y="43.900002"
       width="20.4"
       rx="4.3000002"
       id="rect25" />
    <rect
       height="8.6199999"
       ry="4.3000002"
       fill="#ffffff"
       x="144"
       y="60.099998"
       width="20.4"
       rx="4.3000002"
       id="rect26" />
    <path
       fill="#ffffff"
       d="M 60,62.8 H 56.6 L 47,59 a 0.9,0.9 0 0 1 0,-1.8 l 9.6,-3.7 H 60 a 0.9,0.9 0 0 1 0.7,0.3 0.9,0.9 0 0 1 0,1.3 0.9,0.9 0 0 1 -0.7,0.3 h -3 l -7.2,2.8 7.1,2.8 h 3 a 0.9,0.9 0 0 1 0.7,0.3 0.9,0.9 0 0 1 0,1.3 0.9,0.9 0 0 1 -0.6,0.2 z"
       id="path26" />
    <path
       fill="#ffffff"
       d="m 54.6,70.8 h 2.8 a 0.9,0.9 0 0 1 0.6,0.3 0.9,0.9 0 0 1 0.3,0.7 0.9,0.9 0 0 1 -0.9,0.9 h -2.8 v 2.8 a 0.9,0.9 0 0 1 -0.3,0.7 0.9,0.9 0 0 1 -1.3,0 0.9,0.9 0 0 1 -0.3,-0.7 v -2.9 h -2.8 a 0.9,0.9 0 0 1 -0.7,-0.3 0.9,0.9 0 0 1 -0.3,-0.7 0.9,0.9 0 0 1 0.3,-0.7 0.9,0.9 0 0 1 0.7,-0.3 h 2.8 v -2.7 a 0.9,0.9 0 0 1 0.3,-0.6 0.9,0.9 0 0 1 0.7,-0.3 0.9,0.9 0 0 1 0.9,0.9 v 2.8 z"
       id="path27" />
    <path
       fill="#ffffff"
       d="m 61.9,27.6 v 3.1 A 0.9,0.9 0 0 1 61,31.6 0.9,0.9 0 0 1 60.3,31.3 0.9,0.9 0 0 1 60,30.7 v -2.9 a 0.9,0.9 0 0 0 -0.4,-0.7 l -3.3,-2.6 a 1.7,1.7 0 0 0 -1.1,-0.3 h -5.1 a 0.9,0.9 0 0 0 -0.7,0.3 0.9,0.9 0 0 0 -0.3,0.7 V 29 a 0.9,0.9 0 0 0 0.9,0.9 h 2 v -2.1 a 0.9,0.9 0 0 1 0.3,-0.7 0.9,0.9 0 0 1 1.3,0 0.9,0.9 0 0 1 0.3,0.7 v 3.8 H 50.1 A 2.8,2.8 0 0 1 47.3,28.8 V 25 a 2.7,2.7 0 0 1 0.8,-2 2.7,2.7 0 0 1 2,-0.8 h 5.1 a 3.7,3.7 0 0 1 2.3,0.7 l 3.5,2.8 a 2.5,2.5 0 0 1 0.9,1.9 z"
       id="path28" />
    <path
       fill="#ffffff"
       d="m 312.2,11.3 h 13.7 v 6.5 a 2.7,2.7 0 0 1 -0.8,1.9 2.7,2.7 0 0 1 -2,0.8 H 322 a 2.7,2.7 0 0 1 -2,-0.8 2.7,2.7 0 0 1 -0.8,-2 v -1 l -6.5,3.8 -0.6,0.2 a 0.9,0.9 0 0 1 -0.6,-0.3 0.9,0.9 0 0 1 -0.3,-0.7 0.9,0.9 0 0 1 0.5,-0.8 l 7.5,-4.3 v -1.4 h -7 a 0.9,0.9 0 0 1 -0.7,-0.3 0.9,0.9 0 0 1 -0.3,-0.7 0.9,0.9 0 0 1 1,-0.9 z m 8.9,1.8 v 4.7 a 0.9,0.9 0 0 0 0.9,0.9 h 1.1 a 0.9,0.9 0 0 0 0.9,-0.9 v -4.6 h -2.9 z"
       id="path29" />
    <path
       fill="#ffffff"
       d="m 324.1,34.2 h -3.5 a 2.6,2.6 0 0 1 -2,-0.7 2.7,2.7 0 0 1 -1.9,0.8 h -3.6 a 1.8,1.8 0 0 1 -1.3,-0.5 1.8,1.8 0 0 1 -0.5,-1.3 v -6.7 a 0.9,0.9 0 1 1 1.8,0 v 6.5 h 3.6 a 0.9,0.9 0 0 0 0.7,-0.3 0.9,0.9 0 0 0 0.3,-0.7 v -3.6 a 0.9,0.9 0 0 1 0.3,-0.7 0.9,0.9 0 0 1 1.6,0.7 v 3.7 a 0.9,0.9 0 0 0 0.3,0.6 0.9,0.9 0 0 0 0.7,0.3 h 3.6 v -6.6 a 0.9,0.9 0 1 1 1.8,0 v 6.6 a 1.8,1.8 0 0 1 -1.9,1.9 z"
       id="path30" />
    <path
       fill="#ffffff"
       d="m 314.2,104.6 h 13.7 v 6.5 a 2.7,2.7 0 0 1 -0.8,2 2.7,2.7 0 0 1 -2,0.8 H 324 a 2.7,2.7 0 0 1 -2,-0.8 2.7,2.7 0 0 1 -0.8,-2 V 110 l -6.5,3.8 -0.6,0.2 a 0.9,0.9 0 0 1 -0.6,-0.3 0.9,0.9 0 0 1 -0.3,-0.7 0.9,0.9 0 0 1 0.5,-0.8 l 7.5,-4.3 v -1.3 h -7 a 0.9,0.9 0 0 1 -0.7,-0.3 0.9,0.9 0 0 1 -0.3,-0.7 0.9,0.9 0 0 1 1,-1 z m 8.9,1.8 v 4.7 a 0.9,0.9 0 0 0 0.9,0.9 h 1.1 a 0.9,0.9 0 0 0 0.9,-0.9 v -4.7 z"
       id="path31" />
    <path
       fill="#ffffff"
       d="m 313.3,126.6 v -8.4 h 6.4 a 1.8,1.8 0 0 1 1.3,0.5 1.8,1.8 0 0 1 0.5,1.3 v 5.6 H 326 V 119 a 0.9,0.9 0 0 1 0.3,-0.7 0.9,0.9 0 0 1 1.3,0 0.9,0.9 0 0 1 0.3,0.7 v 6.6 a 1.8,1.8 0 0 1 -0.5,1.3 1.8,1.8 0 0 1 -1.3,0.5 h -4.5 a 1.9,1.9 0 0 1 -1.9,-1.9 V 120 h -4.5 v 6.5 a 0.9,0.9 0 0 1 -0.3,0.6 0.9,0.9 0 0 1 -1.3,0 0.9,0.9 0 0 1 -0.3,-0.5 z"
       id="path32" />
    <path
       fill="#ffffff"
       d="m 185.2,98.7 h 13.7 v 6.5 a 2.7,2.7 0 0 1 -0.8,2 2.7,2.7 0 0 1 -2,0.8 H 195 a 2.7,2.7 0 0 1 -2,-0.8 2.7,2.7 0 0 1 -0.8,-2 V 104 l -6.5,3.8 -0.6,0.2 a 0.9,0.9 0 0 1 -0.6,-0.3 0.9,0.9 0 0 1 -0.3,-0.7 0.9,0.9 0 0 1 0.5,-0.8 l 7.5,-4.3 v -1.3 h -7 a 0.9,0.9 0 0 1 -0.7,-0.3 0.9,0.9 0 0 1 -0.3,-0.7 0.9,0.9 0 0 1 1,-0.9 z m 8.9,1.8 v 4.7 a 0.9,0.9 0 0 0 0.9,0.9 h 1.1 a 0.9,0.9 0 0 0 0.9,-0.9 v -4.7 z"
       id="path33" />
    <path
       fill="#ffffff"
       d="m 186.2,113.1 v 2.9 h 10.9 v -2.8 a 0.9,0.9 0 1 1 1.8,0 v 4.6 h -12.7 v 1.8 h 3.8 a 0.9,0.9 0 0 1 0.6,0.3 0.9,0.9 0 0 1 -0.6,1.6 h -4.8 a 0.9,0.9 0 0 1 -0.9,-0.9 v -7.4 a 0.9,0.9 0 0 1 0.3,-0.7 0.9,0.9 0 0 1 0.7,-0.3 0.9,0.9 0 0 1 0.6,0.3 0.9,0.9 0 0 1 0.3,0.6 z"
       id="path34" />
    <path
       fill="#ffffff"
       d="M 185.9,17.5 V 25 a 0.9,0.9 0 0 1 -0.3,0.6 0.9,0.9 0 0 1 -0.6,0.3 0.9,0.9 0 0 1 -0.7,-0.3 A 0.9,0.9 0 0 1 184,25 V 22.2 H 173.2 V 25 a 0.9,0.9 0 0 1 -1.8,0 v -7.5 a 0.9,0.9 0 1 1 1.8,0 v 2.8 h 10.9 v -2.8 a 0.9,0.9 0 0 1 0.3,-0.7 0.9,0.9 0 0 1 0.6,-0.3 0.9,0.9 0 0 1 0.7,0.3 0.9,0.9 0 0 1 0.2,0.7 z"
       id="path35" />
    <path
       fill="#ffffff"
       d="m 173.2,35.2 v 3.3 a 0.9,0.9 0 0 1 -0.3,0.7 0.9,0.9 0 0 1 -1.3,0 0.9,0.9 0 0 1 -0.3,-0.7 v -3.4 a 2.7,2.7 0 0 1 0.4,-1.4 2.5,2.5 0 0 1 0.9,-1 l 4.1,-2.1 a 4.2,4.2 0 0 1 1.8,-0.4 3.7,3.7 0 0 1 1.8,0.4 l 4.1,2.2 a 2.9,2.9 0 0 1 1,1 2.3,2.3 0 0 1 0.4,1.3 v 3.6 a 0.9,0.9 0 0 1 -0.3,0.7 0.9,0.9 0 0 1 -0.6,0.3 0.9,0.9 0 0 1 -0.7,-0.3 0.9,0.9 0 0 1 -0.3,-0.7 v -3.6 a 0.8,0.8 0 0 0 -0.5,-0.7 l -3.8,-2 -1.1,-0.2 a 2.4,2.4 0 0 0 -1.1,0.3 l -3.8,2 a 0.9,0.9 0 0 0 -0.4,0.7 z"
       id="path36" />
    <path
       fill="#ffffff"
       d="m 173.2,44.6 v 2.8 h 10.9 v -2.7 a 0.9,0.9 0 1 1 1.8,0 v 4.6 h -12.7 v 1.8 h 3.8 a 0.9,0.9 0 0 1 0.6,0.3 0.9,0.9 0 0 1 -0.6,1.6 h -4.8 a 0.9,0.9 0 0 1 -0.9,-0.9 v -7.5 a 0.9,0.9 0 0 1 0.3,-0.7 0.9,0.9 0 0 1 0.7,-0.3 0.9,0.9 0 0 1 0.6,0.3 0.9,0.9 0 0 1 0.3,0.7 z"
       id="path37" />
    <path
       fill="#ffffff"
       d="m 460.2,12.6 h 13.7 v 6.5 a 2.7,2.7 0 0 1 -0.8,1.9 2.7,2.7 0 0 1 -2,0.8 H 470 a 2.7,2.7 0 0 1 -2,-0.8 2.7,2.7 0 0 1 -0.8,-2 v -1.1 l -6.5,3.8 -0.6,0.2 a 0.8,0.8 0 0 1 -0.6,-0.3 0.9,0.9 0 0 1 -0.3,-0.7 0.9,0.9 0 0 1 0.5,-0.8 l 7.5,-4.3 v -1.3 h -7 a 0.9,0.9 0 0 1 -0.7,-0.3 0.9,0.9 0 0 1 -0.3,-0.7 0.9,0.9 0 0 1 1,-0.9 z m 8.9,1.8 v 4.7 A 0.9,0.9 0 0 0 470,20 h 1.1 a 0.9,0.9 0 0 0 0.9,-0.9 v -4.7 z"
       id="path38" />
    <path
       fill="#ffffff"
       d="m 473.4,104.9 h 2.5 v 9.3 h -2.5 a 0.9,0.9 0 0 1 -0.7,-0.3 0.9,0.9 0 0 1 -0.3,-0.6 0.9,0.9 0 0 1 0.3,-0.7 0.9,0.9 0 0 1 0.6,-0.3 h 0.7 v -1.9 h -11.8 a 0.9,0.9 0 0 1 -0.7,-0.3 0.9,0.9 0 0 1 -0.3,-0.6 0.9,0.9 0 0 1 0.3,-0.7 0.9,0.9 0 0 1 0.7,-0.3 H 474 v -1.9 h -0.6 a 0.9,0.9 0 1 1 0,-1.7 z"
       id="path39" />
    <path
       fill="#ffffff"
       d="m 62.9,95.6 v 4.8 a 2.4,2.4 0 0 1 -0.7,1.7 2.4,2.4 0 0 1 -1.8,0.8 0.9,0.9 0 0 1 -0.7,-0.3 0.9,0.9 0 0 1 -0.3,-0.6 0.8,0.8 0 0 1 0.2,-0.6 l 0.8,-0.3 a 0.7,0.7 0 0 0 0.6,-0.7 v -4.7 c 0,-0.2 -0.1,-0.3 -0.2,-0.3 h -0.3 l -8.7,6.9 a 2.2,2.2 0 0 1 -1.4,0.5 2,2 0 0 1 -1.5,-0.6 1.8,1.8 0 0 1 -0.6,-1.3 V 96 a 2.5,2.5 0 0 1 2.4,-2.5 0.9,0.9 0 0 1 1,1 0.9,0.9 0 0 1 -0.3,0.6 0.9,0.9 0 0 1 -0.6,0.3 l -0.5,0.2 a 0.7,0.7 0 0 0 -0.2,0.5 v 4.6 a 0.2,0.2 0 0 0 0.2,0.3 h 0.3 l 8.8,-7 a 2.2,2.2 0 0 1 1.4,-0.5 2.1,2.1 0 0 1 1.5,0.6 2,2 0 0 1 0.6,1.5 z"
       id="path40" />
  </g>
</svg>
