<?xml version="1.0" encoding="UTF-8" standalone="no"?>
<!-- Creator: CorelDRAW X6 -->

<svg
   xml:space="preserve"
   width="3.1495924in"
   height="1.41732in"
   version="1.1"
   shape-rendering="geometricPrecision"
   text-rendering="geometricPrecision"
   image-rendering="optimizeQuality"
   fill-rule="evenodd"
   clip-rule="evenodd"
   viewBox="0 0 318795.25 143459"
   id="svg88"
   sodipodi:docname="LCD1602_icon.svg"
   inkscape:version="1.4.2 (f4327f4, 2025-05-13)"
   xmlns:inkscape="http://www.inkscape.org/namespaces/inkscape"
   xmlns:sodipodi="http://sodipodi.sourceforge.net/DTD/sodipodi-0.dtd"
   xmlns="http://www.w3.org/2000/svg"
   xmlns:svg="http://www.w3.org/2000/svg"><defs
   id="defs88" /><sodipodi:namedview
   id="namedview88"
   pagecolor="#505050"
   bordercolor="#eeeeee"
   borderopacity="1"
   inkscape:showpageshadow="0"
   inkscape:pageopacity="0"
   inkscape:pagecheckerboard="0"
   inkscape:deskcolor="#505050"
   inkscape:document-units="in"
   inkscape:zoom="0.99035209"
   inkscape:cx="92.896255"
   inkscape:cy="151.96616"
   inkscape:window-width="1366"
   inkscape:window-height="697"
   inkscape:window-x="-8"
   inkscape:window-y="-8"
   inkscape:window-maximized="1"
   inkscape:current-layer="breadboard" />
 <g
   id="breadboard"
   inkscape:label="breadboard"
   inkscape:groupmode="layer"
   transform="translate(-11134.87,1)">
  <metadata
   id="CorelCorpID_0Corel-Layer" />
  
  <g
   id="icon">
   <path
   fill="#1f7a34"
   d="M 11134,0 V 143458 H 329931 V -1 H 11134 Z m 158897,2926 c 1077,0 1950,873 1950,1950 0,1077 -873,1950 -1950,1950 -1077,0 -1950,-873 -1950,-1950 0,-1077 874,-1950 1950,-1950 z m -101217,0 c 1077,0 1950,873 1950,1950 0,1077 -873,1950 -1950,1950 -1077,0 -1950,-873 -1950,-1950 0,-1077 874,-1950 1950,-1950 z m -10122,0 c 1077,0 1950,873 1950,1950 0,1077 -873,1950 -1950,1950 -1077,0 -1950,-873 -1950,-1950 0,-1077 873,-1950 1950,-1950 z M 20330,5252 c 2216,0 4012,1795 4012,4012 0,2217 -1796,4011 -4012,4011 -2216,0 -4012,-1795 -4012,-4010 0,-2215 1796,-4012 4012,-4012 z m 4,132994 c -2216,0 -4012,-1796 -4012,-4012 0,-2216 1796,-4012 4012,-4012 2216,0 4012,1795 4012,4012 -1,2215 -1796,4012 -4012,4012 z M 38448,6824 c -1077,0 -1950,-873 -1950,-1950 0,-1077 873,-1950 1950,-1950 1077,0 1950,873 1950,1950 0,1077 -874,1950 -1950,1950 z m 8172,-1948 c 0,-1077 873,-1950 1950,-1950 1077,0 1950,873 1950,1950 0,1077 -873,1950 -1950,1950 -1077,0 -1950,-874 -1950,-1950 z M 71891,126298 H 48930 v -6770 h 22961 z m 0,-102367 H 48930 V 17161 H 71891 Z M 78934,6824 c -1077,0 -1950,-873 -1950,-1950 0,-1077 873,-1950 1950,-1950 1077,0 1950,873 1950,1950 0,1077 -873,1950 -1950,1950 z m 10123,0 c -1077,0 -1950,-873 -1950,-1950 0,-1077 873,-1950 1950,-1950 1077,0 1950,873 1950,1950 0,1077 -874,1950 -1950,1950 z m 10122,0 c -1077,0 -1950,-873 -1950,-1950 0,-1077 873,-1950 1950,-1950 1077,0 1950,873 1950,1950 0,1077 -873,1950 -1950,1950 z m 10122,0 c -1077,0 -1950,-873 -1950,-1950 0,-1077 873,-1950 1950,-1950 1077,0 1950,873 1950,1950 0,1077 -873,1950 -1950,1950 z m 10121,0 c -1077,0 -1950,-873 -1950,-1950 0,-1077 873,-1950 1950,-1950 1077,0 1950,873 1950,1950 0,1077 -873,1950 -1950,1950 z m 10122,0 c -1077,0 -1950,-873 -1950,-1950 0,-1077 873,-1950 1950,-1950 1077,0 1950,873 1950,1950 0,1077 -873,1950 -1950,1950 z m 10123,0 c -1077,0 -1950,-873 -1950,-1950 0,-1077 873,-1950 1950,-1950 1077,0 1950,873 1950,1950 0,1077 -874,1950 -1950,1950 z m 10122,0 c -1077,0 -1950,-873 -1950,-1950 0,-1077 873,-1950 1950,-1950 1077,0 1950,873 1950,1950 0,1077 -873,1950 -1950,1950 z m 8171,-1948 c 0,-1077 873,-1950 1950,-1950 1077,0 1950,873 1950,1950 0,1077 -873,1950 -1950,1950 -1077,0 -1950,-874 -1950,-1950 z m 24054,121422 h -22962 v -6770 h 22962 z m 0,-102367 h -22962 v -6770 h 22962 z M 180153,6824 c -1077,0 -1950,-873 -1950,-1950 0,-1077 873,-1950 1950,-1950 1077,0 1950,873 1950,1950 0,1077 -873,1950 -1950,1950 z m 10123,0 c -1077,0 -1950,-873 -1950,-1950 0,-1077 873,-1950 1950,-1950 1077,0 1950,873 1950,1950 0,1077 -873,1950 -1950,1950 z m 101858,119474 h -22960 v -6770 h 22960 z m 0,-102367 h -22960 v -6770 h 22960 z M 320704,5245 c 2216,0 4012,1795 4012,4012 0,2217 -1795,4012 -4012,4012 -2217,0 -4014,-1795 -4014,-4012 0,-2217 1797,-4012 4014,-4012 z m 0,133002 c -2216,0 -4012,-1795 -4012,-4012 0,-2214 1795,-4012 4012,-4012 2217,0 4014,1796 4014,4012 0,2216 -1798,4012 -4014,4012 z"
   id="path1" />
   <g
   id="g2">
    <path
   fill="#9a916c"
   d="m 13356,9265 c 0,3848 3125,6974 6973,6974 3855,0 6974,-3127 6974,-6974 0,-3853 -3119,-6973 -6974,-6973 -3848,0 -6973,3119 -6973,6973 z m 2962,0 c 0,-2216 1796,-4012 4012,-4012 2216,0 4012,1795 4012,4012 0,2217 -1798,4010 -4013,4010 -2214,0 -4011,-1795 -4011,-4010 z"
   id="path2" />
   </g>
   <g
   id="g4">
    <g
   id="g3">
     <path
   fill="#9a916c"
   d="m 327677,134235 c 0,-3848 -3125,-6974 -6974,-6974 -3855,0 -6974,3127 -6974,6974 0,3853 3119,6973 6974,6973 3850,0 6974,-3118 6974,-6973 z m -2959,0 c 0,2216 -1798,4012 -4014,4012 -2216,0 -4012,-1795 -4012,-4012 0,-2214 1795,-4012 4012,-4012 2217,0 4014,1798 4014,4012 z"
   id="path3" />
    </g>
   </g>
   <g
   id="g6">
    <g
   id="g5">
     <path
   fill="#9a916c"
   d="m 13361,134234 c 0,3848 3125,6974 6973,6974 3855,0 6974,-3127 6974,-6974 0,-3853 -3119,-6973 -6974,-6973 -3848,0 -6973,3120 -6973,6973 z m 2960,0 c 0,-2216 1796,-4012 4012,-4012 2216,0 4012,1795 4012,4012 0,2214 -1796,4012 -4012,4012 -2214,0 -4012,-1796 -4012,-4012 z"
   id="path4" />
    </g>
   </g>
   <path
   fill="#303030"
   d="m 316985,91760 c -1032,0 -1878,-846 -1878,-1880 V 53579 c 0,-1033 846,-1880 1878,-1880 h 80 v -28186 -981 h -983 l -2880,-2880 V 18650 H 312200 28862 27860 v 1002 l -2879,2879 h -983 v 981 28188 h 80 c 1033,0 1880,846 1880,1880 v 36301 c 0,1033 -846,1880 -1880,1880 h -80 v 28185 981 h 983 l 2880,2880 v 1002 h 1003 283336 1002 v -1002 l 2880,-2880 h 983 v -981 -28185 h -80 z"
   id="path6" />
   <g
   id="g9">
    <path
   fill="#87ad34"
   d="m 304474,100349 c 0,3101 -2538,5639 -5640,5639 H 42231 c -3101,0 -5639,-2538 -5639,-5639 V 43109 c 0,-3101 2538,-5639 5639,-5639 h 256603 c 3103,0 5640,2538 5640,5639 z"
   id="path7" />
    <g
   id="g8">
     <path
   fill="#22420d"
   fill-opacity="0.2"
   d="m 304463,43083 v 57294 c 0,-8 3,-17 3,-27 V 43110 c 0,-10 -3,-18 -3,-27 z M 42231,37471 c -3100,0 -5639,2539 -5639,5639 v 57240 c 0,3100 2539,5639 5639,5639 h 3270 c -3101,0 -5639,-2539 -5639,-5639 V 44991 c 0,-3101 2538,-5639 5639,-5639 h 257495 c -1033,-1144 -2512,-1881 -4167,-1881 z"
   id="path8" />
    </g>
   </g>
   <g
   id="g10">
    <path
   fill="#1a1a1a"
   d="m 306857,26174 c 0,-1033 -846,-1878 -1878,-1878 H 36087 c -1033,0 -1878,846 -1878,1878 v 1036 c 0,1033 846,1878 1878,1878 h 268890 c 1032,0 1878,-846 1878,-1878 v -1036 z"
   id="path9" />
    <path
   fill="#424242"
   d="m 305917,27852 c 0,-680 -607,-1237 -1345,-1237 H 36603 c -740,0 -1345,557 -1345,1237 0,680 606,1237 1345,1237 h 267969 c 738,-1 1345,-558 1345,-1237 z"
   id="path10" />
   </g>
   <g
   id="g12">
    <path
   fill="#1a1a1a"
   d="m 306857,115355 c 0,-1032 -846,-1878 -1878,-1878 H 36087 c -1033,0 -1878,846 -1878,1878 v 1037 c 0,1032 846,1878 1878,1878 h 268890 c 1032,0 1878,-846 1878,-1878 v -1037 z"
   id="path11" />
    <path
   fill="#424242"
   d="m 305917,117035 c 0,-680 -607,-1237 -1345,-1237 H 36603 c -740,0 -1345,557 -1345,1237 0,679 606,1236 1345,1236 h 267969 c 738,0 1345,-557 1345,-1236 z"
   id="path12" />
   </g>
   <g
   id="g13">
    <line
   fill="none"
   fill-opacity="0.2"
   stroke="#f2f2f2"
   stroke-width="331.549"
   stroke-linecap="round"
   stroke-opacity="0.2"
   x1="25103"
   y1="22736"
   x2="28074"
   y2="19766"
   id="line12" />
    <line
   fill="none"
   fill-opacity="0.2"
   stroke="#f2f2f2"
   stroke-width="331.549"
   stroke-linecap="round"
   stroke-opacity="0.2"
   x1="28105"
   y1="123679"
   x2="25134"
   y2="120707"
   id="line13" />
   </g>
   <g
   id="g15">
    <line
   fill="none"
   fill-opacity="0.2"
   stroke="#f2f2f2"
   stroke-width="331.549"
   stroke-linecap="round"
   stroke-opacity="0.2"
   x1="315945"
   y1="22736"
   x2="312973"
   y2="19766"
   id="line14" />
    <line
   fill="none"
   fill-opacity="0.2"
   stroke="#f2f2f2"
   stroke-width="331.549"
   stroke-linecap="round"
   stroke-opacity="0.2"
   x1="312944"
   y1="123679"
   x2="315914"
   y2="120707"
   id="line15" />
   </g>
   <path
   fill="none"
   fill-opacity="0.4"
   stroke="#1a1a1a"
   stroke-width="1989.29"
   stroke-opacity="0.4"
   d="m 304465,100349 c 0,3100 -2538,5639 -5637,5639 H 42230 c -3100,0 -5639,-2539 -5639,-5639 V 43109 c 0,-3100 2539,-5639 5639,-5639 h 256598 c 3100,0 5637,2539 5637,5639 z"
   id="path15" />
   <g
   id="g16">
    <path
   fill="#9a916c"
   d="m 313730,9257 c 0,3848 3125,6974 6974,6974 3855,0 6974,-3127 6974,-6974 0,-3853 -3119,-6973 -6974,-6973 -3850,0 -6974,3119 -6974,6973 z m 2959,0 c 0,-2216 1798,-4012 4014,-4012 2216,0 4012,1795 4012,4012 0,2217 -1795,4012 -4012,4012 -2217,0 -4014,-1796 -4014,-4012 z"
   id="path16" />
   </g>
   <g
   id="g17">
    <path
   fill="#9a916c"
   d="m 35061,0 v 6678 c 0,1870 1515,3388 3388,3388 1870,0 3388,-1518 3388,-3388 V 0 Z m 3388,6824 c -1077,0 -1950,-873 -1950,-1950 0,-1077 873,-1950 1950,-1950 1077,0 1950,873 1950,1950 0,1077 -874,1950 -1950,1950 z"
   id="path17" />
   </g>
   <g
   id="g18">
    <path
   fill="#9a916c"
   d="m 45182,0 v 6678 c 0,1870 1515,3388 3388,3388 1870,0 3388,-1518 3388,-3388 V 0 Z m 3388,6824 c -1077,0 -1950,-873 -1950,-1950 0,-1077 873,-1950 1950,-1950 1077,0 1950,873 1950,1950 0,1077 -873,1950 -1950,1950 z"
   id="path18" />
   </g>
   <g
   id="g19">
    <path
   fill="#9a916c"
   d="m 55304,0 v 6678 c 0,1870 1515,3388 3388,3388 1870,0 3388,-1518 3388,-3388 V 0 Z m 3388,6824 c -1077,0 -1950,-873 -1950,-1950 0,-1077 873,-1950 1950,-1950 1077,0 1950,873 1950,1950 0,1077 -873,1950 -1950,1950 z"
   id="path19" />
   </g>
   <g
   id="g20">
    <path
   fill="#9a916c"
   d="m 65426,0 v 6678 c 0,1870 1515,3388 3388,3388 1870,0 3388,-1518 3388,-3388 V 0 Z m 3388,6824 c -1077,0 -1950,-873 -1950,-1950 0,-1077 873,-1950 1950,-1950 1077,0 1950,873 1950,1950 0,1077 -873,1950 -1950,1950 z"
   id="path20" />
   </g>
   <g
   id="g21">
    <path
   fill="#9a916c"
   d="m 75547,0 v 6678 c 0,1870 1515,3388 3388,3388 1870,0 3388,-1518 3388,-3388 V 0 Z m 3388,6824 c -1077,0 -1950,-873 -1950,-1950 0,-1077 873,-1950 1950,-1950 1077,0 1950,873 1950,1950 0,1077 -873,1950 -1950,1950 z"
   id="path21" />
   </g>
   <g
   id="g22">
    <path
   fill="#9a916c"
   d="m 85670,0 v 6678 c 0,1870 1515,3388 3388,3388 1870,0 3388,-1518 3388,-3388 V 0 Z m 3388,6824 c -1077,0 -1950,-873 -1950,-1950 0,-1077 873,-1950 1950,-1950 1077,0 1950,873 1950,1950 0,1077 -874,1950 -1950,1950 z"
   id="path22" />
   </g>
   <g
   id="g23">
    <path
   fill="#9a916c"
   d="m 95791,0 v 6678 c 0,1870 1515,3388 3388,3388 1870,0 3388,-1518 3388,-3388 V 0 Z m 3388,6824 c -1077,0 -1950,-873 -1950,-1950 0,-1077 873,-1950 1950,-1950 1077,0 1950,873 1950,1950 0,1077 -873,1950 -1950,1950 z"
   id="path23" />
   </g>
   <g
   id="g24">
    <path
   fill="#9a916c"
   d="m 105913,0 v 6678 c 0,1870 1515,3388 3388,3388 1870,0 3388,-1518 3388,-3388 V 0 Z m 3388,6824 c -1077,0 -1950,-873 -1950,-1950 0,-1077 873,-1950 1950,-1950 1077,0 1950,873 1950,1950 0,1077 -873,1950 -1950,1950 z"
   id="path24" />
   </g>
   <g
   id="g25">
    <path
   fill="#9a916c"
   d="m 116034,0 v 6678 c 0,1870 1515,3388 3388,3388 1870,0 3388,-1518 3388,-3388 V 0 Z m 3388,6824 c -1077,0 -1950,-873 -1950,-1950 0,-1077 873,-1950 1950,-1950 1077,0 1950,873 1950,1950 0,1077 -873,1950 -1950,1950 z"
   id="path25" />
   </g>
   <g
   id="g26">
    <path
   fill="#9a916c"
   d="m 126156,0 v 6678 c 0,1870 1515,3388 3388,3388 1870,0 3388,-1518 3388,-3388 V 0 Z m 3388,6824 c -1077,0 -1950,-873 -1950,-1950 0,-1077 873,-1950 1950,-1950 1077,0 1950,873 1950,1950 0,1077 -873,1950 -1950,1950 z"
   id="path26" />
   </g>
   <g
   id="g27">
    <path
   fill="#9a916c"
   d="m 136279,0 v 6678 c 0,1870 1515,3388 3388,3388 1870,0 3388,-1518 3388,-3388 V 0 Z m 3388,6824 c -1077,0 -1950,-873 -1950,-1950 0,-1077 873,-1950 1950,-1950 1077,0 1950,873 1950,1950 0,1077 -874,1950 -1950,1950 z"
   id="path27" />
   </g>
   <g
   id="g28">
    <path
   fill="#9a916c"
   d="m 146400,0 v 6678 c 0,1870 1515,3388 3388,3388 1870,0 3388,-1518 3388,-3388 V 0 Z m 3388,6824 c -1077,0 -1950,-873 -1950,-1950 0,-1077 873,-1950 1950,-1950 1077,0 1950,873 1950,1950 0,1077 -873,1950 -1950,1950 z"
   id="path28" />
   </g>
   <g
   id="g29">
    <path
   fill="#9a916c"
   d="m 156521,0 v 6678 c 0,1870 1515,3388 3388,3388 1870,0 3388,-1518 3388,-3388 V 0 Z m 3388,6824 c -1077,0 -1950,-873 -1950,-1950 0,-1077 873,-1950 1950,-1950 1077,0 1950,873 1950,1950 0,1077 -873,1950 -1950,1950 z"
   id="path29" />
   </g>
   <g
   id="g30">
    <path
   fill="#9a916c"
   d="m 166643,0 v 6678 c 0,1870 1515,3388 3388,3388 1870,0 3389,-1518 3389,-3388 V 0 Z m 3388,6824 c -1077,0 -1950,-873 -1950,-1950 0,-1077 873,-1950 1950,-1950 1077,0 1950,873 1950,1950 0,1077 -873,1950 -1950,1950 z"
   id="path30" />
   </g>
   <g
   id="g31">
    <path
   fill="#9a916c"
   d="m 176765,0 v 6678 c 0,1870 1515,3388 3388,3388 1870,0 3388,-1518 3388,-3388 V 0 Z m 3388,6824 c -1077,0 -1950,-873 -1950,-1950 0,-1077 873,-1950 1950,-1950 1077,0 1950,873 1950,1950 0,1077 -873,1950 -1950,1950 z"
   id="path31" />
   </g>
   <g
   id="g32">
    <path
   fill="#9a916c"
   d="m 186888,0 v 6678 c 0,1870 1515,3388 3388,3388 1870,0 3388,-1518 3388,-3388 V 0 Z m 3388,6824 c -1077,0 -1950,-873 -1950,-1950 0,-1077 873,-1950 1950,-1950 1077,0 1950,873 1950,1950 0,1077 -873,1950 -1950,1950 z"
   id="path32" />
   </g>
   <g
   id="g63">
    <polygon
   fill="#1a1a1a"
   fill-opacity="0.101961"
   points="50201,95443 64297,95443 64297,72216 50201,72216 "
   id="polygon32" />
    <polygon
   fill="#1a1a1a"
   fill-opacity="0.101961"
   points="65305,95443 79401,95443 79401,72216 65305,72216 "
   id="polygon33" />
    <polygon
   fill="#1a1a1a"
   fill-opacity="0.101961"
   points="80409,95443 94505,95443 94505,72216 80409,72216 "
   id="polygon34" />
    <polygon
   fill="#1a1a1a"
   fill-opacity="0.101961"
   points="95513,95443 109611,95443 109611,72216 95513,72216 "
   id="polygon35" />
    <polygon
   fill="#1a1a1a"
   fill-opacity="0.101961"
   points="110620,95443 124716,95443 124716,72216 110620,72216 "
   id="polygon36" />
    <polygon
   fill="#1a1a1a"
   fill-opacity="0.101961"
   points="125724,95443 139820,95443 139820,72216 125724,72216 "
   id="polygon37" />
    <polygon
   fill="#1a1a1a"
   fill-opacity="0.101961"
   points="140828,95443 154924,95443 154924,72216 140828,72216 "
   id="polygon38" />
    <polygon
   fill="#1a1a1a"
   fill-opacity="0.101961"
   points="155932,95443 170028,95443 170028,72216 155932,72216 "
   id="polygon39" />
    <polygon
   fill="#1a1a1a"
   fill-opacity="0.101961"
   points="171036,95443 185134,95443 185134,72216 171036,72216 "
   id="polygon40" />
    <polygon
   fill="#1a1a1a"
   fill-opacity="0.101961"
   points="186141,95443 200237,95443 200237,72216 186141,72216 "
   id="polygon41" />
    <polygon
   fill="#1a1a1a"
   fill-opacity="0.101961"
   points="201246,95443 215342,95443 215342,72216 201246,72216 "
   id="polygon42" />
    <polygon
   fill="#1a1a1a"
   fill-opacity="0.101961"
   points="216349,95443 230445,95443 230445,72216 216349,72216 "
   id="polygon43" />
    <polygon
   fill="#1a1a1a"
   fill-opacity="0.101961"
   points="231454,95443 245550,95443 245550,72216 231454,72216 "
   id="polygon44" />
    <polygon
   fill="#1a1a1a"
   fill-opacity="0.101961"
   points="246557,95443 260653,95443 260653,72216 246557,72216 "
   id="polygon45" />
    <polygon
   fill="#1a1a1a"
   fill-opacity="0.101961"
   points="261662,95443 275758,95443 275758,72216 261662,72216 "
   id="polygon46" />
    <polygon
   fill="#1a1a1a"
   fill-opacity="0.101961"
   points="276767,95443 290863,95443 290863,72216 276767,72216 "
   id="polygon47" />
    <polygon
   fill="#1a1a1a"
   fill-opacity="0.101961"
   points="50201,71241 64297,71241 64297,48014 50201,48014 "
   id="polygon48" />
    <polygon
   fill="#1a1a1a"
   fill-opacity="0.101961"
   points="65305,71241 79401,71241 79401,48014 65305,48014 "
   id="polygon49" />
    <polygon
   fill="#1a1a1a"
   fill-opacity="0.101961"
   points="80409,71241 94505,71241 94505,48014 80409,48014 "
   id="polygon50" />
    <polygon
   fill="#1a1a1a"
   fill-opacity="0.101961"
   points="95513,71241 109611,71241 109611,48014 95513,48014 "
   id="polygon51" />
    <polygon
   fill="#1a1a1a"
   fill-opacity="0.101961"
   points="110620,71241 124716,71241 124716,48014 110620,48014 "
   id="polygon52" />
    <polygon
   fill="#1a1a1a"
   fill-opacity="0.101961"
   points="125724,71241 139820,71241 139820,48014 125724,48014 "
   id="polygon53" />
    <polygon
   fill="#1a1a1a"
   fill-opacity="0.101961"
   points="140828,71241 154924,71241 154924,48014 140828,48014 "
   id="polygon54" />
    <polygon
   fill="#1a1a1a"
   fill-opacity="0.101961"
   points="155932,71241 170028,71241 170028,48014 155932,48014 "
   id="polygon55" />
    <polygon
   fill="#1a1a1a"
   fill-opacity="0.101961"
   points="171036,71241 185134,71241 185134,48014 171036,48014 "
   id="polygon56" />
    <polygon
   fill="#1a1a1a"
   fill-opacity="0.101961"
   points="186141,71241 200237,71241 200237,48014 186141,48014 "
   id="polygon57" />
    <polygon
   fill="#1a1a1a"
   fill-opacity="0.101961"
   points="201246,71241 215342,71241 215342,48014 201246,48014 "
   id="polygon58" />
    <polygon
   fill="#1a1a1a"
   fill-opacity="0.101961"
   points="216349,71241 230445,71241 230445,48014 216349,48014 "
   id="polygon59" />
    <polygon
   fill="#1a1a1a"
   fill-opacity="0.101961"
   points="231454,71241 245550,71241 245550,48014 231454,48014 "
   id="polygon60" />
    <polygon
   fill="#1a1a1a"
   fill-opacity="0.101961"
   points="246557,71241 260653,71241 260653,48014 246557,48014 "
   id="polygon61" />
    <polygon
   fill="#1a1a1a"
   fill-opacity="0.101961"
   points="261662,71241 275758,71241 275758,48014 261662,48014 "
   id="polygon62" />
    <polygon
   fill="#1a1a1a"
   fill-opacity="0.101961"
   points="276767,71241 290863,71241 290863,48014 276767,48014 "
   id="polygon63" />
   </g>
   <g
   id="g64">
    <path
   fill="#606060"
   d="m 24424,91691 v 29236 h 377 V 91613 c -117,49 -250,52 -377,77 z"
   id="path63" />
    <path
   fill="#606060"
   d="M 24801,51848 V 22530 h -377 v 29241 c 127,25 260,28 377,77 z"
   id="path64" />
   </g>
   <rect
   fill="#606060"
   x="27863"
   y="19080"
   width="285335"
   height="375"
   id="rect64" />
   <rect
   fill="#212121"
   x="27863"
   y="18655"
   width="285335"
   height="427"
   id="rect65" />
   <g
   id="g66">
    <path
   fill="#212121"
   d="m 24078,51700 c 122,0 231,48 347,70 V 22529 h -426 v 29170 h 79 z"
   id="path65" />
    <path
   fill="#212121"
   d="m 24078,91760 h -79 v 29168 h 426 V 91690 c -117,23 -225,71 -347,71 z"
   id="path66" />
   </g>
   <rect
   fill="#212121"
   x="27863"
   y="124386"
   width="285335"
   height="426"
   id="rect66" />
   <rect
   fill="#606060"
   x="27863"
   y="124013"
   width="285335"
   height="375"
   id="rect67" />
   <g
   id="g68">
    <path
   fill="#212121"
   d="m 316985,91760 c -125,0 -234,-48 -351,-72 v 29239 h 429 V 91759 h -77 z"
   id="path67" />
    <path
   fill="#212121"
   d="m 316985,51700 h 77 V 22530 h -429 v 29242 c 118,-23 226,-72 351,-72 z"
   id="path68" />
   </g>
   <g
   id="g70">
    <path
   fill="#606060"
   d="m 316263,91614 v 29314 h 374 V 91690 c -125,-24 -259,-27 -374,-76 z"
   id="path69" />
    <path
   fill="#606060"
   d="M 316637,51772 V 22531 h -374 v 29317 c 115,-49 249,-52 374,-76 z"
   id="path70" />
   </g>
   <g
   id="g85">
    <circle
   fill="#606062"
   cx="38449"
   cy="5033"
   r="1974"
   id="circle70" />
    <circle
   fill="#606062"
   cx="48570"
   cy="5033"
   r="1974"
   id="circle71" />
    <circle
   fill="#606062"
   cx="58692"
   cy="5033"
   r="1974"
   id="circle72" />
    <circle
   fill="#606062"
   cx="68814"
   cy="5033"
   r="1974"
   id="circle73" />
    <circle
   fill="#606062"
   cx="78936"
   cy="5033"
   r="1974"
   id="circle74" />
    <circle
   fill="#606062"
   cx="89058"
   cy="5033"
   r="1974"
   id="circle75" />
    <circle
   fill="#606062"
   cx="99179"
   cy="5033"
   r="1974"
   id="circle76" />
    <circle
   fill="#606062"
   cx="109301"
   cy="5033"
   r="1974"
   id="circle77" />
    <circle
   fill="#606062"
   cx="119423"
   cy="5033"
   r="1974"
   id="circle78" />
    <circle
   fill="#606062"
   cx="129545"
   cy="5033"
   r="1974"
   id="circle79" />
    <circle
   fill="#606062"
   cx="139667"
   cy="5033"
   r="1974"
   id="circle80" />
    <circle
   fill="#606062"
   cx="149788"
   cy="5033"
   r="1974"
   id="circle81" />
    <circle
   fill="#606062"
   cx="159910"
   cy="5033"
   r="1974"
   id="circle82" />
    <circle
   fill="#606062"
   cx="170032"
   cy="5033"
   r="1974"
   id="circle83" />
    <circle
   fill="#606062"
   cx="180154"
   cy="5033"
   r="1974"
   id="circle84" />
    <circle
   fill="#606062"
   cx="190276"
   cy="5033"
   r="1974"
   id="circle85" />
   </g>
  </g>
  
 <path
   d="M 35471.093,14193.829 34301.413,11174.9 h 432.452 l 784.592,2193.151 q 94.728,263.59 158.566,494.231 70.016,-247.115 162.684,-494.231 l 815.482,-2193.151 h 407.741 l -1182.037,3018.929 z m 1814.241,-969.929 376.851,-32.949 q 26.771,226.523 123.558,372.733 98.846,144.151 304.776,234.76 205.929,88.55 463.342,88.55 228.582,0 403.622,-67.957 175.04,-67.957 259.471,-185.337 86.491,-119.439 86.491,-259.471 0,-142.092 -82.372,-247.116 -82.372,-107.083 -271.827,-179.159 -121.499,-47.363 -537.477,-146.21 -415.978,-100.905 -582.781,-189.455 -216.226,-113.261 -323.31,-280.064 -105.024,-168.863 -105.024,-376.852 0,-228.582 129.736,-426.274 129.736,-199.752 378.911,-302.717 249.175,-102.965 553.951,-102.965 335.665,0 591.018,109.143 257.412,107.084 395.385,317.132 137.973,210.048 148.269,475.697 l -383.029,28.831 q -30.89,-286.243 -210.048,-432.453 -177.1,-146.21 -525.121,-146.21 -362.436,0 -529.239,133.854 -164.744,131.795 -164.744,319.191 0,162.685 117.38,267.709 115.32,105.024 601.314,216.226 488.054,109.143 669.272,191.515 263.59,121.498 389.207,308.894 125.617,185.337 125.617,428.334 0,240.938 -137.973,455.105 -137.973,212.107 -397.444,331.546 -257.412,117.38 -580.722,117.38 -409.8,0 -687.805,-119.439 -275.946,-119.439 -434.512,-358.318 -156.506,-240.937 -164.743,-543.654 z m 2812.999,0 376.852,-32.949 q 26.77,226.523 123.557,372.733 98.847,144.151 304.776,234.76 205.93,88.55 463.342,88.55 228.582,0 403.622,-67.957 175.041,-67.957 259.472,-185.337 86.49,-119.439 86.49,-259.471 0,-142.092 -82.372,-247.116 -82.372,-107.083 -271.827,-179.159 -121.498,-47.363 -537.476,-146.21 -415.978,-100.905 -582.781,-189.455 -216.227,-113.261 -323.31,-280.064 -105.024,-168.863 -105.024,-376.852 0,-228.582 129.736,-426.274 129.735,-199.752 378.91,-302.717 249.175,-102.965 553.951,-102.965 335.665,0 591.018,109.143 257.412,107.084 395.385,317.132 137.973,210.048 148.27,475.697 l -383.03,28.831 q -30.889,-286.243 -210.048,-432.453 -177.099,-146.21 -525.121,-146.21 -362.436,0 -529.239,133.854 -164.744,131.795 -164.744,319.191 0,162.685 117.38,267.709 115.321,105.024 601.315,216.226 488.053,109.143 669.271,191.515 263.59,121.498 389.208,308.894 125.617,185.337 125.617,428.334 0,240.938 -137.973,455.105 -137.973,212.107 -397.445,331.546 -257.412,117.38 -580.721,117.38 -409.8,0 -687.805,-119.439 -275.946,-119.439 -434.512,-358.318 -156.507,-240.937 -164.744,-543.654 z"
   id="text88"
   style="font-size:4217.44px;line-height:1.25;font-family:Arial;-inkscape-font-specification:Arial;text-align:justify;fill:#ffffff;stroke-width:1171.58"
   aria-label="VSS" /><path
   d="M 45551.324,14193.829 44381.643,11174.9 h 432.452 l 784.592,2193.151 q 94.728,263.59 158.566,494.231 70.016,-247.115 162.685,-494.231 l 815.481,-2193.151 h 407.741 l -1182.036,3018.929 z m 1950.154,0 V 11174.9 h 1039.945 q 352.139,0 537.476,43.245 259.472,59.72 442.749,216.226 238.878,201.811 356.258,516.884 119.44,313.013 119.44,716.635 0,343.903 -80.313,609.552 -80.313,265.649 -205.93,440.689 -125.617,172.981 -275.945,273.887 -148.27,98.846 -360.377,150.329 -210.049,51.482 -483.935,51.482 z m 399.503,-356.258 h 644.56 q 298.598,0 467.461,-55.601 170.921,-55.601 271.827,-156.507 142.091,-142.091 220.345,-380.97 80.312,-240.938 80.312,-582.781 0,-473.638 -156.506,-726.932 -154.448,-255.353 -376.852,-341.843 -160.625,-61.779 -516.883,-61.779 h -634.264 z m 2646.196,356.258 V 11174.9 h 1039.945 q 352.14,0 537.477,43.245 259.471,59.72 442.749,216.226 238.878,201.811 356.258,516.884 119.439,313.013 119.439,716.635 0,343.903 -80.312,609.552 -80.313,265.649 -205.93,440.689 -125.617,172.981 -275.946,273.887 -148.269,98.846 -360.377,150.329 -210.048,51.482 -483.934,51.482 z m 399.504,-356.258 h 644.56 q 298.598,0 467.46,-55.601 170.922,-55.601 271.828,-156.507 142.091,-142.091 220.344,-380.97 80.313,-240.938 80.313,-582.781 0,-473.638 -156.507,-726.932 -154.447,-255.353 -376.851,-341.843 -160.625,-61.779 -516.883,-61.779 h -634.264 z"
   id="text88-9"
   style="font-size:4217.44px;line-height:1.25;font-family:Arial;-inkscape-font-specification:Arial;text-align:justify;fill:#ffffff;stroke-width:1171.58"
   aria-label="VDD" /><path
   d="m 57405.902,14174.259 -1169.681,-3018.93 h 432.453 l 784.592,2193.152 q 94.727,263.59 158.565,494.231 70.017,-247.116 162.685,-494.231 l 815.481,-2193.152 h 407.741 l -1182.036,3018.93 z m 1799.825,-1488.872 q 0,-535.417 109.143,-860.786 111.202,-327.428 327.428,-504.528 218.286,-177.099 547.773,-177.099 242.997,0 426.275,98.846 183.277,96.787 302.716,282.124 119.439,183.277 187.396,448.926 67.957,263.59 67.957,712.517 0,531.299 -109.143,858.727 -109.142,325.369 -327.428,504.528 -216.226,177.099 -547.773,177.099 -436.571,0 -685.746,-313.013 -298.598,-376.851 -298.598,-1227.341 z m 380.97,0 q 0,743.406 172.981,990.522 175.04,245.056 430.393,245.056 255.353,0 428.334,-247.116 175.04,-247.115 175.04,-988.462 0,-745.465 -175.04,-990.522 -172.981,-245.056 -432.452,-245.056 -255.353,0 -407.741,216.226 -191.515,275.946 -191.515,1019.352 z"
   id="text88-9-8"
   style="font-size:4217.44px;line-height:1.25;font-family:Arial;-inkscape-font-specification:Arial;text-align:justify;fill:#ffffff;stroke-width:1171.58"
   aria-label="V0" /><path
   d="M 66476.906,14193.829 V 11174.9 h 1338.543 q 403.622,0 613.671,82.372 210.048,80.312 335.665,286.242 125.617,205.93 125.617,455.104 0,321.251 -207.989,541.596 -207.989,220.344 -642.501,280.064 158.566,76.194 240.938,150.329 175.04,160.625 331.547,401.562 l 525.121,821.66 h -502.469 l -399.503,-628.086 q -175.041,-271.827 -288.302,-415.978 -113.261,-144.15 -203.87,-201.811 -88.55,-57.66 -181.218,-80.312 -67.957,-14.415 -222.404,-14.415 h -463.342 v 1340.602 z m 399.504,-1686.564 h 858.727 q 273.886,0 428.333,-55.601 154.448,-57.661 234.76,-181.218 80.313,-125.617 80.313,-271.828 0,-214.166 -156.507,-352.139 -154.447,-137.973 -490.113,-137.973 h -955.513 z m 2504.105,716.635 376.851,-32.949 q 26.771,226.523 123.558,372.733 98.846,144.151 304.776,234.76 205.929,88.55 463.341,88.55 228.582,0 403.623,-67.957 175.04,-67.957 259.471,-185.337 86.491,-119.439 86.491,-259.471 0,-142.092 -82.372,-247.116 -82.372,-107.083 -271.828,-179.159 -121.498,-47.363 -537.476,-146.21 -415.978,-100.905 -582.781,-189.455 -216.226,-113.261 -323.31,-280.064 -105.024,-168.863 -105.024,-376.852 0,-228.582 129.736,-426.274 129.736,-199.752 378.911,-302.717 249.174,-102.965 553.95,-102.965 335.666,0 591.019,109.143 257.412,107.084 395.385,317.132 137.973,210.048 148.269,475.697 l -383.029,28.831 q -30.89,-286.243 -210.048,-432.453 -177.1,-146.21 -525.121,-146.21 -362.436,0 -529.239,133.854 -164.744,131.795 -164.744,319.191 0,162.685 117.38,267.709 115.32,105.024 601.314,216.226 488.054,109.143 669.272,191.515 263.59,121.498 389.207,308.894 125.617,185.337 125.617,428.334 0,240.938 -137.973,455.105 -137.973,212.107 -397.444,331.546 -257.412,117.38 -580.722,117.38 -409.8,0 -687.805,-119.439 -275.946,-119.439 -434.512,-358.318 -156.506,-240.937 -164.743,-543.654 z"
   id="text88-9-8-5"
   style="font-size:4217.44px;line-height:1.25;font-family:Arial;-inkscape-font-specification:Arial;text-align:justify;fill:#ffffff;stroke-width:1171.58"
   aria-label="RS" /><path
   d="M 75238.226,14193.829 V 11174.9 h 1338.543 q 403.623,0 613.671,82.372 210.048,80.312 335.665,286.242 125.617,205.93 125.617,455.104 0,321.251 -207.989,541.596 -207.989,220.344 -642.5,280.064 158.566,76.194 240.938,150.329 175.04,160.625 331.546,401.562 l 525.121,821.66 h -502.468 l -399.504,-628.086 q -175.04,-271.827 -288.302,-415.978 -113.261,-144.15 -203.87,-201.811 -88.55,-57.66 -181.218,-80.312 -67.957,-14.415 -222.404,-14.415 h -463.342 v 1340.602 z m 399.504,-1686.564 h 858.727 q 273.886,0 428.334,-55.601 154.447,-57.661 234.759,-181.218 80.313,-125.617 80.313,-271.828 0,-214.166 -156.507,-352.139 -154.447,-137.973 -490.112,-137.973 h -955.514 z m 2314.65,1738.046 875.201,-3121.894 h 296.539 l -873.142,3121.894 z m 2024.289,-51.482 -801.067,-3018.929 h 409.8 l 459.223,1978.984 q 74.135,310.954 127.677,617.789 115.32,-483.935 135.913,-558.069 l 574.544,-2038.704 h 481.876 l 432.452,1527.998 q 162.684,568.366 234.76,1068.775 57.66,-286.242 150.328,-656.916 l 473.639,-1939.857 h 401.563 l -827.838,3018.929 h -385.088 l -636.323,-2300.235 q -80.313,-288.301 -94.728,-354.199 -47.363,207.989 -88.549,354.199 l -640.442,2300.235 z"
   id="text88-9-8-5-7"
   style="font-size:4217.44px;line-height:1.25;font-family:Arial;-inkscape-font-specification:Arial;text-align:justify;fill:#ffffff;stroke-width:1171.58"
   aria-label="R/W" /><path
   d="M 88008.09,14193.829 V 11174.9 h 2182.855 v 356.258 h -1783.351 v 924.624 h 1670.09 v 354.199 h -1670.09 v 1027.59 h 1853.367 v 356.258 z"
   id="text88-9-8-5-7-5"
   style="font-size:4217.44px;line-height:1.25;font-family:Arial;-inkscape-font-specification:Arial;text-align:justify;fill:#ffffff;stroke-width:1171.58"
   aria-label="E" /><path
   d="m 96583.004,14174.259 v -3018.93 h 1132.613 q 345.962,0 553.951,92.669 210.048,90.609 327.428,282.123 119.439,189.456 119.439,397.445 0,193.574 -105.024,364.495 -105.024,170.922 -317.131,275.946 273.886,80.313 420.096,273.887 148.27,193.573 148.27,457.163 0,212.108 -90.61,395.385 -88.549,181.219 -220.344,280.065 -131.795,98.846 -331.547,150.329 -197.693,49.423 -485.994,49.423 z m 399.503,-1750.403 h 652.798 q 265.649,0 380.97,-35.008 152.387,-45.304 228.581,-150.328 78.254,-105.025 78.254,-263.59 0,-150.329 -72.076,-263.59 -72.075,-115.321 -205.929,-156.507 -133.855,-43.245 -459.224,-43.245 h -603.374 z m 0,1394.144 h 751.644 q 193.574,0 271.827,-14.415 137.973,-24.711 230.641,-82.372 92.669,-57.66 152.388,-166.803 59.72,-111.202 59.72,-255.353 0,-168.862 -86.491,-292.42 -86.49,-125.617 -240.937,-175.04 -152.388,-51.482 -440.69,-51.482 h -698.102 z m 2279.642,-1132.613 q 0,-535.417 109.143,-860.786 111.202,-327.428 327.428,-504.528 218.286,-177.099 547.77,-177.099 243,0 426.28,98.846 183.27,96.787 302.71,282.124 119.44,183.277 187.4,448.926 67.96,263.59 67.96,712.517 0,531.299 -109.15,858.727 -109.14,325.369 -327.42,504.528 -216.23,177.099 -547.78,177.099 -436.568,0 -685.743,-313.013 -298.598,-376.851 -298.598,-1227.341 z m 380.97,0 q 0,743.406 172.981,990.522 175.04,245.056 430.39,245.056 255.36,0 428.34,-247.116 175.04,-247.115 175.04,-988.462 0,-745.465 -175.04,-990.522 -172.98,-245.056 -432.46,-245.056 -255.348,0 -407.736,216.226 -191.515,275.946 -191.515,1019.352 z"
   id="text88-9-8-5-7-5-6"
   style="font-size:4217.44px;line-height:1.25;font-family:Arial;-inkscape-font-specification:Arial;text-align:justify;fill:#ffffff;stroke-width:1171.58"
   aria-label="B0" /><path
   d="m 106738.55,14200.001 v -3018.929 h 1132.61 q 345.97,0 553.95,92.668 210.05,90.609 327.43,282.124 119.44,189.455 119.44,397.444 0,193.574 -105.02,364.495 -105.03,170.922 -317.13,275.946 273.88,80.313 420.09,273.887 148.27,193.574 148.27,457.164 0,212.107 -90.61,395.385 -88.55,181.218 -220.34,280.064 -131.8,98.846 -331.55,150.329 -197.69,49.423 -485.99,49.423 z m 399.5,-1750.403 h 652.8 q 265.65,0 380.97,-35.008 152.39,-45.304 228.58,-150.328 78.26,-105.024 78.26,-263.59 0,-150.329 -72.08,-263.59 -72.07,-115.321 -205.93,-156.507 -133.85,-43.245 -459.22,-43.245 h -603.38 z m 0,1394.144 h 751.65 q 193.57,0 271.82,-14.415 137.98,-24.711 230.65,-82.371 92.66,-57.661 152.38,-166.804 59.72,-111.202 59.72,-255.352 0,-168.863 -86.49,-292.42 -86.49,-125.618 -240.93,-175.041 -152.39,-51.482 -440.69,-51.482 h -698.11 z m 3675.85,356.259 h -370.67 v -2362.014 q -133.86,127.677 -352.14,255.353 -216.23,127.677 -389.21,191.515 v -358.318 q 310.95,-146.21 543.65,-354.199 232.7,-207.989 329.49,-403.622 h 238.88 z"
   id="text88-9-8-5-7-5-6-2"
   style="font-size:4217.44px;line-height:1.25;font-family:Arial;-inkscape-font-specification:Arial;text-align:justify;fill:#ffffff;stroke-width:1171.58"
   aria-label="B1" /><path
   d="m 117196.58,14200.001 v -3018.929 h 1132.62 q 345.96,0 553.95,92.668 210.04,90.609 327.42,282.124 119.44,189.455 119.44,397.444 0,193.574 -105.02,364.495 -105.02,170.922 -317.13,275.946 273.88,80.313 420.09,273.887 148.27,193.574 148.27,457.164 0,212.107 -90.61,395.385 -88.55,181.218 -220.34,280.064 -131.8,98.846 -331.55,150.329 -197.69,49.423 -485.99,49.423 z m 399.51,-1750.403 h 652.79 q 265.65,0 380.97,-35.008 152.39,-45.304 228.58,-150.328 78.26,-105.024 78.26,-263.59 0,-150.329 -72.08,-263.59 -72.07,-115.321 -205.93,-156.507 -133.85,-43.245 -459.22,-43.245 h -603.37 z m 0,1394.144 h 751.64 q 193.57,0 271.83,-14.415 137.97,-24.711 230.64,-82.371 92.67,-57.661 152.39,-166.804 59.71,-111.202 59.71,-255.352 0,-168.863 -86.49,-292.42 -86.49,-125.618 -240.93,-175.041 -152.39,-51.482 -440.69,-51.482 h -698.1 z m 4227.73,0 v 356.259 h -1995.46 q -4.12,-133.854 43.25,-257.412 76.19,-203.871 243,-401.563 168.86,-197.693 485.99,-457.164 492.17,-403.622 665.15,-638.382 172.98,-236.819 172.98,-446.868 0,-220.344 -158.56,-370.673 -156.51,-152.388 -409.8,-152.388 -267.71,0 -428.34,160.625 -160.62,160.625 -162.68,444.808 l -380.97,-39.126 q 39.13,-426.275 294.48,-648.679 255.35,-224.463 685.74,-224.463 434.52,0 687.81,240.938 253.29,240.937 253.29,597.196 0,181.218 -74.13,356.258 -74.14,175.04 -247.12,368.614 -170.92,193.574 -570.42,531.299 -333.61,280.064 -428.34,380.97 -94.72,98.846 -156.5,199.751 z"
   id="text88-9-8-5-7-5-6-2-2"
   style="font-size:4217.44px;line-height:1.25;font-family:Arial;-inkscape-font-specification:Arial;text-align:justify;fill:#ffffff;stroke-width:1171.58"
   aria-label="B2" /><path
   d="m 127267.51,14173.235 v -3018.929 h 1132.61 q 345.97,0 553.96,92.668 210.04,90.609 327.42,282.124 119.44,189.455 119.44,397.444 0,193.574 -105.02,364.496 -105.03,170.922 -317.13,275.946 273.88,80.312 420.09,273.886 148.27,193.574 148.27,457.164 0,212.108 -90.61,395.385 -88.55,181.218 -220.34,280.064 -131.8,98.847 -331.55,150.329 -197.69,49.423 -485.99,49.423 z m 399.51,-1750.402 h 652.79 q 265.65,0 380.97,-35.008 152.39,-45.305 228.58,-150.329 78.26,-105.024 78.26,-263.59 0,-150.329 -72.08,-263.59 -72.07,-115.32 -205.93,-156.506 -133.85,-43.246 -459.22,-43.246 h -603.37 z m 0,1394.144 h 751.64 q 193.57,0 271.83,-14.415 137.97,-24.712 230.64,-82.372 92.67,-57.66 152.39,-166.803 59.71,-111.202 59.71,-255.353 0,-168.862 -86.49,-292.42 -86.49,-125.617 -240.93,-175.04 -152.39,-51.483 -440.69,-51.483 h -698.1 z m 2281.7,-440.69 370.67,-49.423 q 63.84,315.073 216.23,455.105 154.44,137.973 374.79,137.973 261.53,0 440.69,-181.218 181.22,-181.219 181.22,-448.927 0,-255.353 -166.81,-420.097 -166.8,-166.803 -424.21,-166.803 -105.03,0 -261.53,41.186 l 41.18,-325.369 q 37.07,4.119 59.72,4.119 236.82,0 426.28,-123.558 189.45,-123.558 189.45,-380.97 0,-203.87 -137.97,-337.725 -137.97,-133.854 -356.26,-133.854 -216.23,0 -360.38,135.914 -144.15,135.913 -185.33,407.741 l -370.68,-65.898 q 67.96,-372.733 308.9,-576.603 240.94,-205.93 599.25,-205.93 247.12,0 455.11,107.084 207.99,105.024 317.13,288.301 111.2,183.278 111.2,389.207 0,195.634 -105.02,356.259 -105.03,160.625 -310.96,255.352 267.71,61.779 415.98,257.413 148.27,193.574 148.27,485.994 0,395.385 -288.3,671.33 -288.3,273.887 -728.99,273.887 -397.45,0 -661.04,-236.819 -261.53,-236.819 -298.59,-613.671 z"
   id="text88-9-8-5-7-5-6-2-2-8"
   style="font-size:4217.44px;line-height:1.25;font-family:Arial;-inkscape-font-specification:Arial;text-align:justify;fill:#ffffff;stroke-width:1171.58"
   aria-label="B3" /><path
   d="M 137364.14,14193.829 V 11174.9 h 1132.62 q 345.96,0 553.95,92.668 210.05,90.609 327.43,282.124 119.44,189.455 119.44,397.444 0,193.574 -105.03,364.496 -105.02,170.921 -317.13,275.945 273.89,80.313 420.1,273.887 148.27,193.574 148.27,457.164 0,212.107 -90.61,395.385 -88.55,181.218 -220.35,280.064 -131.79,98.846 -331.54,150.329 -197.7,49.423 -486,49.423 z m 399.51,-1750.402 h 652.8 q 265.64,0 380.97,-35.008 152.38,-45.305 228.58,-150.329 78.25,-105.024 78.25,-263.59 0,-150.329 -72.08,-263.59 -72.07,-115.321 -205.92,-156.507 -133.86,-43.245 -459.23,-43.245 h -603.37 z m 0,1394.144 h 751.64 q 193.58,0 271.83,-14.415 137.97,-24.712 230.64,-82.372 92.67,-57.661 152.39,-166.803 59.72,-111.202 59.72,-255.353 0,-168.863 -86.49,-292.42 -86.49,-125.617 -240.94,-175.041 -152.39,-51.482 -440.69,-51.482 h -698.1 z m 3467.85,356.258 v -722.813 h -1309.71 v -339.784 l 1377.67,-1956.332 h 302.72 v 1956.332 h 407.74 v 339.784 h -407.74 v 722.813 z m 0,-1062.597 v -1361.195 l -945.21,1361.195 z"
   id="text88-9-8-5-7-5-6-2-2-8-6"
   style="font-size:4217.44px;line-height:1.25;font-family:Arial;-inkscape-font-specification:Arial;text-align:justify;fill:#ffffff;stroke-width:1171.58"
   aria-label="B4" /><path
   d="m 147469.3,14168.087 v -3018.929 h 1132.61 q 345.97,0 553.95,92.668 210.05,90.609 327.43,282.124 119.44,189.455 119.44,397.444 0,193.574 -105.02,364.495 -105.03,170.922 -317.13,275.946 273.88,80.313 420.09,273.887 148.27,193.574 148.27,457.164 0,212.107 -90.61,395.385 -88.55,181.218 -220.34,280.064 -131.8,98.846 -331.55,150.329 -197.69,49.423 -485.99,49.423 z m 399.5,-1750.403 h 652.8 q 265.65,0 380.97,-35.008 152.39,-45.304 228.58,-150.328 78.26,-105.024 78.26,-263.59 0,-150.329 -72.08,-263.59 -72.07,-115.321 -205.93,-156.507 -133.85,-43.245 -459.22,-43.245 h -603.38 z m 0,1394.144 h 751.65 q 193.57,0 271.82,-14.415 137.98,-24.711 230.65,-82.372 92.66,-57.66 152.38,-166.803 59.72,-111.202 59.72,-255.352 0,-168.863 -86.49,-292.421 -86.49,-125.617 -240.93,-175.04 -152.39,-51.482 -440.69,-51.482 h -698.11 z m 2279.65,-434.511 389.2,-32.949 q 43.25,284.183 199.75,428.334 158.57,142.091 380.97,142.091 267.71,0 453.05,-201.811 185.34,-201.811 185.34,-535.417 0,-317.132 -179.16,-500.409 -177.1,-183.278 -465.4,-183.278 -179.16,0 -323.31,82.372 -144.15,80.313 -226.53,210.049 l -348.02,-45.305 292.42,-1550.65 h 1501.23 v 354.199 h -1204.69 l -162.68,811.363 q 271.83,-189.456 570.42,-189.456 395.39,0 667.22,273.887 271.82,273.886 271.82,704.279 0,409.8 -238.88,708.398 -290.36,366.555 -792.83,366.555 -411.85,0 -673.39,-230.641 -259.47,-230.641 -296.53,-611.611 z"
   id="text88-9-8-5-7-5-6-2-2-8-6-9"
   style="font-size:4217.44px;line-height:1.25;font-family:Arial;-inkscape-font-specification:Arial;text-align:justify;fill:#ffffff;stroke-width:1171.58"
   aria-label="B5" /><path
   d="m 157540.24,14174.259 v -3018.93 h 1132.61 q 345.96,0 553.95,92.669 210.05,90.609 327.43,282.123 119.44,189.456 119.44,397.445 0,193.574 -105.02,364.495 -105.03,170.922 -317.14,275.946 273.89,80.313 420.1,273.887 148.27,193.573 148.27,457.163 0,212.108 -90.61,395.385 -88.55,181.219 -220.34,280.065 -131.8,98.846 -331.55,150.329 -197.69,49.423 -485.99,49.423 z m 399.5,-1750.403 h 652.8 q 265.65,0 380.97,-35.008 152.39,-45.304 228.58,-150.328 78.25,-105.025 78.25,-263.59 0,-150.329 -72.07,-263.59 -72.08,-115.321 -205.93,-156.507 -133.86,-43.245 -459.22,-43.245 h -603.38 z m 0,1394.144 h 751.65 q 193.57,0 271.82,-14.415 137.98,-24.711 230.64,-82.372 92.67,-57.66 152.39,-166.803 59.72,-111.202 59.72,-255.353 0,-168.862 -86.49,-292.42 -86.49,-125.617 -240.94,-175.04 -152.38,-51.482 -440.69,-51.482 h -698.1 z m 4203.03,-1923.383 -368.62,28.83 q -49.42,-218.285 -140.03,-317.132 -150.33,-158.565 -370.67,-158.565 -177.1,0 -310.96,98.846 -175.04,127.676 -275.94,372.733 -100.91,245.056 -105.03,698.101 133.86,-203.87 327.43,-302.716 193.58,-98.847 405.68,-98.847 370.68,0 630.15,273.887 261.53,271.827 261.53,704.279 0,284.183 -123.56,529.24 -121.5,242.997 -335.66,372.732 -214.17,129.736 -486,129.736 -463.34,0 -755.76,-339.784 -292.42,-341.843 -292.42,-1124.376 0,-875.201 323.31,-1272.645 282.12,-345.962 759.88,-345.962 356.26,0 582.78,199.751 228.58,199.752 273.89,551.892 z m -1513.59,1301.476 q 0,191.514 80.32,366.554 82.37,175.041 228.58,267.709 146.21,90.609 306.83,90.609 234.76,0 403.63,-189.455 168.86,-189.456 168.86,-514.824 0,-313.014 -166.81,-492.172 -166.8,-181.218 -420.09,-181.218 -251.24,0 -426.28,181.218 -175.04,179.158 -175.04,471.579 z"
   id="text88-9-8-5-7-5-6-2-2-8-6-9-9"
   style="font-size:4217.44px;line-height:1.25;font-family:Arial;-inkscape-font-specification:Arial;text-align:justify;fill:#ffffff;stroke-width:1171.58"
   aria-label="B6" /><path
   d="M 167450.82,14193.829 V 11174.9 h 1132.61 q 345.96,0 553.95,92.668 210.05,90.609 327.43,282.124 119.44,189.455 119.44,397.444 0,193.574 -105.03,364.496 -105.02,170.921 -317.13,275.945 273.89,80.313 420.1,273.887 148.27,193.574 148.27,457.164 0,212.107 -90.61,395.385 -88.55,181.218 -220.35,280.064 -131.79,98.846 -331.54,150.329 -197.7,49.423 -486,49.423 z m 399.5,-1750.402 h 652.8 q 265.65,0 380.97,-35.008 152.38,-45.305 228.58,-150.329 78.25,-105.024 78.25,-263.59 0,-150.329 -72.07,-263.59 -72.08,-115.321 -205.93,-156.507 -133.86,-43.245 -459.23,-43.245 h -603.37 z m 0,1394.144 h 751.64 q 193.58,0 271.83,-14.415 137.97,-24.712 230.64,-82.372 92.67,-57.661 152.39,-166.803 59.72,-111.202 59.72,-255.353 0,-168.863 -86.49,-292.42 -86.49,-125.617 -240.94,-175.041 -152.39,-51.482 -440.69,-51.482 h -698.1 z m 2304.35,-2267.286 v -356.259 h 1954.28 v 288.302 q -288.31,306.835 -572.49,815.482 -282.12,508.646 -436.57,1046.122 -111.2,378.911 -142.09,829.897 h -380.97 q 6.18,-356.258 140.03,-860.786 133.86,-504.528 383.03,-971.988 251.23,-469.52 533.36,-790.77 z"
   id="text88-9-8-5-7-5-6-2-2-8-6-9-9-3"
   style="font-size:4217.44px;line-height:1.25;font-family:Arial;-inkscape-font-specification:Arial;text-align:justify;fill:#ffffff;stroke-width:1171.58"
   aria-label="B7" /><path
   d="m 178301.68,14193.829 1159.39,-3018.929 h 430.39 l 1235.58,3018.929 h -455.11 l -352.14,-914.328 h -1262.35 l -331.54,914.328 z m 871.08,-1239.697 h 1023.47 l -315.07,-836.074 q -144.15,-380.97 -214.16,-626.027 -57.67,290.361 -162.69,576.604 z"
   id="text88-9-8-5-7-5-6-2-2-8-6-9-9-3-3"
   style="font-size:4217.44px;line-height:1.25;font-family:Arial;-inkscape-font-specification:Arial;text-align:justify;fill:#ffffff;stroke-width:1171.58"
   aria-label="A" /><path
   d="M 189315,14193.829 V 11174.9 h 399.51 v 1497.109 l 1499.17,-1497.109 h 541.59 l -1266.47,1223.222 1322.07,1795.707 h -527.18 l -1074.95,-1527.998 -494.23,481.875 v 1046.123 z"
   id="text88-9-8-5-7-5-6-2-2-8-6-9-9-3-3-1"
   style="font-size:4217.44px;line-height:1.25;font-family:Arial;-inkscape-font-specification:Arial;text-align:justify;fill:#ffffff;stroke-width:1171.58"
   aria-label="K" /></g>
</svg>
