<?xml version="1.0" encoding="UTF-8" standalone="no"?>
<!-- Created with Inkscape (http://www.inkscape.org/) -->

<svg
   width="34.88641mm"
   height="69.414986mm"
   viewBox="0 0 34.88641 69.414986"
   version="1.1"
   id="svg1"
   xml:space="preserve"
   inkscape:version="1.3.2 (091e20e, 2023-11-25, custom)"
   sodipodi:docname="led.svg"
   xmlns:inkscape="http://www.inkscape.org/namespaces/inkscape"
   xmlns:sodipodi="http://sodipodi.sourceforge.net/DTD/sodipodi-0.dtd"
   xmlns="http://www.w3.org/2000/svg"
   xmlns:svg="http://www.w3.org/2000/svg"><sodipodi:namedview
     id="namedview1"
     pagecolor="#ffffff"
     bordercolor="#000000"
     borderopacity="0.25"
     inkscape:showpageshadow="2"
     inkscape:pageopacity="0.0"
     inkscape:pagecheckerboard="0"
     inkscape:deskcolor="#d1d1d1"
     inkscape:document-units="mm"
     inkscape:zoom="0.95371126"
     inkscape:cx="44.562754"
     inkscape:cy="171.43553"
     inkscape:window-width="1920"
     inkscape:window-height="974"
     inkscape:window-x="-11"
     inkscape:window-y="-11"
     inkscape:window-maximized="1"
     inkscape:current-layer="layer1" /><defs
     id="defs1" /><g
     inkscape:label="Capa 1"
     inkscape:groupmode="layer"
     id="layer1"
     transform="translate(-128.78047,-55.717894)"><path
       style="fill:#ff0000"
       d="m 139.89297,125.08089 c -1.04394,-0.32552 -1.05833,-0.51604 -1.05833,-14.00408 V 98.030506 h -3.98189 c -5.26599,0 -6.07228,-0.39389 -6.07228,-2.96645 0,-1.3554 0.47077,-2.12724 1.57696,-2.58544 l 0.80429,-0.33315 V 80.817783 c 0,-12.563152 0.11394,-13.730677 1.64906,-16.898284 1.71014,-3.528721 5.73691,-6.766663 9.74002,-7.831979 1.85191,-0.492835 5.53243,-0.492835 7.38434,0 4.89388,1.302371 8.88006,5.023709 10.63497,9.928398 0.60487,1.690489 0.61682,1.927861 0.7013,13.931537 l 0.0859,12.211741 0.79768,0.33041 c 1.18206,0.48963 1.59307,1.29255 1.49894,2.92822 -0.0726,1.26239 -0.1716,1.46523 -0.97983,2.00844 -0.83912,0.56398 -1.16964,0.60424 -4.96093,0.60424 h -4.06192 v 11.641664 c 0,11.28889 -0.016,11.6577 -0.52917,12.17084 -0.29104,0.29104 -0.70776,0.52916 -0.92604,0.52916 -0.21828,0 -0.635,-0.23812 -0.92604,-0.52916 -0.51313,-0.51314 -0.52917,-0.88195 -0.52917,-12.17084 V 98.030506 h -4.49791 -4.49792 l -0.008,13.030724 c -0.006,9.82975 -0.0876,13.13225 -0.33073,13.44401 -0.39993,0.51279 -0.99203,0.73807 -1.51294,0.57565 z m 18.81322,-53.478029 c 0.59737,-0.483726 0.60708,-0.557502 0.32816,-2.49361 -0.77346,-5.368848 -4.77513,-9.573025 -10.03817,-10.546175 -1.9536,-0.361226 -2.93901,-0.153297 -3.32891,0.702428 -0.46847,1.028183 0.30306,1.987914 1.59808,1.987914 4.55756,0 9.01136,4.5281 9.02865,9.179268 0.002,0.570763 0.19393,0.978529 0.59117,1.256771 0.76235,0.533964 1.07289,0.519196 1.82102,-0.0866 z"
       id="path1"
       sodipodi:nodetypes="cscssscsssssccscsscsssssccccsccssssscsss" /></g></svg>
