<?xml version="1.0" encoding="UTF-8" standalone="no"?>
<!-- Created with Inkscape (http://www.inkscape.org/) -->

<svg
   width="90.5mm"
   height="21mm"
   viewBox="0 0 90.500001 21.000001"
   version="1.1"
   id="svg1"
   xml:space="preserve"
   inkscape:version="1.4.2 (f4327f4, 2025-05-13)"
   sodipodi:docname="pot_deslizable.svg"
   xmlns:inkscape="http://www.inkscape.org/namespaces/inkscape"
   xmlns:sodipodi="http://sodipodi.sourceforge.net/DTD/sodipodi-0.dtd"
   xmlns="http://www.w3.org/2000/svg"
   xmlns:svg="http://www.w3.org/2000/svg"><sodipodi:namedview
     id="namedview1"
     pagecolor="#505050"
     bordercolor="#eeeeee"
     borderopacity="1"
     inkscape:showpageshadow="0"
     inkscape:pageopacity="0"
     inkscape:pagecheckerboard="0"
     inkscape:deskcolor="#505050"
     inkscape:document-units="mm"
     inkscape:zoom="0.96033951"
     inkscape:cx="187.95436"
     inkscape:cy="74.452836"
     inkscape:window-width="1366"
     inkscape:window-height="697"
     inkscape:window-x="-8"
     inkscape:window-y="-8"
     inkscape:window-maximized="1"
     inkscape:current-layer="layer1" /><defs
     id="defs1"><clipPath
       clipPathUnits="userSpaceOnUse"
       id="clipPath1"><path
         style="fill:#000000;stroke-width:1"
         d="m 83.834663,240.50944 c -1.995024,-0.2565 -3.409124,-1.2969 -4.499565,-3.31048 -0.393761,-0.72711 -0.423098,-5.71959 -0.349432,-59.46563 l 0.08042,-58.67188 -0.573146,-0.11404 c -0.31523,-0.0627 -2.359086,-0.24802 -4.541898,-0.41178 -2.182813,-0.16376 -4.228026,-0.36107 -4.544918,-0.43848 -0.723659,-0.17677 -1.008962,-0.85349 -0.450223,-1.06789 0.41301,-0.15849 4.074629,-0.002 8.103995,0.34617 l 2.050523,0.17722 V 115.92632 114.3 l -1.389065,-0.006 c -4.454427,-0.0191 -8.8349,-0.42037 -9.08971,-0.83266 -0.388797,-0.62908 0.754242,-0.77249 5.47647,-0.68707 l 4.919573,0.089 0.05448,-1.50982 0.05448,-1.50981 -5.027517,-0.0869 c -3.569054,-0.0617 -5.123304,-0.18288 -5.357701,-0.41766 -0.786088,-0.78739 0.209478,-0.98974 5.346874,-1.08683 l 5.015749,-0.0948 -0.03083,-4.18415 -0.03083,-4.184157 -4.799637,-0.08676 c -4.939194,-0.08928 -5.737479,-0.228687 -5.176965,-0.904063 0.246031,-0.29645 1.305407,-0.373319 5.144765,-0.373319 h 4.834935 l -0.03869,-1.653646 -0.03869,-1.653646 -3.347032,0.06204 c -3.257399,0.06038 -6.195129,-0.262694 -6.684073,-0.735079 -0.53334,-0.515278 1.409676,-0.782174 5.694296,-0.782174 h 4.492284 l -0.07774,-1.911684 -0.07774,-1.91168 -4.101042,-0.59871 c -4.064145,-0.593326 -5.999496,-1.160209 -5.687031,-1.665788 0.235813,-0.381553 1.436664,-0.32645 5.819323,0.267028 2.14925,0.291042 3.947776,0.529167 3.996722,0.529167 0.04895,0 0.06267,-2.79799 0.03051,-6.217756 -0.05425,-5.767575 -0.02495,-6.217751 0.40454,-6.217708 0.254661,2.6e-5 0.463021,-0.109879 0.463021,-0.244237 0,-0.492882 1.419613,-1.911705 2.480677,-2.479297 1.083876,-0.579794 1.193901,-0.584234 16.398947,-0.661945 15.105918,-0.0772 15.322198,-0.07091 16.404168,0.477533 1.35455,0.686618 3.9217,3.381759 3.76318,3.950804 -0.29306,1.051949 -0.71681,79.202837 -0.63801,117.663717 0.0483,23.59685 -0.009,42.84323 -0.12833,42.76972 -0.11894,-0.0735 -0.27875,0.10536 -0.35514,0.39746 -0.15364,0.58754 -1.6108,1.84654 -2.92121,2.52398 -0.75984,0.3928 -2.32134,0.43417 -15.213539,0.40305 -7.901731,-0.0191 -15.038843,-0.12111 -15.860247,-0.22672 z m 52.161167,-66.03878 c 0,-0.23041 0.14139,-0.37179 0.3142,-0.31419 0.49059,0.16353 0.57196,0.73311 0.10473,0.73311 -0.23041,0 -0.41893,-0.18851 -0.41893,-0.41892 z M 118.39612,75.178229 c 0.12142,-0.213399 0.0563,-0.454477 -0.15962,-0.591261 -0.23973,-0.151842 -0.25669,-0.232339 -0.0495,-0.235003 0.49527,-0.0064 0.70487,0.539633 0.33739,0.878898 -0.2578,0.238014 -0.28684,0.226097 -0.12826,-0.05263 z m -37.239593,-1.92148 c 0.179475,-0.180822 0.39297,-0.262115 0.474432,-0.180653 0.08146,0.08146 -0.06538,0.229407 -0.326321,0.328766 -0.377084,0.143584 -0.407474,0.113194 -0.148111,-0.148113 z m 34.395833,-0.79375 c 0.17948,-0.180822 0.39297,-0.262115 0.47443,-0.180653 0.0815,0.08146 -0.0654,0.229407 -0.32632,0.328766 -0.37708,0.143584 -0.40747,0.113194 -0.14811,-0.148113 z"
         id="path2"
         sodipodi:nodetypes="sssccssscccccsscccssscccssscccssscccsssssssssssccssssssssssscsssssssscss" /></clipPath></defs><g
     inkscape:label="Capa 1"
     inkscape:groupmode="layer"
     id="layer1"
     transform="translate(-44.29668,-107.43517)"><g
       id="g26"><rect
         style="fill:#ff0000;stroke-width:0.165162"
         id="rect1"
         width="21"
         height="90.5"
         x="-128.43517"
         y="44.29668"
         ry="1"
         rx="1"
         transform="rotate(-90)" /><rect
         style="fill:#000000;fill-opacity:1;stroke:#dfcec4;stroke-width:0.391858;stroke-opacity:1"
         id="rect5"
         width="11.104463"
         height="75.588272"
         x="-119.81416"
         y="52.070156"
         rx="1.1515151"
         ry="1.5427436"
         transform="rotate(-90)" /><circle
         style="fill:#ffffff;stroke-width:0.362472"
         id="path3"
         cx="-125.47095"
         cy="47.312664"
         r="1.6"
         transform="rotate(-90)" /><circle
         style="fill:#ffffff;stroke-width:0.362472"
         id="circle3"
         cx="-110.1251"
         cy="47.312664"
         r="1.6"
         transform="rotate(-90)" /><circle
         style="fill:#ffffff;stroke-width:0.362472"
         id="circle4"
         cx="-125.47095"
         cy="131.9789"
         r="1.6"
         transform="rotate(-90)" /><circle
         style="fill:#ffffff;stroke-width:0.362472"
         id="circle5"
         cx="-110.1251"
         cy="131.9789"
         r="1.6"
         transform="rotate(-90)" /><rect
         style="fill:#000000;fill-opacity:1;stroke:none;stroke-width:0.109132;stroke-opacity:1"
         id="rect8"
         width="11.932427"
         height="1.5501654"
         x="-120.98306"
         y="85.196724"
         transform="rotate(-90)" /><g
         id="g10"
         transform="rotate(-90,89.370126,117.90473)"><rect
           style="fill:#000000;fill-opacity:1;stroke:none;stroke-width:0.27132;stroke-opacity:1"
           id="rect9"
           width="2"
           height="2"
           x="80.143616"
           y="81.532112" /><rect
           style="fill:#cecece;fill-opacity:1;stroke:none;stroke-width:0.344872;stroke-opacity:1"
           id="rect10"
           width="1"
           height="1"
           x="80.643616"
           y="82.032112" /></g><g
         id="g12"
         transform="rotate(-90,90.528442,116.74641)"><rect
           style="fill:#000000;fill-opacity:1;stroke:none;stroke-width:0.27132;stroke-opacity:1"
           id="rect11"
           width="2"
           height="2"
           x="80.143616"
           y="81.532112" /><rect
           style="fill:#cecece;fill-opacity:1;stroke:none;stroke-width:0.344872;stroke-opacity:1"
           id="rect12"
           width="1"
           height="1"
           x="80.643616"
           y="82.032112" /></g><g
         id="g14"
         transform="rotate(-90,91.678442,115.59641)"><rect
           style="fill:#000000;fill-opacity:1;stroke:none;stroke-width:0.27132;stroke-opacity:1"
           id="rect13"
           width="2"
           height="2"
           x="80.143616"
           y="81.532112" /><rect
           style="fill:#cecece;fill-opacity:1;stroke:none;stroke-width:0.344872;stroke-opacity:1"
           id="rect14"
           width="1"
           height="1"
           x="80.643616"
           y="82.032112" /></g><g
         id="g16"
         transform="rotate(-90,94.519942,112.75491)"><rect
           style="fill:#000000;fill-opacity:1;stroke:none;stroke-width:0.27132;stroke-opacity:1"
           id="rect15"
           width="2"
           height="2"
           x="80.143616"
           y="81.532112" /><rect
           style="fill:#cecece;fill-opacity:1;stroke:none;stroke-width:0.344872;stroke-opacity:1"
           id="rect16"
           width="1"
           height="1"
           x="80.643616"
           y="82.032112" /></g><g
         id="g18"
         transform="rotate(-90,95.678259,111.5966)"><rect
           style="fill:#000000;fill-opacity:1;stroke:none;stroke-width:0.27132;stroke-opacity:1"
           id="rect17"
           width="2"
           height="2"
           x="80.143616"
           y="81.532112" /><rect
           style="fill:#cecece;fill-opacity:1;stroke:none;stroke-width:0.344872;stroke-opacity:1"
           id="rect18"
           width="1"
           height="1"
           x="80.643616"
           y="82.032112" /></g><g
         id="g20"
         transform="rotate(-90,96.828259,110.4466)"><rect
           style="fill:#000000;fill-opacity:1;stroke:none;stroke-width:0.27132;stroke-opacity:1"
           id="rect19"
           width="2"
           height="2"
           x="80.143616"
           y="81.532112" /><rect
           style="fill:#cecece;fill-opacity:1;stroke:none;stroke-width:0.344872;stroke-opacity:1"
           id="rect20"
           width="1"
           height="1"
           x="80.643616"
           y="82.032112" /></g><rect
         style="fill:#f19c0a;fill-opacity:1;stroke:none;stroke-width:0.258307;stroke-opacity:1"
         id="rect21"
         width="2.1429665"
         height="1.2175946"
         x="-125.07418"
         y="74.936577"
         transform="rotate(-90)" /><rect
         style="fill:#f19c0a;fill-opacity:1;stroke:none;stroke-width:0.258307;stroke-opacity:1"
         id="rect21-5"
         width="2.1429665"
         height="1.2175946"
         x="-125.217"
         y="77.611015"
         transform="rotate(-90)" /><path
         d="m 53.949511,122.0486 h 0.118511 l 6.89e-4,0.42788 h -0.374826 q -0.07855,-0.0985 -0.118511,-0.20326 -0.03927,-0.10473 -0.03927,-0.21498 0,-0.14882 0.06339,-0.27078 0.06408,-0.12127 0.184657,-0.18328 0.120579,-0.062 0.269407,-0.062 0.14745,0 0.274918,0.0613 0.128158,0.062 0.190169,0.17777 0.06201,0.11575 0.06201,0.26665 0,0.10955 -0.03583,0.19775 -0.03514,0.0889 -0.09853,0.13918 -0.06339,0.0503 -0.165364,0.0765 l -0.03307,-0.12058 q 0.07717,-0.0227 0.121267,-0.0565 0.0441,-0.0338 0.07028,-0.0965 0.02687,-0.0627 0.02687,-0.13918 0,-0.0916 -0.02825,-0.15848 -0.02756,-0.0668 -0.07304,-0.10817 -0.04548,-0.0406 -0.09991,-0.0634 -0.09371,-0.0386 -0.20326,-0.0386 -0.135048,0 -0.225998,0.0462 -0.09095,0.0468 -0.135048,0.13573 -0.0441,0.0889 -0.0441,0.18879 0,0.0868 0.03307,0.1695 0.03376,0.0827 0.07166,0.1254 h 0.188102 z m -0.396186,0.62356 h 1.010101 v 0.13711 l -0.79306,0.53055 h 0.79306 v 0.12816 h -1.010101 v -0.13712 l 0.79375,-0.53054 h -0.79375 z m 0,1.02044 h 1.010101 v 0.34795 q 0,0.11782 -0.01447,0.17983 -0.01998,0.0868 -0.07235,0.14814 -0.06752,0.0799 -0.172944,0.1192 -0.10473,0.04 -0.239778,0.04 -0.115066,0 -0.203949,-0.0269 -0.08888,-0.0269 -0.14745,-0.0689 -0.05788,-0.042 -0.09164,-0.0923 -0.03307,-0.0496 -0.0503,-0.12058 -0.01723,-0.0703 -0.01723,-0.16191 z m 0.1192,0.13366 v 0.21567 q 0,0.0999 0.0186,0.1564 0.0186,0.0572 0.05236,0.091 0.04754,0.0475 0.127469,0.0737 0.08061,0.0269 0.194992,0.0269 0.158474,0 0.243224,-0.0524 0.08544,-0.0517 0.114377,-0.12609 0.02067,-0.0537 0.02067,-0.17294 v -0.21222 z"
         id="text21"
         style="font-size:1.41111px;line-height:1.25;font-family:Arial;-inkscape-font-specification:Arial;text-align:justify;fill:#ffffff;stroke-width:0.294"
         aria-label="GND" /><path
         d="m 55.99937,121.96764 1.010101,-0.39136 v 0.14469 l -0.733804,0.26252 q -0.08819,0.0317 -0.165365,0.0531 0.08268,0.0234 0.165365,0.0544 l 0.733804,0.27285 v 0.13643 l -1.010101,-0.3955 z m 0.354156,1.37322 -0.03376,0.13366 q -0.164676,-0.042 -0.251492,-0.15158 -0.08613,-0.10886 -0.08613,-0.26665 0,-0.1633 0.06615,-0.26596 0.06683,-0.10198 0.192926,-0.15572 0.12609,-0.0531 0.270784,-0.0531 0.157785,0 0.274918,0.0599 0.117823,0.0606 0.178456,0.17157 0.06132,0.11162 0.06132,0.24529 0,0.15158 -0.07717,0.25493 -0.07717,0.10336 -0.217041,0.14401 l -0.03101,-0.1316 q 0.110243,-0.0351 0.160541,-0.10198 0.0503,-0.0668 0.0503,-0.16812 0,-0.11644 -0.05581,-0.19499 -0.05581,-0.0779 -0.150206,-0.10955 -0.09371,-0.0317 -0.193614,-0.0317 -0.128846,0 -0.225309,0.0372 -0.09577,0.0379 -0.143316,0.11713 -0.04754,0.0792 -0.04754,0.17156 0,0.11231 0.06477,0.19017 0.06477,0.0779 0.192236,0.10542 z m 0,1.01905 -0.03376,0.13367 q -0.164676,-0.042 -0.251492,-0.15158 -0.08613,-0.10887 -0.08613,-0.26665 0,-0.1633 0.06615,-0.26596 0.06683,-0.10198 0.192926,-0.15572 0.12609,-0.053 0.270784,-0.053 0.157785,0 0.274918,0.0599 0.117823,0.0606 0.178456,0.17157 0.06132,0.11162 0.06132,0.24529 0,0.15158 -0.07717,0.25493 -0.07717,0.10336 -0.217041,0.14401 l -0.03101,-0.1316 q 0.110243,-0.0351 0.160541,-0.10198 0.0503,-0.0668 0.0503,-0.16812 0,-0.11644 -0.05581,-0.19499 -0.05581,-0.0779 -0.150206,-0.10956 -0.09371,-0.0317 -0.193614,-0.0317 -0.128846,0 -0.225309,0.0372 -0.09577,0.0379 -0.143316,0.11714 -0.04754,0.0792 -0.04754,0.17156 0,0.11231 0.06477,0.19017 0.06477,0.0779 0.192236,0.10542 z"
         id="text22"
         style="font-size:1.41111px;line-height:1.25;font-family:Arial;-inkscape-font-specification:Arial;text-align:justify;fill:#ffffff;stroke-width:0.294"
         aria-label="VCC" /><path
         d="m 58.783162,121.6562 q 0.251491,0 0.393429,0.13505 0.142627,0.13505 0.142627,0.34865 0,0.13987 -0.06683,0.25218 -0.06684,0.11231 -0.186724,0.17087 -0.1192,0.0593 -0.270784,0.0593 -0.153651,0 -0.274919,-0.062 -0.121267,-0.062 -0.183967,-0.1757 -0.06201,-0.11369 -0.06201,-0.24529 0,-0.14263 0.0689,-0.25493 0.0689,-0.11231 0.188102,-0.17019 0.1192,-0.0579 0.252181,-0.0579 z m -0.0021,0.13781 q -0.18259,0 -0.28801,0.0978 -0.104731,0.0985 -0.104731,0.24667 0,0.15089 0.106109,0.24804 0.106109,0.0978 0.301101,0.0978 0.123334,0 0.214974,-0.042 0.09233,-0.0413 0.142627,-0.12195 0.05099,-0.0799 0.05099,-0.17984 0,-0.14194 -0.09784,-0.2446 -0.09715,-0.10197 -0.325216,-0.10197 z m -0.489893,1.25746 h 0.890901 v -0.3328 h 0.119201 v 0.80064 H 59.18207 v -0.33417 h -0.890901 z m 0,0.59944 h 1.010102 v 0.37896 q 0,0.11576 -0.03101,0.18535 -0.03032,0.0703 -0.0944,0.10955 -0.06339,0.04 -0.13298,0.04 -0.06477,0 -0.121957,-0.0351 -0.05719,-0.0351 -0.09233,-0.10611 -0.02687,0.0916 -0.09164,0.14056 -0.06477,0.0496 -0.152962,0.0496 -0.07097,0 -0.132291,-0.0303 -0.06063,-0.0296 -0.09371,-0.0737 -0.03307,-0.0441 -0.0503,-0.11093 -0.01654,-0.0661 -0.01654,-0.16261 z m 0.585666,0.13367 v 0.21842 q 0,0.0889 0.01171,0.12747 0.01516,0.051 0.0503,0.0765 0.03514,0.0262 0.08819,0.0262 0.0503,0 0.08819,-0.0241 0.03858,-0.0241 0.05237,-0.0689 0.01447,-0.0448 0.01447,-0.15365 v -0.20188 z m -0.466465,0 v 0.25149 q 0,0.0648 0.0048,0.091 0.0083,0.0462 0.02756,0.0772 0.01929,0.031 0.05581,0.051 0.03721,0.02 0.08544,0.02 0.0565,0 0.09784,-0.0289 0.04203,-0.0289 0.05857,-0.0806 0.01723,-0.051 0.01723,-0.14745 v -0.23357 z"
         id="text23"
         style="font-size:1.41111px;line-height:1.25;font-family:Arial;-inkscape-font-specification:Arial;text-align:justify;fill:#ffffff;stroke-width:0.294"
         aria-label="OTB" /><path
         d="m 64.303553,122.0486 h 0.118511 l 6.89e-4,0.42788 h -0.374826 q -0.07855,-0.0985 -0.118511,-0.20326 -0.03927,-0.10473 -0.03927,-0.21498 0,-0.14882 0.06339,-0.27078 0.06408,-0.12127 0.184657,-0.18328 0.120578,-0.062 0.269406,-0.062 0.14745,0 0.274918,0.0613 0.128158,0.062 0.190169,0.17777 0.06201,0.11575 0.06201,0.26665 0,0.10955 -0.03583,0.19775 -0.03514,0.0889 -0.09853,0.13918 -0.06339,0.0503 -0.165364,0.0765 l -0.03307,-0.12058 q 0.07717,-0.0227 0.121267,-0.0565 0.0441,-0.0338 0.07028,-0.0965 0.02687,-0.0627 0.02687,-0.13918 0,-0.0916 -0.02825,-0.15848 -0.02756,-0.0668 -0.07304,-0.10817 -0.04547,-0.0406 -0.09991,-0.0634 -0.09371,-0.0386 -0.20326,-0.0386 -0.135048,0 -0.225998,0.0462 -0.09095,0.0468 -0.135048,0.13573 -0.0441,0.0889 -0.0441,0.18879 0,0.0868 0.03307,0.1695 0.03376,0.0827 0.07166,0.1254 h 0.188102 z m -0.396186,0.62356 h 1.010102 v 0.13711 l -0.793061,0.53055 h 0.793061 v 0.12816 h -1.010102 v -0.13712 l 0.79375,-0.53054 h -0.79375 z m 0,1.02044 h 1.010102 v 0.34795 q 0,0.11782 -0.01447,0.17983 -0.01998,0.0868 -0.07235,0.14814 -0.06752,0.0799 -0.172943,0.1192 -0.104731,0.04 -0.239779,0.04 -0.115066,0 -0.203949,-0.0269 -0.08888,-0.0269 -0.14745,-0.0689 -0.05788,-0.042 -0.09164,-0.0923 -0.03307,-0.0496 -0.0503,-0.12058 -0.01723,-0.0703 -0.01723,-0.16191 z m 0.119201,0.13366 v 0.21567 q 0,0.0999 0.0186,0.1564 0.0186,0.0572 0.05237,0.091 0.04754,0.0475 0.127469,0.0737 0.08061,0.0269 0.194992,0.0269 0.158474,0 0.243224,-0.0524 0.08544,-0.0517 0.114377,-0.12609 0.02067,-0.0537 0.02067,-0.17294 v -0.21222 z"
         id="text24"
         style="font-size:1.41111px;line-height:1.25;font-family:Arial;-inkscape-font-specification:Arial;text-align:justify;fill:#ffffff;stroke-width:0.294"
         aria-label="GND" /><path
         d="m 66.353412,121.96764 1.010101,-0.39136 v 0.14469 l -0.733804,0.26252 q -0.08819,0.0317 -0.165365,0.0531 0.08268,0.0234 0.165365,0.0544 l 0.733804,0.27285 v 0.13643 l -1.010101,-0.3955 z m 0.354156,1.37322 -0.03376,0.13366 q -0.164676,-0.042 -0.251492,-0.15158 -0.08613,-0.10886 -0.08613,-0.26665 0,-0.1633 0.06615,-0.26596 0.06683,-0.10198 0.192925,-0.15572 0.12609,-0.0531 0.270784,-0.0531 0.157785,0 0.274918,0.0599 0.117823,0.0606 0.178456,0.17157 0.06132,0.11162 0.06132,0.24529 0,0.15158 -0.07717,0.25493 -0.07717,0.10336 -0.217041,0.14401 l -0.03101,-0.1316 q 0.110243,-0.0351 0.160541,-0.10198 0.0503,-0.0668 0.0503,-0.16812 0,-0.11644 -0.05581,-0.19499 -0.05581,-0.0779 -0.150206,-0.10955 -0.09371,-0.0317 -0.193614,-0.0317 -0.128846,0 -0.225309,0.0372 -0.09577,0.0379 -0.143316,0.11713 -0.04754,0.0792 -0.04754,0.17156 0,0.11231 0.06477,0.19017 0.06477,0.0779 0.192236,0.10542 z m 0,1.01905 -0.03376,0.13367 q -0.164676,-0.042 -0.251492,-0.15158 -0.08613,-0.10887 -0.08613,-0.26665 0,-0.1633 0.06615,-0.26596 0.06683,-0.10198 0.192925,-0.15572 0.12609,-0.053 0.270784,-0.053 0.157785,0 0.274918,0.0599 0.117823,0.0606 0.178456,0.17157 0.06132,0.11162 0.06132,0.24529 0,0.15158 -0.07717,0.25493 -0.07717,0.10336 -0.217041,0.14401 l -0.03101,-0.1316 q 0.110243,-0.0351 0.160541,-0.10198 0.0503,-0.0668 0.0503,-0.16812 0,-0.11644 -0.05581,-0.19499 -0.05581,-0.0779 -0.150206,-0.10956 -0.09371,-0.0317 -0.193614,-0.0317 -0.128846,0 -0.225309,0.0372 -0.09577,0.0379 -0.143316,0.11714 -0.04754,0.0792 -0.04754,0.17156 0,0.11231 0.06477,0.19017 0.06477,0.0779 0.192236,0.10542 z"
         id="text25"
         style="font-size:1.41111px;line-height:1.25;font-family:Arial;-inkscape-font-specification:Arial;text-align:justify;fill:#ffffff;stroke-width:0.294"
         aria-label="VCC" /><path
         d="m 69.137204,121.66998 q 0.251491,0 0.393429,0.13505 0.142627,0.13505 0.142627,0.34864 0,0.13987 -0.06683,0.25218 -0.06683,0.11231 -0.186724,0.17088 -0.1192,0.0593 -0.270784,0.0593 -0.153651,0 -0.274918,-0.062 -0.121268,-0.062 -0.183968,-0.1757 -0.06201,-0.11369 -0.06201,-0.24529 0,-0.14263 0.0689,-0.25494 0.0689,-0.11231 0.188102,-0.17018 0.1192,-0.0579 0.252181,-0.0579 z m -0.0021,0.13781 q -0.18259,0 -0.28801,0.0978 -0.104731,0.0985 -0.104731,0.24666 0,0.1509 0.106109,0.24805 0.106109,0.0978 0.301101,0.0978 0.123334,0 0.214974,-0.042 0.09233,-0.0413 0.142627,-0.12196 0.05099,-0.0799 0.05099,-0.17983 0,-0.14194 -0.09784,-0.2446 -0.09715,-0.10198 -0.325216,-0.10198 z m -0.489893,1.25746 h 0.890901 v -0.3328 h 0.119201 v 0.80064 h -0.119201 v -0.33418 h -0.890901 z m 0,0.38929 1.010102,0.38792 v 0.144 l -1.010102,0.41341 v -0.15227 l 0.305925,-0.11782 v -0.42237 l -0.305925,-0.11093 z m 0.41479,0.29146 v 0.34244 l 0.279741,-0.10542 q 0.127469,-0.0482 0.209462,-0.0717 -0.09715,-0.0193 -0.192925,-0.0544 z"
         id="text26"
         style="font-size:1.41111px;line-height:1.25;font-family:Arial;-inkscape-font-specification:Arial;text-align:justify;fill:#ffffff;stroke-width:0.294"
         aria-label="OTA" /><rect
         style="fill:#dfcec4;fill-opacity:1;stroke:#dfcec4;stroke-width:0.137234;stroke-opacity:1"
         id="rect26"
         width="1.3627659"
         height="75.54277"
         x="-114.94331"
         y="51.942844"
         rx="0.14131662"
         ry="1.5418149"
         transform="rotate(-90)" /><rect
         style="fill:#ffff00;fill-opacity:1;stroke:none;stroke-width:0.299673;stroke-opacity:1"
         id="rect6"
         width="11.932427"
         height="11.688909"
         x="-120.98306"
         y="73.5485"
         transform="rotate(-90)" /><rect
         style="fill:#ffff00;fill-opacity:1;stroke:none;stroke-width:0.299673;stroke-opacity:1"
         id="rect7"
         width="11.932427"
         height="11.688909"
         x="-120.98306"
         y="86.777634"
         transform="rotate(-90)" /></g></g></svg>
