<?xml version="1.0" encoding="UTF-8" standalone="no"?>
<!-- Generator: Adobe Illustrator 15.1.0, SVG Export Plug-In . SVG Version: 6.00 Build 0)  -->

<svg
   version="1.1"
   xml:space="preserve"
   gorn="0"
   width="1.6536243in"
   height="0.9448607in"
   viewBox="0 0 119.06096 68.030016"
   y="0px"
   id="Layer_2"
   x="0px"
   sodipodi:docname="sd.svg"
   inkscape:version="1.4.2 (f4327f4, 2025-05-13)"
   xmlns:inkscape="http://www.inkscape.org/namespaces/inkscape"
   xmlns:sodipodi="http://sodipodi.sourceforge.net/DTD/sodipodi-0.dtd"
   xmlns="http://www.w3.org/2000/svg"
   xmlns:svg="http://www.w3.org/2000/svg"><defs
   id="defs87" /><sodipodi:namedview
   id="namedview87"
   pagecolor="#505050"
   bordercolor="#eeeeee"
   borderopacity="1"
   inkscape:showpageshadow="0"
   inkscape:pageopacity="0"
   inkscape:pagecheckerboard="0"
   inkscape:deskcolor="#505050"
   inkscape:document-units="in"
   inkscape:zoom="3.3953492"
   inkscape:cx="79.37328"
   inkscape:cy="45.208899"
   inkscape:window-width="1366"
   inkscape:window-height="697"
   inkscape:window-x="-8"
   inkscape:window-y="-8"
   inkscape:window-maximized="1"
   inkscape:current-layer="Layer_2" />
    <g
   gorn="0.0"
   id="breadboard"
   transform="rotate(-90,34.014,34.016)">
        <desc
   id="desc1">
            <referenceFile>PG6SD_BREADBOARD_v4.svg</referenceFile>
        </desc>
        <path
   fill="#172149"
   d="M 4.53,0.002 0,3.311 v 112.443 l 4.529,3.309 h 12.658 l 3.875,-3.811 H 42.5 l 3.563,3.811 H 63.5 l 4.53,-3.309 V 3.311 L 63.501,0.002 Z m 0.876,116.844 c -1.95,0 -3.531,-1.58 -3.531,-3.531 0,-1.949 1.581,-3.531 3.531,-3.531 1.95,0 3.531,1.582 3.531,3.531 0.001,1.951 -1.581,3.531 -3.531,3.531 z m 0,-106.656 c -1.95,0 -3.531,-1.581 -3.531,-3.531 0,-1.95 1.581,-3.531 3.531,-3.531 1.95,0 3.531,1.581 3.531,3.531 0,1.95 -1.581,3.531 -3.531,3.531 z m 10.096,2.289 c -0.661,0 -1.197,-0.536 -1.197,-1.197 0,-0.661 0.536,-1.197 1.197,-1.197 0.661,0 1.198,0.535 1.198,1.196 0,0.661 -0.536,1.198 -1.198,1.198 z m 7.201,0 c -0.662,0 -1.198,-0.536 -1.198,-1.198 0,-0.662 0.536,-1.198 1.198,-1.198 0.662,0 1.197,0.537 1.197,1.198 0,0.661 -0.536,1.198 -1.197,1.198 z m 7.2,0 c -0.662,0 -1.198,-0.536 -1.198,-1.198 0,-0.662 0.536,-1.198 1.198,-1.198 0.662,0 1.198,0.536 1.198,1.198 0,0.662 -0.537,1.198 -1.198,1.198 z m 7.201,0 c -0.661,0 -1.198,-0.536 -1.198,-1.198 0,-0.662 0.537,-1.198 1.198,-1.198 0.66,0 1.197,0.536 1.197,1.198 0,0.662 -0.537,1.198 -1.197,1.198 z m 7.199,0 c -0.662,0 -1.198,-0.536 -1.198,-1.198 0,-0.662 0.536,-1.198 1.198,-1.198 0.661,0 1.197,0.536 1.197,1.198 0,0.662 -0.536,1.198 -1.197,1.198 z m 7.2,0 c -0.661,0 -1.198,-0.536 -1.198,-1.198 0,-0.662 0.537,-1.198 1.198,-1.198 0.66,0 1.197,0.536 1.197,1.198 0,0.662 -0.537,1.198 -1.197,1.198 z m 10.435,104.367 c -1.95,0 -3.531,-1.58 -3.531,-3.531 0,-1.949 1.581,-3.531 3.531,-3.531 1.95,0 3.531,1.582 3.531,3.531 0,1.951 -1.581,3.531 -3.531,3.531 z M 65.469,6.659 c 0,1.95 -1.581,3.531 -3.531,3.531 -1.95,0 -3.531,-1.581 -3.531,-3.531 0,-1.95 1.581,-3.531 3.531,-3.531 1.95,0 3.531,1.58 3.531,3.531 z"
   id="path1" />
        <g
   gorn="0.0.2"
   id="silkscreen">
            <rect
   stroke-miterlimit="10"
   width="4.4590001"
   height="9.25"
   stroke-width="0.5"
   stroke="#ffffff"
   fill="none"
   y="53.542"
   x="45.583"
   id="rect1" />
            <rect
   stroke-miterlimit="10"
   width="5.8330002"
   height="10.208"
   stroke-width="0.5"
   stroke="#ffffff"
   fill="none"
   y="53.542"
   x="51.792"
   id="rect2" />
            <rect
   stroke-miterlimit="10"
   width="4.375"
   height="9.25"
   stroke-width="0.5"
   stroke="#ffffff"
   fill="none"
   y="19.344"
   x="58.813"
   id="rect3" />
            <path
   stroke-miterlimit="10"
   stroke-width="0.5"
   stroke="#ffffff"
   fill="none"
   d="m 10.188,18.344 h 4.656 4.656 v 9.406 h -4.656 -4.656 z m 4.656,9.406 v -9.406 m -4.656,0.781 H 5.563 v 9.281 h 4.625 V 27.75"
   id="path3" />
            <rect
   stroke-miterlimit="10"
   width="4.3330002"
   height="9.1879997"
   stroke-width="0.5"
   stroke="#ffffff"
   fill="none"
   y="51.438"
   x="12.854"
   id="rect4" />
            <rect
   stroke-miterlimit="10"
   width="4.3330002"
   height="9.1879997"
   stroke-width="0.5"
   stroke="#ffffff"
   fill="none"
   y="51.438"
   x="7.4380002"
   id="rect5" />
            <rect
   stroke-miterlimit="10"
   width="43.5"
   height="7.1880002"
   stroke-width="0.5"
   stroke="#ffffff"
   fill="none"
   y="7.6880002"
   x="11.75"
   id="rect6" />
            <g
   id="g8">
                <line
   stroke-miterlimit="10"
   x2="54.709"
   stroke-width="0.25"
   y1="114.126"
   y2="73.667"
   stroke="#ffffff"
   fill="none"
   x1="54.709"
   id="line6" />
                <line
   stroke-miterlimit="10"
   x2="11.771"
   stroke-width="0.25"
   y1="74.780998"
   y2="96.125999"
   stroke="#ffffff"
   fill="none"
   x1="11.771"
   id="line7" />
                <line
   stroke-miterlimit="10"
   x2="50.042"
   stroke-width="0.25"
   y1="71.656998"
   y2="71.656998"
   stroke="#ffffff"
   fill="none"
   x1="41.563"
   id="line8" />
            </g>
            <g
   id="g10">
                <g
   id="g9">
                    <path
   fill="#ffffff"
   d="m 11.255,115.181 c 0.621,-0.505 1.242,-1.01 1.862,-1.515 -0.236,0 -0.471,0 -0.707,0 0.653,0.505 1.307,1.01 1.96,1.515 0.503,0.389 1.217,-0.313 0.707,-0.707 -0.653,-0.505 -1.307,-1.01 -1.96,-1.515 -0.233,-0.181 -0.474,-0.189 -0.707,0 -0.621,0.505 -1.242,1.01 -1.862,1.515 -0.501,0.407 0.211,1.11 0.707,0.707 z"
   id="path8" />
                    <path
   fill="#ffffff"
   d="m 12.264,113.313 c 0.016,1.623 0.033,3.246 0.049,4.869 0.006,0.645 1.006,0.646 1,0 -0.016,-1.623 -0.033,-3.246 -0.049,-4.869 -0.007,-0.645 -1.007,-0.646 -1,0 z"
   id="path9" />
                </g>
            </g>
        </g>
        <g
   id="g21">
            <g
   id="g13">
                <rect
   width="8.1499996"
   height="17.395"
   fill="#303030"
   y="31.358"
   x="44.307999"
   id="rect10" />
                <polygon
   points="52.439,31.358 53.074,30.619 53.074,49.465 53.074,49.492 52.439,48.752 "
   fill="#3d3e3d"
   id="polygon10" />
                <polygon
   points="43.69,31.358 43.69,30.619 44.324,31.358 44.324,31.358 44.324,48.752 43.69,49.494 43.69,48.752 "
   id="polygon11" />
                <polygon
   points="52.439,48.752 53.074,49.494 43.69,49.494 44.324,48.752 "
   fill="#1e1f1f"
   id="polygon12" />
                <polygon
   points="52.439,31.358 44.324,31.358 43.69,30.619 53.074,30.619 "
   fill="#1e1f1f"
   id="polygon13" />
            </g>
            <g
   id="g14">
                <rect
   width="4.0510001"
   height="2.188"
   fill="#999999"
   y="32.708"
   x="53.074001"
   id="rect13" />
                <rect
   width="1.2079999"
   height="2.188"
   fill="#666766"
   y="32.708"
   x="54.688"
   id="rect14" />
            </g>
            <g
   id="g16">
                <rect
   width="5.0029998"
   height="8.6879997"
   fill="#999999"
   y="36.063"
   x="38.688"
   id="rect15" />
                <rect
   width="1.219"
   height="8.6879997"
   fill="#666766"
   y="36.063"
   x="40.094002"
   id="rect16" />
            </g>
            <g
   id="g18">
                <rect
   width="4.0510001"
   height="2.188"
   fill="#999999"
   y="39.083"
   x="53.074001"
   id="rect17" />
                <rect
   width="1.2079999"
   height="2.188"
   fill="#666766"
   y="39.083"
   x="54.688"
   id="rect18" />
            </g>
            <g
   id="g20">
                <rect
   width="4.0510001"
   height="2.188"
   fill="#999999"
   y="45.771"
   x="53.074001"
   id="rect19" />
                <rect
   width="1.2079999"
   height="2.188"
   fill="#666766"
   y="45.771"
   x="54.688"
   id="rect20" />
            </g>
        </g>
        <g
   id="g23">
            <rect
   width="2.125"
   height="3.977"
   fill="#95825d"
   y="22.398001"
   x="59.938"
   id="rect21" />
            <rect
   width="2.125"
   height="0.89600003"
   fill="#999999"
   y="22.398001"
   x="59.938"
   id="rect22" />
            <rect
   width="2.1259999"
   height="0.89600003"
   fill="#999999"
   y="25.479"
   x="59.938"
   id="rect23" />
        </g>
        <g
   id="g26">
            <rect
   width="2.125"
   height="3.977"
   fill="#95825d"
   y="56.451"
   x="46.750999"
   id="rect24" />
            <rect
   width="2.125"
   height="0.89600003"
   fill="#999999"
   y="56.451"
   x="46.750999"
   id="rect25" />
            <rect
   width="2.1259999"
   height="0.89600003"
   fill="#999999"
   y="59.532001"
   x="46.75"
   id="rect26" />
        </g>
        <g
   id="g29">
            <rect
   width="2.125"
   height="3.977"
   fill="#95825d"
   y="22.023001"
   x="6.5949998"
   id="rect27" />
            <rect
   width="2.125"
   height="0.89600003"
   fill="#999999"
   y="22.023001"
   x="6.5949998"
   id="rect28" />
            <rect
   width="2.1259999"
   height="0.89600003"
   fill="#999999"
   y="25.104"
   x="6.5939999"
   id="rect29" />
        </g>
        <g
   id="g32">
            <rect
   width="2.165"
   height="4.2810001"
   fill="#020202"
   y="21.271"
   x="11.438"
   id="rect30" />
            <rect
   width="2.165"
   height="0.68199998"
   fill="#999999"
   y="24.870001"
   x="11.438"
   id="rect31" />
            <rect
   width="2.165"
   height="0.685"
   fill="#999999"
   y="21.271"
   x="11.438"
   id="rect32" />
        </g>
        <g
   id="g35">
            <rect
   width="2.165"
   height="4.2810001"
   fill="#020202"
   y="21.271"
   x="16.021"
   id="rect33" />
            <rect
   width="2.165"
   height="0.68199998"
   fill="#999999"
   y="24.870001"
   x="16.021"
   id="rect34" />
            <rect
   width="2.165"
   height="0.685"
   fill="#999999"
   y="21.271"
   x="16.021"
   id="rect35" />
        </g>
        <g
   id="g38">
            <rect
   width="2.3469999"
   height="4.6420002"
   fill="#020202"
   y="53.702999"
   x="13.848"
   id="rect36" />
            <rect
   width="2.3469999"
   height="0.73900002"
   fill="#999999"
   y="57.604"
   x="13.848"
   id="rect37" />
            <rect
   width="2.3469999"
   height="0.74199998"
   fill="#999999"
   y="53.702999"
   x="13.848"
   id="rect38" />
        </g>
        <g
   id="g41">
            <rect
   width="2.3469999"
   height="4.6420002"
   fill="#020202"
   y="53.702999"
   x="8.4309998"
   id="rect39" />
            <rect
   width="2.3469999"
   height="0.73900002"
   fill="#999999"
   y="57.604"
   x="8.4309998"
   id="rect40" />
            <rect
   width="2.3469999"
   height="0.74199998"
   fill="#999999"
   y="53.702999"
   x="8.4309998"
   id="rect41" />
        </g>
        <g
   id="g44">
            <rect
   width="3.092"
   height="5.2839999"
   fill="#ad9977"
   y="56.326"
   x="53.075001"
   id="rect42" />
            <rect
   width="3.092"
   height="1.484"
   fill="#999999"
   y="56.326"
   x="53.075001"
   id="rect43" />
            <rect
   width="3.0929999"
   height="1.605"
   fill="#999999"
   y="60.004002"
   x="53.074001"
   id="rect44" />
        </g>
        <g
   id="g75">
            <rect
   width="13.219"
   height="11.75"
   y="33.938"
   x="6.5939999"
   id="rect45" />
            <g
   id="g60">
                <g
   id="g47">
                    <rect
   width="0.428"
   height="0.49900001"
   fill="#666766"
   y="32.787998"
   x="18.354"
   id="rect46" />
                    <rect
   width="0.428"
   height="0.63499999"
   fill="#999999"
   y="33.286999"
   x="18.354"
   id="rect47" />
                </g>
                <g
   id="g49">
                    <rect
   width="0.428"
   height="0.49900001"
   fill="#666766"
   y="32.787998"
   x="16.593"
   id="rect48" />
                    <rect
   width="0.428"
   height="0.63499999"
   fill="#999999"
   y="33.286999"
   x="16.593"
   id="rect49" />
                </g>
                <g
   id="g51">
                    <rect
   width="0.428"
   height="0.49900001"
   fill="#666766"
   y="32.787998"
   x="14.707"
   id="rect50" />
                    <rect
   width="0.428"
   height="0.63499999"
   fill="#999999"
   y="33.286999"
   x="14.707"
   id="rect51" />
                </g>
                <g
   id="g53">
                    <rect
   width="0.428"
   height="0.49900001"
   fill="#666766"
   y="32.787998"
   x="12.879"
   id="rect52" />
                    <rect
   width="0.428"
   height="0.63499999"
   fill="#999999"
   y="33.286999"
   x="12.879"
   id="rect53" />
                </g>
                <g
   id="g55">
                    <rect
   width="0.428"
   height="0.49900001"
   fill="#666766"
   y="32.787998"
   x="11.004"
   id="rect54" />
                    <rect
   width="0.428"
   height="0.63499999"
   fill="#999999"
   y="33.286999"
   x="11.004"
   id="rect55" />
                </g>
                <g
   id="g57">
                    <rect
   width="0.428"
   height="0.49900001"
   fill="#666766"
   y="32.787998"
   x="9.2379999"
   id="rect56" />
                    <rect
   width="0.428"
   height="0.63499999"
   fill="#999999"
   y="33.286999"
   x="9.2379999"
   id="rect57" />
                </g>
                <g
   id="g59">
                    <rect
   width="0.428"
   height="0.49900001"
   fill="#666766"
   y="32.787998"
   x="7.3790002"
   id="rect58" />
                    <rect
   width="0.428"
   height="0.63499999"
   fill="#999999"
   y="33.286999"
   x="7.3790002"
   id="rect59" />
                </g>
            </g>
            <g
   id="g74">
                <g
   id="g61">
                    <rect
   width="0.428"
   height="0.49900001"
   fill="#666766"
   y="46.323002"
   x="7.3920002"
   id="rect60" />
                    <rect
   width="0.428"
   height="0.63499999"
   fill="#999999"
   y="45.688"
   x="7.3920002"
   id="rect61" />
                </g>
                <g
   id="g63">
                    <rect
   width="0.428"
   height="0.49900001"
   fill="#666766"
   y="46.323002"
   x="9.1520004"
   id="rect62" />
                    <rect
   width="0.428"
   height="0.63499999"
   fill="#999999"
   y="45.688"
   x="9.1520004"
   id="rect63" />
                </g>
                <g
   id="g65">
                    <rect
   width="0.428"
   height="0.49900001"
   fill="#666766"
   y="46.323002"
   x="11.038"
   id="rect64" />
                    <rect
   width="0.428"
   height="0.63499999"
   fill="#999999"
   y="45.688"
   x="11.038"
   id="rect65" />
                </g>
                <g
   id="g67">
                    <rect
   width="0.428"
   height="0.49900001"
   fill="#666766"
   y="46.323002"
   x="12.866"
   id="rect66" />
                    <rect
   width="0.428"
   height="0.63499999"
   fill="#999999"
   y="45.688"
   x="12.866"
   id="rect67" />
                </g>
                <g
   id="g69">
                    <rect
   width="0.428"
   height="0.49900001"
   fill="#666766"
   y="46.323002"
   x="14.741"
   id="rect68" />
                    <rect
   width="0.428"
   height="0.63499999"
   fill="#999999"
   y="45.688"
   x="14.741"
   id="rect69" />
                </g>
                <g
   id="g71">
                    <rect
   width="0.428"
   height="0.49900001"
   fill="#666766"
   y="46.323002"
   x="16.507"
   id="rect70" />
                    <rect
   width="0.428"
   height="0.63499999"
   fill="#999999"
   y="45.688"
   x="16.507"
   id="rect71" />
                </g>
                <g
   id="g73">
                    <rect
   width="0.428"
   height="0.49900001"
   fill="#666766"
   y="46.323002"
   x="18.365999"
   id="rect72" />
                    <rect
   width="0.428"
   height="0.63499999"
   fill="#999999"
   y="45.688"
   x="18.365999"
   id="rect73" />
                </g>
            </g>
        </g>
        <g
   id="g87">
            <g
   id="g78">
                <g
   id="g77">
                    <polygon
   stroke-miterlimit="10"
   points="49.813,75.875 49.813,77.172 53.641,77.172 53.641,96.126 46.397,96.126 46.396,100.542 47.792,101.917 47.834,108.584 47.984,108.828 48.25,108.959 48.667,108.959 49.042,108.751 49.102,108.471 49.167,108.167 49.125,104.876 49.5,101.751 47.542,100.126 47.5,98.209 47.792,97.834 50.459,97.834 51.084,98.042 51.417,98.459 51.5,98.751 51.542,99.251 51.334,107.626 51.375,108.042 51.5,108.438 51.75,108.667 53.501,108.708 53.501,114.126 45.292,114.126 43.25,113.084 40.641,112.266 37.917,111.626 35.042,111.334 26.667,111.251 12.438,111.25 12.438,72.75 50.875,72.75 50.875,75.875 "
   stroke-width="0.15"
   stroke="#848484"
   fill="#565656"
   id="polygon75" />
                    <polygon
   stroke-miterlimit="10"
   points="49.813,77.172 53.641,77.172 53.641,96.126 46.397,96.126 46.396,100.542 47.792,101.917 47.834,108.584 47.984,108.828 48.25,108.959 48.667,108.959 49.042,108.751 49.102,108.471 49.167,108.167 49.125,104.876 49.5,101.751 47.542,100.126 47.5,98.209 47.792,97.834 50.459,97.834 51.084,98.042 51.417,98.459 51.5,98.751 51.542,99.251 51.334,107.626 51.375,108.042 51.5,108.438 51.75,108.667 53.501,108.708 53.501,114.126 54.25,114.126 54.25,72.75 50.875,72.75 50.875,75.875 49.813,75.875 "
   stroke-width="0.15"
   stroke="#666766"
   fill="#191919"
   id="polygon76" />
                    <path
   stroke-miterlimit="10"
   stroke-width="0.15"
   stroke="#666766"
   fill="#191919"
   d="m 50.875,72.875 c 0,-2.297 3.375,-2.373 3.375,0"
   id="path76" />
                    <rect
   stroke-miterlimit="10"
   width="0.63599998"
   height="12.573"
   stroke-width="0.15"
   stroke="#666766"
   y="96.125999"
   x="52.588001"
   id="rect76" />
                    <path
   fill="#666766"
   d="m 51.578,72.75 v 2.734 h 2.359 V 72.75 Z m 1.719,2.078 h -0.922 v -1.5 h 0.922 z"
   id="path77" />
                </g>
                <polygon
   stroke-miterlimit="10"
   points="14.438,88.344 12.438,88.344 12.438,74.781 14.781,75.719 14.781,87.969 "
   stroke-width="0.15"
   stroke="#666766"
   fill="#191919"
   id="polygon77" />
            </g>
            <g
   id="g86">
                <rect
   width="2.4579999"
   height="3.7079999"
   fill="#999999"
   y="69.042"
   x="22.708"
   id="rect78" />
                <rect
   width="2.4579999"
   height="3.7079999"
   fill="#999999"
   y="69.042"
   x="25.875"
   id="rect79" />
                <rect
   width="2.4579999"
   height="3.7079999"
   fill="#999999"
   y="69.042"
   x="28.958"
   id="rect80" />
                <rect
   width="2.4579999"
   height="3.7079999"
   fill="#999999"
   y="69.042"
   x="32.167"
   id="rect81" />
                <rect
   width="2.4579999"
   height="3.7079999"
   fill="#999999"
   y="69.042"
   x="35.25"
   id="rect82" />
                <rect
   width="2.4579999"
   height="3.7079999"
   fill="#999999"
   y="69.042"
   x="38.375"
   id="rect83" />
                <rect
   width="2.4579999"
   height="3.7079999"
   fill="#999999"
   y="69.042"
   x="13.333"
   id="rect84" />
                <rect
   width="2.4579999"
   height="3.7079999"
   fill="#999999"
   y="69.042"
   x="16.417"
   id="rect85" />
                <rect
   width="2.4579999"
   height="3.7079999"
   fill="#999999"
   y="69.042"
   x="19.458"
   id="rect86" />
            </g>
        </g>
        <g
   gorn="0.0.14"
   id="copper1">
            <path
   gorn="0.0.14.0"
   fill="#9a916c"
   d="m 15.502,8.888 c -1.321,0 -2.394,1.072 -2.394,2.394 0,1.322 1.072,2.394 2.394,2.394 1.322,0 2.394,-1.071 2.394,-2.394 0,-1.322 -1.073,-2.394 -2.394,-2.394 z m 0,3.591 c -0.661,0 -1.197,-0.536 -1.197,-1.196 0,-0.662 0.536,-1.197 1.197,-1.197 0.661,0 1.197,0.535 1.197,1.197 0,0.659 -0.536,1.196 -1.197,1.196 z"
   id="connector13pin" />
            <path
   gorn="0.0.14.1"
   fill="#9a916c"
   d="m 22.702,8.888 c -1.321,0 -2.393,1.072 -2.393,2.394 0,1.322 1.071,2.394 2.393,2.394 1.322,0 2.394,-1.071 2.394,-2.394 0,-1.322 -1.072,-2.394 -2.394,-2.394 z m 10e-4,3.591 c -0.661,0 -1.197,-0.536 -1.197,-1.196 0,-0.662 0.536,-1.197 1.197,-1.197 0.661,0 1.196,0.535 1.196,1.197 0,0.659 -0.535,1.196 -1.196,1.196 z"
   id="connector12pin" />
            <path
   gorn="0.0.14.2"
   fill="#9a916c"
   d="m 29.902,8.888 c -1.321,0 -2.393,1.072 -2.393,2.394 0,1.322 1.071,2.394 2.393,2.394 1.322,0 2.394,-1.071 2.394,-2.394 0,-1.322 -1.071,-2.394 -2.394,-2.394 z m 0.002,3.591 c -0.661,0 -1.197,-0.536 -1.197,-1.196 0,-0.662 0.536,-1.197 1.197,-1.197 0.661,0 1.196,0.535 1.196,1.197 10e-4,0.659 -0.535,1.196 -1.196,1.196 z"
   id="connector11pin" />
            <path
   gorn="0.0.14.3"
   fill="#9a916c"
   d="m 37.103,8.888 c -1.321,0 -2.393,1.072 -2.393,2.394 0,1.322 1.072,2.394 2.393,2.394 1.322,0 2.394,-1.071 2.394,-2.394 C 39.496,9.96 38.425,8.888 37.103,8.888 Z m 0,3.591 c -0.661,0 -1.196,-0.536 -1.196,-1.196 0,-0.662 0.535,-1.197 1.196,-1.197 0.661,0 1.197,0.534 1.197,1.196 0,0.66 -0.536,1.197 -1.197,1.197 z"
   id="connector10pin" />
            <path
   gorn="0.0.14.4"
   fill="#9a916c"
   d="m 44.302,8.888 c -1.321,0 -2.393,1.072 -2.393,2.394 0,1.322 1.071,2.394 2.393,2.394 1.322,0 2.394,-1.071 2.394,-2.394 C 46.695,9.96 45.624,8.888 44.302,8.888 Z m 0,3.591 c -0.661,0 -1.196,-0.536 -1.196,-1.196 0,-0.662 0.535,-1.197 1.196,-1.197 0.661,0 1.197,0.535 1.197,1.197 0,0.659 -0.536,1.196 -1.197,1.196 z"
   id="connector9pin" />
            <path
   gorn="0.0.14.5"
   fill="#9a916c"
   d="m 51.502,8.888 c -1.321,0 -2.393,1.072 -2.393,2.394 0,1.322 1.071,2.394 2.393,2.394 1.322,0 2.394,-1.071 2.394,-2.394 0,-1.322 -1.072,-2.394 -2.394,-2.394 z m 0,3.591 c -0.661,0 -1.196,-0.536 -1.196,-1.196 0,-0.662 0.535,-1.197 1.196,-1.197 0.661,0 1.197,0.535 1.197,1.197 0,0.659 -0.536,1.196 -1.197,1.196 z"
   id="connector8pin" />
        </g>
    </g>
</svg>
