<?xml version="1.0" encoding="UTF-8" standalone="no"?>
<!-- Created with Inkscape (http://www.inkscape.org/) -->

<svg
   width="21mm"
   height="56.022953mm"
   viewBox="0 0 21 56.022952"
   version="1.1"
   id="svg1"
   xml:space="preserve"
   inkscape:version="1.4.2 (f4327f4, 2025-05-13)"
   sodipodi:docname="semaforo.svg"
   xmlns:inkscape="http://www.inkscape.org/namespaces/inkscape"
   xmlns:sodipodi="http://sodipodi.sourceforge.net/DTD/sodipodi-0.dtd"
   xmlns="http://www.w3.org/2000/svg"
   xmlns:svg="http://www.w3.org/2000/svg"><sodipodi:namedview
     id="namedview1"
     pagecolor="#505050"
     bordercolor="#eeeeee"
     borderopacity="1"
     inkscape:showpageshadow="0"
     inkscape:pageopacity="0"
     inkscape:pagecheckerboard="0"
     inkscape:deskcolor="#505050"
     inkscape:document-units="mm"
     inkscape:zoom="2.6765575"
     inkscape:cx="42.77883"
     inkscape:cy="111.89746"
     inkscape:window-width="1366"
     inkscape:window-height="697"
     inkscape:window-x="-8"
     inkscape:window-y="-8"
     inkscape:window-maximized="1"
     inkscape:current-layer="layer1" /><defs
     id="defs1" /><g
     inkscape:label="Capa 1"
     inkscape:groupmode="layer"
     id="layer1"
     transform="translate(-91.324994,-54.985415)"><rect
       style="fill:#000000;fill-opacity:1;stroke:#000000;stroke-width:0.403942;stroke-opacity:1"
       id="rect1"
       width="12.596058"
       height="35.096058"
       x="95.201988"
       y="55.187386" /><rect
       style="fill:#000000;fill-opacity:1;stroke:#000000;stroke-width:0.258689;stroke-opacity:1"
       id="rect2"
       width="20.74131"
       height="8.7413111"
       x="91.454338"
       y="102.13771" /><circle
       style="fill:#ff0000;fill-opacity:1;stroke:#ff0000;stroke-width:0.693228;stroke-opacity:1"
       id="path2"
       cx="101.82501"
       cy="62.085415"
       r="3.753386" /><circle
       style="fill:#ffff00;fill-opacity:1;stroke:#ffff00;stroke-width:0.693228;stroke-opacity:1"
       id="circle3"
       cx="101.82501"
       cy="72.735413"
       r="3.753386" /><circle
       style="fill:#01fe01;fill-opacity:1;stroke:#00ff00;stroke-width:0.693228;stroke-opacity:1"
       id="circle4"
       cx="101.82501"
       cy="84.085419"
       r="3.753386" /><rect
       style="fill:#000000;fill-opacity:1;stroke:#000000;stroke-width:0.145737;stroke-opacity:1"
       id="rect4"
       width="4.8542624"
       height="11.854262"
       x="99.072891"
       y="90.283447" /><circle
       style="fill:#ffffff;fill-opacity:1;stroke:#ffffff;stroke-width:0.33351;stroke-opacity:1"
       id="path4"
       cx="94.414619"
       cy="105.34587"
       r="1.5832452" /><circle
       style="fill:#ffffff;fill-opacity:1;stroke:#ffffff;stroke-width:0.33351;stroke-opacity:1"
       id="circle5"
       cx="109.23129"
       cy="105.34587"
       r="1.5832452" /><rect
       style="fill:#646464;fill-opacity:1;stroke:#646464;stroke-width:1.38025;stroke-opacity:1"
       id="rect5"
       width="1.019749"
       height="1.0197505"
       x="97.715118"
       y="108.80423" /><rect
       style="fill:#917c6f;fill-opacity:1;stroke:#646464;stroke-width:1.38025;stroke-opacity:1"
       id="rect6"
       width="1.019749"
       height="1.0197505"
       x="100.11512"
       y="108.80423" /><rect
       style="fill:#f2f2f2;fill-opacity:1;stroke:#646464;stroke-width:1.38025;stroke-opacity:1"
       id="rect7"
       width="1.019749"
       height="1.0197505"
       x="102.51512"
       y="108.80423" /><rect
       style="fill:#917c6f;fill-opacity:1;stroke:#646464;stroke-width:1.38025;stroke-opacity:1"
       id="rect8"
       width="1.019749"
       height="1.0197505"
       x="104.91513"
       y="108.80423" /><rect
       style="fill:#ff0000;fill-opacity:1;stroke:#ffffff;stroke-width:0.610744;stroke-opacity:1"
       id="rect9"
       width="0.38925543"
       height="0.38925588"
       x="98.030365"
       y="109.11948" /><rect
       style="fill:#ff0000;fill-opacity:1;stroke:#ffffff;stroke-width:0.610744;stroke-opacity:1"
       id="rect10"
       width="0.38925543"
       height="0.38925588"
       x="100.43037"
       y="109.11948" /><rect
       style="fill:#ff0000;fill-opacity:1;stroke:#ffffff;stroke-width:0.610744;stroke-opacity:1"
       id="rect11"
       width="0.38925543"
       height="0.38925588"
       x="102.83038"
       y="109.11948" /><rect
       style="fill:#ff0000;fill-opacity:1;stroke:#ffffff;stroke-width:0.610744;stroke-opacity:1"
       id="rect12"
       width="0.38925543"
       height="0.38925588"
       x="105.23038"
       y="109.11948" /><path
       style="font-size:3.52778px;line-height:1.45;font-family:'Times New Roman';-inkscape-font-specification:'Times New Roman, ';fill:#00ff00;stroke-width:0.8"
       d="m 99.235549,105.11717 0.06029,0.73725 h -0.06029 q -0.0913,-0.2756 -0.235989,-0.41513 -0.208429,-0.20154 -0.535713,-0.20154 -0.44614,0 -0.678684,0.35312 -0.194648,0.298 -0.194648,0.70969 0,0.33418 0.129191,0.60979 0.129191,0.2756 0.337619,0.40479 0.210151,0.12747 0.430638,0.12747 0.129191,0 0.249769,-0.0327 0.120579,-0.0327 0.232544,-0.0965 v -0.67524 q 0,-0.1757 -0.02756,-0.2291 -0.02584,-0.0551 -0.08268,-0.0827 -0.05512,-0.0293 -0.19637,-0.0293 v -0.0655 h 0.904338 v 0.0655 h -0.04306 q -0.134359,0 -0.184313,0.0896 -0.03445,0.0637 -0.03445,0.25149 v 0.71486 q -0.198093,0.1068 -0.391018,0.15675 -0.192926,0.05 -0.428915,0.05 -0.676962,0 -1.028362,-0.43409 -0.26355,-0.32556 -0.26355,-0.75103 0,-0.30833 0.14814,-0.59083 0.1757,-0.3359 0.482313,-0.51677 0.25666,-0.14986 0.606337,-0.14986 0.127469,0 0.230822,0.0207 0.105075,0.0207 0.296278,0.0913 0.09646,0.0362 0.129192,0.0362 0.03273,0 0.05512,-0.0293 0.02412,-0.031 0.02928,-0.11886 z"
       id="text13"
       aria-label="G" /><path
       style="font-size:3.52778px;line-height:1.45;font-family:'Times New Roman';-inkscape-font-specification:'Times New Roman, ';fill:#ffff00;stroke-width:0.8"
       d="m 101.06819,105.17057 h 0.81477 v 0.0637 h -0.0448 q -0.0448,0 -0.13091,0.0396 -0.0861,0.0396 -0.15675,0.11369 -0.0706,0.0741 -0.17398,0.24116 l -0.56327,0.88711 v 0.58567 q 0,0.21532 0.0482,0.26872 0.0654,0.0723 0.2067,0.0723 h 0.0758 v 0.0637 h -0.99219 v -0.0637 h 0.0827 q 0.14814,0 0.21015,-0.0896 0.0379,-0.0551 0.0379,-0.25149 v -0.55294 l -0.640791,-0.97841 q -0.113689,-0.17225 -0.15503,-0.21532 -0.03962,-0.0431 -0.167087,-0.10335 -0.03445,-0.0172 -0.09991,-0.0172 v -0.0637 h 0.999078 v 0.0637 h -0.0517 q -0.081,0 -0.14987,0.0379 -0.0672,0.0379 -0.0672,0.11369 0,0.062 0.10508,0.22393 l 0.48748,0.75276 0.4582,-0.72003 q 0.10335,-0.16192 0.10335,-0.24116 0,-0.0482 -0.0258,-0.0861 -0.0241,-0.0379 -0.0706,-0.0586 -0.0465,-0.0224 -0.13953,-0.0224 z"
       id="text14"
       aria-label="Y" /><path
       style="font-size:3.52778px;line-height:1.45;font-family:'Times New Roman';-inkscape-font-specification:'Times New Roman, ';fill:#ff0000;stroke-width:0.8"
       d="m 104.31729,107.50635 h -0.62356 l -0.79065,-1.0921 q -0.0879,0.003 -0.14298,0.003 -0.0224,0 -0.0482,0 -0.0258,-0.002 -0.0534,-0.003 v 0.67869 q 0,0.22048 0.0482,0.27388 0.0654,0.0758 0.19637,0.0758 h 0.0913 v 0.0637 h -1.0008 v -0.0637 h 0.0878 q 0.14814,0 0.21187,-0.0965 0.0362,-0.0534 0.0362,-0.25321 v -1.50896 q 0,-0.22048 -0.0482,-0.27388 -0.0672,-0.0758 -0.19982,-0.0758 h -0.0878 v -0.0637 h 0.85094 q 0.37207,0 0.54777,0.0551 0.17742,0.0534 0.29972,0.19982 0.12403,0.14469 0.12403,0.34623 0,0.21532 -0.14125,0.37379 -0.13953,0.15848 -0.43408,0.22394 l 0.48231,0.67007 q 0.16536,0.23082 0.28422,0.30661 0.11886,0.0758 0.31006,0.0965 z m -1.65882,-1.20062 q 0.0327,0 0.0569,0.002 0.0241,0 0.0396,0 0.33417,0 0.50298,-0.14469 0.17053,-0.14469 0.17053,-0.36863 0,-0.21876 -0.1378,-0.35484 -0.13608,-0.1378 -0.36174,-0.1378 -0.0999,0 -0.27044,0.0327 z"
       id="text15"
       aria-label="R" /><path
       style="font-size:3.52778px;line-height:1.45;font-family:'Times New Roman';-inkscape-font-specification:'Times New Roman, ';fill:#0000ff;stroke-width:0.432955"
       d="m 106.26831,104.76801 -0.39899,0.0326 v -0.0326 q 0.14915,-0.0494 0.22467,-0.12771 0.10907,-0.11281 0.10907,-0.28993 0,-0.24145 -0.19111,-0.3673 -0.16128,-0.10534 -0.38408,-0.10534 -0.18085,0 -0.33001,0.0699 -0.14916,0.0699 -0.21908,0.18272 -0.069,0.11373 -0.069,0.23305 0,0.0699 0.0177,0.13517 0.0177,0.0653 0.0522,0.12586 h 0.36544 q 0.0951,0 0.12398,-0.0149 0.0298,-0.014 0.0448,-0.0447 0.0159,-0.0298 0.0159,-0.10628 h 0.0354 v 0.48942 h -0.0354 v -0.0233 q 0,-0.0727 -0.0485,-0.0997 -0.0345,-0.0186 -0.13611,-0.0186 h -0.38688 q -0.0578,-0.10721 -0.0848,-0.21162 -0.027,-0.10441 -0.027,-0.23213 0,-0.36636 0.23492,-0.55654 0.17619,-0.14263 0.40645,-0.14263 0.16688,0 0.31976,0.0802 0.18179,0.0951 0.27967,0.26103 0.0811,0.1389 0.0811,0.32814 0,0.069 -0.0112,0.12492 -0.0112,0.0569 -0.0494,0.16035 -0.0196,0.0522 -0.0196,0.0699 0,0.0177 0.0159,0.0298 0.0168,0.013 0.0643,0.0159 z m -0.0289,0.18179 v 0.34306 l -0.94808,0.77282 h 0.72901 q 0.11653,0 0.14542,-0.0261 0.0392,-0.0345 0.0392,-0.10907 v -0.0438 h 0.0345 v 0.44001 h -0.0345 v -0.0448 q 0,-0.0802 -0.0485,-0.11373 -0.0298,-0.0205 -0.1361,-0.0205 h -1.06555 v -0.0336 l 1.018,-0.83341 h -0.77841 q -0.11653,0 -0.14543,0.0252 -0.0392,0.0354 -0.0392,0.10908 v 0.0447 h -0.0345 v -0.44001 h 0.0345 v 0.0438 q 0,0.0811 0.0485,0.11466 0.0298,0.0205 0.1361,0.0205 h 0.87909 q 0.0643,-0.055 0.0848,-0.0839 0.0205,-0.028 0.0382,-0.083 0.008,-0.027 0.008,-0.082 z m -1.26411,1.43657 h 0.0345 v 0.0476 q 0,0.0802 0.0512,0.11373 0.0307,0.0205 0.13797,0.0205 h 0.81663 q 0.1184,0 0.14823,-0.0261 0.041,-0.0364 0.041,-0.10814 v -0.0476 h 0.0345 v 0.51459 q 0,0.2834 -0.0643,0.43069 -0.0643,0.14823 -0.21442,0.23772 -0.15008,0.0904 -0.34678,0.0904 -0.26383,0 -0.44095,-0.16035 -0.19763,-0.17992 -0.19763,-0.54815 z m 0.0914,0.36077 q -0.0261,0.1184 -0.0261,0.19857 0,0.21628 0.15195,0.35891 0.15195,0.14263 0.41204,0.14263 0.26196,0 0.41298,-0.14263 0.15102,-0.14263 0.15102,-0.36637 0,-0.0839 -0.0271,-0.19111 z"
       id="text16"
       aria-label="GND" /></g></svg>
