<?xml version="1.0" encoding="UTF-8" standalone="no"?>
<!-- Generator: Adobe Illustrator 18.0.0, SVG Export Plug-In . SVG Version: 6.00 Build 0)  -->

<svg
   width="74.893387mm"
   height="100.22283mm"
   x="0px"
   enable-background="new 78 0 237 90"
   y="0px"
   viewBox="0 0 212.29198 284.09622"
   gorn="0"
   id="svg13574"
   xml:space="preserve"
   version="1.1"
   sodipodi:docname="servoSG90.svg"
   inkscape:version="1.4.2 (f4327f4, 2025-05-13)"
   xmlns:inkscape="http://www.inkscape.org/namespaces/inkscape"
   xmlns:sodipodi="http://sodipodi.sourceforge.net/DTD/sodipodi-0.dtd"
   xmlns="http://www.w3.org/2000/svg"
   xmlns:svg="http://www.w3.org/2000/svg"><defs
   id="defs29" /><sodipodi:namedview
   id="namedview29"
   pagecolor="#505050"
   bordercolor="#eeeeee"
   borderopacity="1"
   inkscape:showpageshadow="0"
   inkscape:pageopacity="0"
   inkscape:pagecheckerboard="0"
   inkscape:deskcolor="#505050"
   inkscape:document-units="mm"
   inkscape:zoom="0.98415759"
   inkscape:cx="115.83511"
   inkscape:cy="141.74559"
   inkscape:window-width="1366"
   inkscape:window-height="697"
   inkscape:window-x="-8"
   inkscape:window-y="-8"
   inkscape:window-maximized="1"
   inkscape:current-layer="svg13574" />
    <desc
   id="desc1">
        <referenceFile>servo_breadb.svg</referenceFile>
    </desc>
    <g
   transform="matrix(0.79132506,-1.1773576,1.1773576,0.79132506,-103.26685,341.59833)"
   id="g29">
        <g
   id="g28">
            <g
   id="g27">
                <g
   id="g26">
                    <g
   transform="translate(0,49.5)"
   id="g25">
                        <g
   id="g24">
                            <g
   id="g23">
                                <g
   gorn="0.1.0.0.0.0.0.0.0"
   id="breadboard_1_">
                                    <g
   gorn="0.1.0.0.0.0.0.0.0.0"
   id="conn">
                                        <path
   d="m 289.7,-11.4 h -135 -4.5 l -4.5,-4.5 h -13.5"
   stroke-linejoin="round"
   fill="none"
   stroke-width="4.5"
   gorn="0.1.0.0.0.0.0.0.0.0.0"
   stroke="#eb7206"
   id="path4914" />
                                        <path
   d="m 289.7,-6.9 h -135 -22.5"
   fill="none"
   stroke-width="4.5"
   gorn="0.1.0.0.0.0.0.0.0.0.1"
   stroke="#cc0404"
   id="path4916" />
                                        <path
   d="m 289.7,-2.4 h -135 -4.5 l -4.5,4.5 h -13.5"
   stroke-linejoin="round"
   fill="none"
   stroke-width="4.5"
   gorn="0.1.0.0.0.0.0.0.0.0.2"
   stroke="#723107"
   id="path4918" />
                                        <linearGradient
   y1="-2.6487999"
   y2="33.3512"
   x1="-86.290901"
   gradientUnits="userSpaceOnUse"
   gradientTransform="translate(189,-22.9985)"
   x2="-72.790901"
   id="rect4930_1_">
                                            <stop
   offset="0"
   style="stop-color:#2C2C2C"
   id="stop1" />
                                            <stop
   offset="0.5"
   style="stop-color:#3C3C3C"
   id="stop2" />
                                            <stop
   offset="1"
   style="stop-color:#333333"
   id="stop3" />
                                        </linearGradient>
                                        <rect
   width="45"
   height="27"
   fill="url(#rect4930_1_)"
   x="87.199997"
   y="-20.4"
   gorn="0.1.0.0.0.0.0.0.0.0.4"
   id="rect4930"
   style="fill:url(#rect4930_1_)" />
                                        <rect
   width="31.5"
   height="1.8"
   fill="#ffffff"
   x="87.199997"
   y="-20.4"
   gorn="0.1.0.0.0.0.0.0.0.0.5"
   id="rect4940"
   fill-opacity="0.3971" />
                                        <rect
   width="31.5"
   height="1.8"
   x="87.199997"
   y="4.8000002"
   gorn="0.1.0.0.0.0.0.0.0.0.6"
   id="rect4942"
   fill-opacity="0.512" />
                                        <path
   d="m 133.1,-15.9 h 12.6 l 4.5,4.5 h 135"
   fill="none"
   stroke-linecap="round"
   stroke-opacity="0.0909091"
   stroke-width="1.8"
   gorn="0.1.0.0.0.0.0.0.0.0.7"
   stroke="#ffffff"
   id="path4958" />
                                        <path
   d="M 133.1,-6.9 H 285.2"
   fill="none"
   stroke-linecap="round"
   stroke-opacity="0.1005"
   stroke-width="1.8"
   gorn="0.1.0.0.0.0.0.0.0.0.8"
   stroke="#ffffff"
   id="path4960" />
                                        <rect
   width="4.5"
   height="4.5"
   fill="none"
   x="85"
   y="-18.200001"
   gorn="0.1.0.0.0.0.0.0.0.0.9"
   id="connector2pin" />
                                        <rect
   width="4.5"
   height="4.5"
   fill="none"
   x="85"
   y="-9.1999998"
   gorn="0.1.0.0.0.0.0.0.0.0.10"
   id="connector3pin" />
                                        <rect
   width="4.5"
   height="4.5"
   fill="none"
   x="85"
   y="-0.2"
   gorn="0.1.0.0.0.0.0.0.0.0.11"
   id="connector4pin" />
                                    </g>
                                    <g
   transform="rotate(-30,225.66355,-354.05153)"
   id="g22">
                                        <g
   id="g21">
                                            <g
   id="g20">
                                                <g
   gorn="0.1.0.0.0.0.0.0.0.1.0.0.0"
   id="g4867">
                                                    <radialGradient
   cx="-275.8898"
   cy="-181.284"
   gradientUnits="userSpaceOnUse"
   gradientTransform="matrix(1.2,1.527944e-5,-1.527944e-5,1.2,389.5577,168.0401)"
   id="path4779_1_"
   r="2.2505">
                                                        <stop
   offset="0"
   style="stop-color:#B3B3B3"
   id="stop4" />
                                                        <stop
   offset="0"
   style="stop-color:#939393"
   id="stop5" />
                                                        <stop
   offset="0.6667"
   style="stop-color:#D3D3D3"
   id="stop6" />
                                                        <stop
   offset="0.8333"
   style="stop-color:#969696"
   id="stop7" />
                                                        <stop
   offset="1"
   style="stop-color:#909090"
   id="stop8" />
                                                    </radialGradient>
                                                    <path
   d="m 61.2,-49.5 c 0,1.5 -1.2,2.7 -2.7,2.7 -1.5,0 -2.7,-1.2 -2.7,-2.7 0,-1.5 1.2,-2.7 2.7,-2.7 1.5,0 2.7,1.2 2.7,2.7 z"
   fill="url(#path4779_1_)"
   gorn="0.1.0.0.0.0.0.0.0.1.0.0.0.1"
   id="path4779"
   style="fill:url(#path4779_1_)" />
                                                    <path
   d="m 56.4,-48.7 3.7,-2.2 0.4,0.6 -3.7,2.2 z m 0.7,-2.5 0.6,-0.4 2.2,3.7 -0.6,0.4 z"
   fill="#333333"
   gorn="0.1.0.0.0.0.0.0.0.1.0.0.0.2"
   id="rect4815"
   fill-opacity="0.3971" />
                                                    <path
   d="m 32,-88.2 c -0.9,-0.5 -2,-0.2 -2.5,0.7 l -7.4,12.9 c 2.3,-1.5 5.3,-1.6 7.9,-0.1 3.7,2.1 4.9,6.8 2.8,10.5 -2.1,3.7 -6.8,4.9 -10.5,2.8 -2.5,-1.5 -3.9,-4.2 -3.8,-6.9 L 11,-55.6 c -0.5,0.9 -0.2,2 0.7,2.5 l 98.2,56.7 c 0.9,0.5 2,0.2 2.5,-0.7 l 7.4,-12.9 c -2.3,1.5 -5.3,1.6 -7.9,0.1 -3.7,-2.1 -4.9,-6.8 -2.8,-10.5 2.1,-3.7 6.8,-4.9 10.5,-2.8 2.5,1.5 3.9,4.2 3.8,6.9 l 7.4,-12.9 c 0.5,-0.9 0.2,-2 -0.7,-2.5 z"
   stroke-linejoin="round"
   fill="#104f8e"
   stroke-width="0.18"
   gorn="0.1.0.0.0.0.0.0.0.1.0.0.0.3"
   stroke="#000000"
   id="rect3699" />
                                                    <g
   transform="matrix(-0.866,-0.5,0.5,-0.866,76.1125,-70.6116)"
   id="g10">
                                                        <g
   id="g9">
                                                            <g
   id="g8">
                                                                <rect
   width="13.5"
   height="3.5999999"
   stroke-linejoin="round"
   fill="#083c87"
   x="21.799999"
   y="-47.299999"
   stroke-linecap="round"
   stroke-width="0.18"
   gorn="0.1.0.0.0.0.0.0.0.1.0.0.0.4.0.0.0"
   stroke="#000000"
   id="rect4660" />
                                                            </g>
                                                        </g>
                                                    </g>
                                                    <g
   transform="matrix(-0.866,-0.5,0.5,-0.866,126.3923,-121.0283)"
   id="g13">
                                                        <g
   id="g12">
                                                            <g
   id="g11">
                                                                <rect
   width="13.5"
   height="3.5999999"
   stroke-linejoin="round"
   fill="#083c87"
   x="40.200001"
   y="-79.199997"
   stroke-linecap="round"
   stroke-width="0.18"
   gorn="0.1.0.0.0.0.0.0.0.1.0.0.0.5.0.0.0"
   stroke="#000000"
   id="rect4670" />
                                                            </g>
                                                        </g>
                                                    </g>
                                                    <g
   transform="matrix(-0.866,-0.5,0.5,-0.866,231.0343,-16.5234)"
   id="g16">
                                                        <g
   id="g15">
                                                            <g
   id="g14">
                                                                <rect
   width="13.5"
   height="3.5999999"
   stroke-linejoin="round"
   fill="#083c87"
   x="106.6"
   y="-41"
   stroke-linecap="round"
   stroke-width="0.18"
   gorn="0.1.0.0.0.0.0.0.0.1.0.0.0.6.0.0.0"
   stroke="#000000"
   id="rect4674" />
                                                            </g>
                                                        </g>
                                                    </g>
                                                    <g
   transform="matrix(-0.866,-0.5,0.5,-0.866,180.4814,33.8933)"
   id="g19">
                                                        <g
   id="g18">
                                                            <g
   id="g17">
                                                                <rect
   width="13.5"
   height="3.5999999"
   stroke-linejoin="round"
   fill="#083c87"
   x="88"
   y="-9"
   stroke-linecap="round"
   stroke-width="0.18"
   gorn="0.1.0.0.0.0.0.0.0.1.0.0.0.7.0.0.0"
   stroke="#000000"
   id="rect4678" />
                                                            </g>
                                                        </g>
                                                    </g>
                                                    <path
   d="m 51.4,-77 59.2,34.2 c 0.9,0.5 1.2,1.6 0.7,2.5 l -18.5,32 c -0.5,0.9 -1.6,1.2 -2.5,0.7 L 31.2,-41.9 c -0.9,-0.5 -1.2,-1.6 -0.7,-2.5 l 18.5,-32 c 0.5,-0.8 1.6,-1.1 2.4,-0.6 z"
   stroke-linejoin="round"
   fill="#0f4696"
   stroke-width="0.18"
   gorn="0.1.0.0.0.0.0.0.0.1.0.0.0.8"
   stroke="#000000"
   id="rect4629" />
                                                    <path
   d="m 61.6,-71.1 c -8.5,-1 -17.1,3 -21.7,10.9 -4.5,7.9 -3.7,17.4 1.4,24.2 l 15.1,8.7 c 1.3,0.2 2.6,0.2 3.9,0.1 v 0 l 20,-0.4 v -0.1 c 3.3,0.2 6.5,-1.4 8.3,-4.5 1.8,-3 1.5,-6.6 -0.3,-9.4 v -0.1 l -9.7,-17.5 v 0 c -0.6,-1.2 -1.3,-2.3 -2.1,-3.3 z"
   stroke-linejoin="round"
   fill="#083c87"
   stroke-width="0.18"
   gorn="0.1.0.0.0.0.0.0.0.1.0.0.0.9"
   stroke="#000000"
   id="rect4621" />
                                                    <linearGradient
   y1="-37.162899"
   y2="-37.162899"
   x1="-291.703"
   gradientUnits="userSpaceOnUse"
   gradientTransform="matrix(0.866,0.5,-0.5,0.866,333.1548,155.3942)"
   x2="-309.703"
   id="rect4553_1_">
                                                        <stop
   offset="0"
   style="stop-color:#000000;stop-opacity:0.2411"
   id="stop19" />
                                                        <stop
   offset="1"
   style="stop-color:#FFFFFF;stop-opacity:0.2143"
   id="stop20" />
                                                    </linearGradient>
                                                    <path
   d="m 102.1,-47.7 8.6,5 c 0.9,0.5 1.2,1.6 0.7,2.5 l -18.5,32 c -0.5,0.9 -1.6,1.2 -2.5,0.7 l -8.6,-5 C 80.9,-13 80.6,-14.1 81.1,-15 l 18.5,-32 c 0.5,-0.9 1.6,-1.2 2.5,-0.7 z"
   fill="url(#rect4553_1_)"
   gorn="0.1.0.0.0.0.0.0.0.1.0.0.0.11"
   id="rect4553"
   style="fill:url(#rect4553_1_)" />
                                                    <path
   d="m 61.6,-71.1 c -8.5,-1 -17.1,3 -21.7,10.9 -4.5,7.9 -3.7,17.4 1.4,24.2 l 15.1,8.7 c 8.5,1 17.1,-3 21.7,-10.9 4.5,-7.9 3.7,-17.3 -1.4,-24.2 z"
   stroke-linejoin="round"
   fill="#143e82"
   stroke-width="0.18"
   gorn="0.1.0.0.0.0.0.0.0.1.0.0.0.12"
   stroke="#000000"
   id="path4616" />
                                                    <path
   d="M 42.1,-36.4 C 35,-45.7 36.7,-59 45.9,-66.1 50.2,-69.4 55.6,-71 61,-70.4"
   stroke-linejoin="round"
   fill="none"
   stroke-linecap="round"
   stroke-opacity="0.2169"
   stroke-width="1.8"
   gorn="0.1.0.0.0.0.0.0.0.1.0.0.0.13"
   stroke="#ffffff"
   id="path4653" />
                                                    <path
   d="M 56,-28.4 C 67.6,-26.8 78.2,-35 79.8,-46.6 80.5,-52 79.1,-57.4 76,-61.8"
   stroke-linejoin="round"
   fill="none"
   stroke-linecap="round"
   stroke-opacity="0.3386"
   stroke-width="1.8"
   gorn="0.1.0.0.0.0.0.0.0.1.0.0.0.14"
   stroke="#000000"
   id="path4655" />
                                                    <path
   d="m 65.5,-45.5 c -2.2,3.9 -7.2,5.2 -11.1,3 -3.9,-2.2 -5.2,-7.2 -3,-11.1 v 0 c 2.2,-3.9 7.2,-5.2 11.1,-3 3.9,2.2 5.2,7.2 3,11.1 z"
   stroke-linejoin="round"
   fill="#cccccc"
   stroke-linecap="round"
   stroke-opacity="0.6825"
   stroke-width="0.48"
   gorn="0.1.0.0.0.0.0.0.0.1.0.0.0.15"
   stroke="#969696"
   id="path4695" />
                                                    <path
   d="m 58.4,-81 c -3.9,0 -7.1,3.2 -7.1,7.1 v 13 c -1.7,1.1 -3.1,2.5 -4.2,4.2 H 7.2 c -4,0 -7.2,3.2 -7.2,7.2 0,4 3.2,7.2 7.2,7.2 h 39.9 c 1.1,1.7 2.5,3.1 4.2,4.2 v 13 c 0,3.9 3.2,7.1 7.1,7.1 h 0.2 c 3.9,0 7.1,-3.2 7.1,-7.1 v -13 c 1.7,-1.1 3.1,-2.5 4.2,-4.2 h 39.9 c 4,0 7.2,-3.2 7.2,-7.2 0,-4 -3.2,-7.2 -7.2,-7.2 H 69.9 c -1.1,-1.7 -2.5,-3.1 -4.2,-4.2 v -13 c 0,-3.9 -3.2,-7.1 -7.1,-7.1 z m 0.1,5.4 c 1,0 1.8,0.8 1.8,1.8 0,1 -0.8,1.8 -1.8,1.8 -1,0 -1.8,-0.8 -1.8,-1.8 0,-1 0.8,-1.8 1.8,-1.8 z m 0,6.3 c 1,0 1.8,0.8 1.8,1.8 0,1 -0.8,1.8 -1.8,1.8 -1,0 -1.8,-0.8 -1.8,-1.8 0,-1 0.8,-1.8 1.8,-1.8 z m -51.3,18 c 1,0 1.8,0.8 1.8,1.8 0,1 -0.8,1.8 -1.8,1.8 -1,0 -1.8,-0.8 -1.8,-1.8 0,-1 0.8,-1.8 1.8,-1.8 z m 6.3,0 c 1,0 1.8,0.8 1.8,1.8 0,1 -0.8,1.8 -1.8,1.8 -1,0 -1.8,-0.8 -1.8,-1.8 0,-1 0.8,-1.8 1.8,-1.8 z m 6.3,0 c 1,0 1.8,0.8 1.8,1.8 0,1 -0.8,1.8 -1.8,1.8 -1,0 -1.8,-0.8 -1.8,-1.8 0,-1 0.8,-1.8 1.8,-1.8 z m 77.9,0 c 1,0 1.8,0.8 1.8,1.8 0,1 -0.8,1.8 -1.8,1.8 -1,0 -1.8,-0.8 -1.8,-1.8 -0.1,-1 0.8,-1.8 1.8,-1.8 z m 6.2,0 c 1,0 1.8,0.8 1.8,1.8 0,1 -0.8,1.8 -1.8,1.8 -1,0 -1.8,-0.8 -1.8,-1.8 0,-1 0.8,-1.8 1.8,-1.8 z m 6.4,0 c 1,0 1.8,0.8 1.8,1.8 0,1 -0.8,1.8 -1.8,1.8 -1,0 -1.8,-0.8 -1.8,-1.8 -0.1,-1 0.8,-1.8 1.8,-1.8 z m -51.8,18 c 1,0 1.8,0.8 1.8,1.8 0,1 -0.8,1.8 -1.8,1.8 -1,0 -1.8,-0.8 -1.8,-1.8 0,-1 0.8,-1.8 1.8,-1.8 z m 0,6.3 c 1,0 1.8,0.8 1.8,1.8 0,1 -0.8,1.8 -1.8,1.8 -1,0 -1.8,-0.8 -1.8,-1.8 0,-1 0.8,-1.8 1.8,-1.8 z"
   stroke-linejoin="round"
   fill="#dddddd"
   stroke-linecap="round"
   stroke-opacity="0.6825"
   stroke-width="0.48"
   gorn="0.1.0.0.0.0.0.0.0.1.0.0.0.16"
   stroke="#939393"
   id="rect4703" />
                                                    <path
   d="M 72,-49.5 C 72,-42 66,-36 58.5,-36 51,-36 45,-42 45,-49.5 45,-57 51,-63 58.5,-63 66,-63 72,-57 72,-49.5 Z"
   stroke-linejoin="round"
   fill="#b7b7b7"
   stroke-linecap="round"
   stroke-opacity="0.6825"
   stroke-width="0.48"
   gorn="0.1.0.0.0.0.0.0.0.1.0.0.0.17"
   stroke="#8c8c8c"
   id="path4875"
   fill-opacity="0.3971" />
                                                </g>
                                            </g>
                                        </g>
                                    </g>
                                </g>
                            </g>
                        </g>
                    </g>
                </g>
            </g>
        </g>
    </g>
</svg>
